%TF.GenerationSoftware,KiCad,Pcbnew,5.1.10-88a1d61d58~88~ubuntu20.04.1*%
%TF.CreationDate,2021-07-13T00:32:11+05:30*%
%TF.ProjectId,kimchi-epaper-lid,6b696d63-6869-42d6-9570-617065722d6c,v0.1*%
%TF.SameCoordinates,Original*%
%TF.FileFunction,Copper,L2,Inr*%
%TF.FilePolarity,Positive*%
%FSLAX46Y46*%
G04 Gerber Fmt 4.6, Leading zero omitted, Abs format (unit mm)*
G04 Created by KiCad (PCBNEW 5.1.10-88a1d61d58~88~ubuntu20.04.1) date 2021-07-13 00:32:11*
%MOMM*%
%LPD*%
G01*
G04 APERTURE LIST*
%TA.AperFunction,ComponentPad*%
%ADD10C,5.000000*%
%TD*%
%TA.AperFunction,ViaPad*%
%ADD11C,0.500000*%
%TD*%
%TA.AperFunction,ViaPad*%
%ADD12C,0.457200*%
%TD*%
%TA.AperFunction,Conductor*%
%ADD13C,0.127000*%
%TD*%
%TA.AperFunction,Conductor*%
%ADD14C,0.100000*%
%TD*%
G04 APERTURE END LIST*
D10*
X142600000Y-122100000D03*
X142600000Y-97900000D03*
X118450000Y-122100000D03*
X118450000Y-97900000D03*
D11*
X154492920Y-96985580D03*
X155585120Y-96995740D03*
X156677320Y-97000820D03*
X169179200Y-94656400D03*
X170380620Y-96617280D03*
X157769520Y-96998280D03*
X150423840Y-122987560D03*
X151302680Y-122992640D03*
X152181520Y-123007880D03*
X153060360Y-123000260D03*
X155557180Y-105014520D03*
X155554640Y-103884220D03*
X155790860Y-107894880D03*
X157187860Y-107892340D03*
X155562260Y-110790480D03*
X155562260Y-112015606D03*
X155562260Y-113240732D03*
X155562260Y-114465860D03*
D12*
X155887380Y-123002800D03*
X157109120Y-122992640D03*
X157129440Y-125423420D03*
X155821340Y-125390400D03*
X156498250Y-122982480D03*
X169750000Y-95200000D03*
X169750000Y-100050000D03*
X156475390Y-125406910D03*
D11*
X164729120Y-108212380D03*
X154614840Y-102860600D03*
D12*
X146830000Y-108940000D03*
X153164500Y-96995740D03*
X168335920Y-94918020D03*
X148079420Y-94549720D03*
X160797200Y-109220760D03*
X149100500Y-94549720D03*
D11*
X163169560Y-110221520D03*
D12*
X150169840Y-94549720D03*
D11*
X163857900Y-109718600D03*
X160860000Y-111220000D03*
X148773284Y-122993746D03*
X160865780Y-112276000D03*
X149097960Y-125398020D03*
X160865780Y-110216820D03*
X147772080Y-122992640D03*
D13*
X147753884Y-94282559D02*
X147708018Y-94351202D01*
X147676426Y-94427473D01*
X147660320Y-94508442D01*
X147660320Y-94590998D01*
X147676426Y-94671967D01*
X147708018Y-94748238D01*
X147753884Y-94816881D01*
X147812259Y-94875256D01*
X147880902Y-94921122D01*
X147957173Y-94952714D01*
X148038142Y-94968820D01*
X148120698Y-94968820D01*
X148201667Y-94952714D01*
X148277938Y-94921122D01*
X148346581Y-94875256D01*
X148404956Y-94816881D01*
X148450822Y-94748238D01*
X148482414Y-94671967D01*
X148498520Y-94590998D01*
X148498520Y-94508442D01*
X148482414Y-94427473D01*
X148450822Y-94351202D01*
X148404956Y-94282559D01*
X148387897Y-94265500D01*
X148792023Y-94265500D01*
X148774964Y-94282559D01*
X148729098Y-94351202D01*
X148697506Y-94427473D01*
X148681400Y-94508442D01*
X148681400Y-94590998D01*
X148697506Y-94671967D01*
X148729098Y-94748238D01*
X148774964Y-94816881D01*
X148833339Y-94875256D01*
X148901982Y-94921122D01*
X148978253Y-94952714D01*
X149059222Y-94968820D01*
X149141778Y-94968820D01*
X149222747Y-94952714D01*
X149299018Y-94921122D01*
X149367661Y-94875256D01*
X149426036Y-94816881D01*
X149471902Y-94748238D01*
X149503494Y-94671967D01*
X149519600Y-94590998D01*
X149519600Y-94508442D01*
X149503494Y-94427473D01*
X149471902Y-94351202D01*
X149426036Y-94282559D01*
X149408977Y-94265500D01*
X149861363Y-94265500D01*
X149844304Y-94282559D01*
X149798438Y-94351202D01*
X149766846Y-94427473D01*
X149750740Y-94508442D01*
X149750740Y-94590998D01*
X149766846Y-94671967D01*
X149798438Y-94748238D01*
X149844304Y-94816881D01*
X149902679Y-94875256D01*
X149971322Y-94921122D01*
X150047593Y-94952714D01*
X150128562Y-94968820D01*
X150211118Y-94968820D01*
X150292087Y-94952714D01*
X150368358Y-94921122D01*
X150434777Y-94876742D01*
X167916820Y-94876742D01*
X167916820Y-94959298D01*
X167932926Y-95040267D01*
X167964518Y-95116538D01*
X168010384Y-95185181D01*
X168068759Y-95243556D01*
X168137402Y-95289422D01*
X168213673Y-95321014D01*
X168294642Y-95337120D01*
X168377198Y-95337120D01*
X168458167Y-95321014D01*
X168534438Y-95289422D01*
X168603081Y-95243556D01*
X168661456Y-95185181D01*
X168679135Y-95158722D01*
X169330900Y-95158722D01*
X169330900Y-95241278D01*
X169347006Y-95322247D01*
X169378598Y-95398518D01*
X169424464Y-95467161D01*
X169482839Y-95525536D01*
X169551482Y-95571402D01*
X169627753Y-95602994D01*
X169708722Y-95619100D01*
X169791278Y-95619100D01*
X169872247Y-95602994D01*
X169948518Y-95571402D01*
X170017161Y-95525536D01*
X170075536Y-95467161D01*
X170121402Y-95398518D01*
X170152994Y-95322247D01*
X170169100Y-95241278D01*
X170169100Y-95158722D01*
X170152994Y-95077753D01*
X170121402Y-95001482D01*
X170075536Y-94932839D01*
X170017161Y-94874464D01*
X169948518Y-94828598D01*
X169872247Y-94797006D01*
X169791278Y-94780900D01*
X169708722Y-94780900D01*
X169627753Y-94797006D01*
X169551482Y-94828598D01*
X169482839Y-94874464D01*
X169424464Y-94932839D01*
X169378598Y-95001482D01*
X169347006Y-95077753D01*
X169330900Y-95158722D01*
X168679135Y-95158722D01*
X168707322Y-95116538D01*
X168738914Y-95040267D01*
X168755020Y-94959298D01*
X168755020Y-94876742D01*
X168738914Y-94795773D01*
X168707322Y-94719502D01*
X168661456Y-94650859D01*
X168603081Y-94592484D01*
X168534438Y-94546618D01*
X168458167Y-94515026D01*
X168377198Y-94498920D01*
X168294642Y-94498920D01*
X168213673Y-94515026D01*
X168137402Y-94546618D01*
X168068759Y-94592484D01*
X168010384Y-94650859D01*
X167964518Y-94719502D01*
X167932926Y-94795773D01*
X167916820Y-94876742D01*
X150434777Y-94876742D01*
X150437001Y-94875256D01*
X150495376Y-94816881D01*
X150541242Y-94748238D01*
X150572834Y-94671967D01*
X150588940Y-94590998D01*
X150588940Y-94508442D01*
X150572834Y-94427473D01*
X150541242Y-94351202D01*
X150495376Y-94282559D01*
X150478317Y-94265500D01*
X171734500Y-94265500D01*
X171734501Y-125734500D01*
X157411057Y-125734500D01*
X157454976Y-125690581D01*
X157500842Y-125621938D01*
X157532434Y-125545667D01*
X157548540Y-125464698D01*
X157548540Y-125382142D01*
X157532434Y-125301173D01*
X157500842Y-125224902D01*
X157454976Y-125156259D01*
X157396601Y-125097884D01*
X157327958Y-125052018D01*
X157251687Y-125020426D01*
X157170718Y-125004320D01*
X157088162Y-125004320D01*
X157007193Y-125020426D01*
X156930922Y-125052018D01*
X156862279Y-125097884D01*
X156808732Y-125151431D01*
X156800926Y-125139749D01*
X156742551Y-125081374D01*
X156673908Y-125035508D01*
X156597637Y-125003916D01*
X156516668Y-124987810D01*
X156434112Y-124987810D01*
X156353143Y-125003916D01*
X156276872Y-125035508D01*
X156208229Y-125081374D01*
X156154682Y-125134921D01*
X156146876Y-125123239D01*
X156088501Y-125064864D01*
X156019858Y-125018998D01*
X155943587Y-124987406D01*
X155862618Y-124971300D01*
X155780062Y-124971300D01*
X155699093Y-124987406D01*
X155622822Y-125018998D01*
X155554179Y-125064864D01*
X155495804Y-125123239D01*
X155449938Y-125191882D01*
X155418346Y-125268153D01*
X155402240Y-125349122D01*
X155402240Y-125431678D01*
X155418346Y-125512647D01*
X155449938Y-125588918D01*
X155495804Y-125657561D01*
X155554179Y-125715936D01*
X155581962Y-125734500D01*
X149384440Y-125734500D01*
X149440118Y-125678822D01*
X149488326Y-125606675D01*
X149521531Y-125526509D01*
X149538460Y-125441405D01*
X149538460Y-125354635D01*
X149521531Y-125269531D01*
X149488326Y-125189365D01*
X149440118Y-125117218D01*
X149378762Y-125055862D01*
X149306615Y-125007654D01*
X149226449Y-124974449D01*
X149141345Y-124957520D01*
X149054575Y-124957520D01*
X148969471Y-124974449D01*
X148889305Y-125007654D01*
X148817158Y-125055862D01*
X148755802Y-125117218D01*
X148707594Y-125189365D01*
X148674389Y-125269531D01*
X148657460Y-125354635D01*
X148657460Y-125441405D01*
X148674389Y-125526509D01*
X148707594Y-125606675D01*
X148755802Y-125678822D01*
X148811480Y-125734500D01*
X107265500Y-125734500D01*
X107265500Y-124338117D01*
X117020106Y-124338117D01*
X117359176Y-124573684D01*
X117862728Y-124738962D01*
X118388848Y-124802827D01*
X118917318Y-124762823D01*
X119427830Y-124620488D01*
X119540824Y-124573684D01*
X119879894Y-124338117D01*
X141170106Y-124338117D01*
X141509176Y-124573684D01*
X142012728Y-124738962D01*
X142538848Y-124802827D01*
X143067318Y-124762823D01*
X143577830Y-124620488D01*
X143690824Y-124573684D01*
X144029894Y-124338117D01*
X142600000Y-122908223D01*
X141170106Y-124338117D01*
X119879894Y-124338117D01*
X118450000Y-122908223D01*
X117020106Y-124338117D01*
X107265500Y-124338117D01*
X107265500Y-122038848D01*
X115747173Y-122038848D01*
X115787177Y-122567318D01*
X115929512Y-123077830D01*
X115976316Y-123190824D01*
X116211883Y-123529894D01*
X117641777Y-122100000D01*
X119258223Y-122100000D01*
X120688117Y-123529894D01*
X120923684Y-123190824D01*
X121088962Y-122687272D01*
X121152827Y-122161152D01*
X121143569Y-122038848D01*
X139897173Y-122038848D01*
X139937177Y-122567318D01*
X140079512Y-123077830D01*
X140126316Y-123190824D01*
X140361883Y-123529894D01*
X141791777Y-122100000D01*
X143408223Y-122100000D01*
X144838117Y-123529894D01*
X145073684Y-123190824D01*
X145152972Y-122949255D01*
X147331580Y-122949255D01*
X147331580Y-123036025D01*
X147348509Y-123121129D01*
X147381714Y-123201295D01*
X147429922Y-123273442D01*
X147491278Y-123334798D01*
X147563425Y-123383006D01*
X147643591Y-123416211D01*
X147728695Y-123433140D01*
X147815465Y-123433140D01*
X147900569Y-123416211D01*
X147980735Y-123383006D01*
X148052882Y-123334798D01*
X148114238Y-123273442D01*
X148162446Y-123201295D01*
X148195651Y-123121129D01*
X148212580Y-123036025D01*
X148212580Y-122950361D01*
X148332784Y-122950361D01*
X148332784Y-123037131D01*
X148349713Y-123122235D01*
X148382918Y-123202401D01*
X148431126Y-123274548D01*
X148492482Y-123335904D01*
X148564629Y-123384112D01*
X148644795Y-123417317D01*
X148729899Y-123434246D01*
X148816669Y-123434246D01*
X148901773Y-123417317D01*
X148981939Y-123384112D01*
X149054086Y-123335904D01*
X149115442Y-123274548D01*
X149163650Y-123202401D01*
X149196855Y-123122235D01*
X149213784Y-123037131D01*
X149213784Y-122961522D01*
X155468280Y-122961522D01*
X155468280Y-123044078D01*
X155484386Y-123125047D01*
X155515978Y-123201318D01*
X155561844Y-123269961D01*
X155620219Y-123328336D01*
X155688862Y-123374202D01*
X155765133Y-123405794D01*
X155846102Y-123421900D01*
X155928658Y-123421900D01*
X156009627Y-123405794D01*
X156085898Y-123374202D01*
X156154541Y-123328336D01*
X156202975Y-123279902D01*
X156231089Y-123308016D01*
X156299732Y-123353882D01*
X156376003Y-123385474D01*
X156456972Y-123401580D01*
X156539528Y-123401580D01*
X156620497Y-123385474D01*
X156696768Y-123353882D01*
X156765411Y-123308016D01*
X156798605Y-123274822D01*
X156841959Y-123318176D01*
X156910602Y-123364042D01*
X156986873Y-123395634D01*
X157067842Y-123411740D01*
X157150398Y-123411740D01*
X157231367Y-123395634D01*
X157307638Y-123364042D01*
X157376281Y-123318176D01*
X157434656Y-123259801D01*
X157480522Y-123191158D01*
X157512114Y-123114887D01*
X157528220Y-123033918D01*
X157528220Y-122951362D01*
X157512114Y-122870393D01*
X157480522Y-122794122D01*
X157434656Y-122725479D01*
X157376281Y-122667104D01*
X157307638Y-122621238D01*
X157231367Y-122589646D01*
X157150398Y-122573540D01*
X157067842Y-122573540D01*
X156986873Y-122589646D01*
X156910602Y-122621238D01*
X156841959Y-122667104D01*
X156808765Y-122700298D01*
X156765411Y-122656944D01*
X156696768Y-122611078D01*
X156620497Y-122579486D01*
X156539528Y-122563380D01*
X156456972Y-122563380D01*
X156376003Y-122579486D01*
X156299732Y-122611078D01*
X156231089Y-122656944D01*
X156182655Y-122705378D01*
X156154541Y-122677264D01*
X156085898Y-122631398D01*
X156009627Y-122599806D01*
X155928658Y-122583700D01*
X155846102Y-122583700D01*
X155765133Y-122599806D01*
X155688862Y-122631398D01*
X155620219Y-122677264D01*
X155561844Y-122735639D01*
X155515978Y-122804282D01*
X155484386Y-122880553D01*
X155468280Y-122961522D01*
X149213784Y-122961522D01*
X149213784Y-122950361D01*
X149196855Y-122865257D01*
X149163650Y-122785091D01*
X149115442Y-122712944D01*
X149054086Y-122651588D01*
X148981939Y-122603380D01*
X148901773Y-122570175D01*
X148816669Y-122553246D01*
X148729899Y-122553246D01*
X148644795Y-122570175D01*
X148564629Y-122603380D01*
X148492482Y-122651588D01*
X148431126Y-122712944D01*
X148382918Y-122785091D01*
X148349713Y-122865257D01*
X148332784Y-122950361D01*
X148212580Y-122950361D01*
X148212580Y-122949255D01*
X148195651Y-122864151D01*
X148162446Y-122783985D01*
X148114238Y-122711838D01*
X148052882Y-122650482D01*
X147980735Y-122602274D01*
X147900569Y-122569069D01*
X147815465Y-122552140D01*
X147728695Y-122552140D01*
X147643591Y-122569069D01*
X147563425Y-122602274D01*
X147491278Y-122650482D01*
X147429922Y-122711838D01*
X147381714Y-122783985D01*
X147348509Y-122864151D01*
X147331580Y-122949255D01*
X145152972Y-122949255D01*
X145238962Y-122687272D01*
X145302827Y-122161152D01*
X145262823Y-121632682D01*
X145120488Y-121122170D01*
X145073684Y-121009176D01*
X144838117Y-120670106D01*
X143408223Y-122100000D01*
X141791777Y-122100000D01*
X140361883Y-120670106D01*
X140126316Y-121009176D01*
X139961038Y-121512728D01*
X139897173Y-122038848D01*
X121143569Y-122038848D01*
X121112823Y-121632682D01*
X120970488Y-121122170D01*
X120923684Y-121009176D01*
X120688117Y-120670106D01*
X119258223Y-122100000D01*
X117641777Y-122100000D01*
X116211883Y-120670106D01*
X115976316Y-121009176D01*
X115811038Y-121512728D01*
X115747173Y-122038848D01*
X107265500Y-122038848D01*
X107265500Y-119861883D01*
X117020106Y-119861883D01*
X118450000Y-121291777D01*
X119879894Y-119861883D01*
X141170106Y-119861883D01*
X142600000Y-121291777D01*
X144029894Y-119861883D01*
X143690824Y-119626316D01*
X143187272Y-119461038D01*
X142661152Y-119397173D01*
X142132682Y-119437177D01*
X141622170Y-119579512D01*
X141509176Y-119626316D01*
X141170106Y-119861883D01*
X119879894Y-119861883D01*
X119540824Y-119626316D01*
X119037272Y-119461038D01*
X118511152Y-119397173D01*
X117982682Y-119437177D01*
X117472170Y-119579512D01*
X117359176Y-119626316D01*
X117020106Y-119861883D01*
X107265500Y-119861883D01*
X107265500Y-112232615D01*
X160425280Y-112232615D01*
X160425280Y-112319385D01*
X160442209Y-112404489D01*
X160475414Y-112484655D01*
X160523622Y-112556802D01*
X160584978Y-112618158D01*
X160657125Y-112666366D01*
X160737291Y-112699571D01*
X160822395Y-112716500D01*
X160909165Y-112716500D01*
X160994269Y-112699571D01*
X161074435Y-112666366D01*
X161146582Y-112618158D01*
X161207938Y-112556802D01*
X161256146Y-112484655D01*
X161289351Y-112404489D01*
X161306280Y-112319385D01*
X161306280Y-112232615D01*
X161289351Y-112147511D01*
X161256146Y-112067345D01*
X161207938Y-111995198D01*
X161146582Y-111933842D01*
X161074435Y-111885634D01*
X160994269Y-111852429D01*
X160909165Y-111835500D01*
X160822395Y-111835500D01*
X160737291Y-111852429D01*
X160657125Y-111885634D01*
X160584978Y-111933842D01*
X160523622Y-111995198D01*
X160475414Y-112067345D01*
X160442209Y-112147511D01*
X160425280Y-112232615D01*
X107265500Y-112232615D01*
X107265500Y-111176615D01*
X160419500Y-111176615D01*
X160419500Y-111263385D01*
X160436429Y-111348489D01*
X160469634Y-111428655D01*
X160517842Y-111500802D01*
X160579198Y-111562158D01*
X160651345Y-111610366D01*
X160731511Y-111643571D01*
X160816615Y-111660500D01*
X160903385Y-111660500D01*
X160988489Y-111643571D01*
X161068655Y-111610366D01*
X161140802Y-111562158D01*
X161202158Y-111500802D01*
X161250366Y-111428655D01*
X161283571Y-111348489D01*
X161300500Y-111263385D01*
X161300500Y-111176615D01*
X161283571Y-111091511D01*
X161250366Y-111011345D01*
X161202158Y-110939198D01*
X161140802Y-110877842D01*
X161068655Y-110829634D01*
X160988489Y-110796429D01*
X160903385Y-110779500D01*
X160816615Y-110779500D01*
X160731511Y-110796429D01*
X160651345Y-110829634D01*
X160579198Y-110877842D01*
X160517842Y-110939198D01*
X160469634Y-111011345D01*
X160436429Y-111091511D01*
X160419500Y-111176615D01*
X107265500Y-111176615D01*
X107265500Y-110173435D01*
X160425280Y-110173435D01*
X160425280Y-110260205D01*
X160442209Y-110345309D01*
X160475414Y-110425475D01*
X160523622Y-110497622D01*
X160584978Y-110558978D01*
X160657125Y-110607186D01*
X160737291Y-110640391D01*
X160822395Y-110657320D01*
X160909165Y-110657320D01*
X160994269Y-110640391D01*
X161074435Y-110607186D01*
X161146582Y-110558978D01*
X161207938Y-110497622D01*
X161256146Y-110425475D01*
X161289351Y-110345309D01*
X161306280Y-110260205D01*
X161306280Y-110178135D01*
X162729060Y-110178135D01*
X162729060Y-110264905D01*
X162745989Y-110350009D01*
X162779194Y-110430175D01*
X162827402Y-110502322D01*
X162888758Y-110563678D01*
X162960905Y-110611886D01*
X163041071Y-110645091D01*
X163126175Y-110662020D01*
X163212945Y-110662020D01*
X163298049Y-110645091D01*
X163378215Y-110611886D01*
X163450362Y-110563678D01*
X163511718Y-110502322D01*
X163559926Y-110430175D01*
X163593131Y-110350009D01*
X163610060Y-110264905D01*
X163610060Y-110178135D01*
X163593131Y-110093031D01*
X163580783Y-110063221D01*
X163649245Y-110108966D01*
X163729411Y-110142171D01*
X163814515Y-110159100D01*
X163901285Y-110159100D01*
X163986389Y-110142171D01*
X164066555Y-110108966D01*
X164138702Y-110060758D01*
X164200058Y-109999402D01*
X164248266Y-109927255D01*
X164281471Y-109847089D01*
X164298400Y-109761985D01*
X164298400Y-109675215D01*
X164281471Y-109590111D01*
X164248266Y-109509945D01*
X164200058Y-109437798D01*
X164138702Y-109376442D01*
X164066555Y-109328234D01*
X163986389Y-109295029D01*
X163901285Y-109278100D01*
X163814515Y-109278100D01*
X163729411Y-109295029D01*
X163649245Y-109328234D01*
X163577098Y-109376442D01*
X163515742Y-109437798D01*
X163467534Y-109509945D01*
X163434329Y-109590111D01*
X163417400Y-109675215D01*
X163417400Y-109761985D01*
X163434329Y-109847089D01*
X163446677Y-109876899D01*
X163378215Y-109831154D01*
X163298049Y-109797949D01*
X163212945Y-109781020D01*
X163126175Y-109781020D01*
X163041071Y-109797949D01*
X162960905Y-109831154D01*
X162888758Y-109879362D01*
X162827402Y-109940718D01*
X162779194Y-110012865D01*
X162745989Y-110093031D01*
X162729060Y-110178135D01*
X161306280Y-110178135D01*
X161306280Y-110173435D01*
X161289351Y-110088331D01*
X161256146Y-110008165D01*
X161207938Y-109936018D01*
X161146582Y-109874662D01*
X161074435Y-109826454D01*
X160994269Y-109793249D01*
X160909165Y-109776320D01*
X160822395Y-109776320D01*
X160737291Y-109793249D01*
X160657125Y-109826454D01*
X160584978Y-109874662D01*
X160523622Y-109936018D01*
X160475414Y-110008165D01*
X160442209Y-110088331D01*
X160425280Y-110173435D01*
X107265500Y-110173435D01*
X107265500Y-108898722D01*
X146410900Y-108898722D01*
X146410900Y-108981278D01*
X146427006Y-109062247D01*
X146458598Y-109138518D01*
X146504464Y-109207161D01*
X146562839Y-109265536D01*
X146631482Y-109311402D01*
X146707753Y-109342994D01*
X146788722Y-109359100D01*
X146871278Y-109359100D01*
X146952247Y-109342994D01*
X147028518Y-109311402D01*
X147097161Y-109265536D01*
X147155536Y-109207161D01*
X147174030Y-109179482D01*
X160378100Y-109179482D01*
X160378100Y-109262038D01*
X160394206Y-109343007D01*
X160425798Y-109419278D01*
X160471664Y-109487921D01*
X160530039Y-109546296D01*
X160598682Y-109592162D01*
X160674953Y-109623754D01*
X160755922Y-109639860D01*
X160838478Y-109639860D01*
X160919447Y-109623754D01*
X160995718Y-109592162D01*
X161064361Y-109546296D01*
X161122736Y-109487921D01*
X161168602Y-109419278D01*
X161200194Y-109343007D01*
X161216300Y-109262038D01*
X161216300Y-109179482D01*
X161200194Y-109098513D01*
X161168602Y-109022242D01*
X161122736Y-108953599D01*
X161064361Y-108895224D01*
X160995718Y-108849358D01*
X160919447Y-108817766D01*
X160838478Y-108801660D01*
X160755922Y-108801660D01*
X160674953Y-108817766D01*
X160598682Y-108849358D01*
X160530039Y-108895224D01*
X160471664Y-108953599D01*
X160425798Y-109022242D01*
X160394206Y-109098513D01*
X160378100Y-109179482D01*
X147174030Y-109179482D01*
X147201402Y-109138518D01*
X147232994Y-109062247D01*
X147249100Y-108981278D01*
X147249100Y-108898722D01*
X147232994Y-108817753D01*
X147201402Y-108741482D01*
X147155536Y-108672839D01*
X147097161Y-108614464D01*
X147028518Y-108568598D01*
X146952247Y-108537006D01*
X146871278Y-108520900D01*
X146788722Y-108520900D01*
X146707753Y-108537006D01*
X146631482Y-108568598D01*
X146562839Y-108614464D01*
X146504464Y-108672839D01*
X146458598Y-108741482D01*
X146427006Y-108817753D01*
X146410900Y-108898722D01*
X107265500Y-108898722D01*
X107265500Y-108168995D01*
X164288620Y-108168995D01*
X164288620Y-108255765D01*
X164305549Y-108340869D01*
X164338754Y-108421035D01*
X164386962Y-108493182D01*
X164448318Y-108554538D01*
X164520465Y-108602746D01*
X164600631Y-108635951D01*
X164685735Y-108652880D01*
X164772505Y-108652880D01*
X164857609Y-108635951D01*
X164937775Y-108602746D01*
X165009922Y-108554538D01*
X165071278Y-108493182D01*
X165119486Y-108421035D01*
X165152691Y-108340869D01*
X165169620Y-108255765D01*
X165169620Y-108168995D01*
X165152691Y-108083891D01*
X165119486Y-108003725D01*
X165071278Y-107931578D01*
X165009922Y-107870222D01*
X164937775Y-107822014D01*
X164857609Y-107788809D01*
X164772505Y-107771880D01*
X164685735Y-107771880D01*
X164600631Y-107788809D01*
X164520465Y-107822014D01*
X164448318Y-107870222D01*
X164386962Y-107931578D01*
X164338754Y-108003725D01*
X164305549Y-108083891D01*
X164288620Y-108168995D01*
X107265500Y-108168995D01*
X107265500Y-102817215D01*
X154174340Y-102817215D01*
X154174340Y-102903985D01*
X154191269Y-102989089D01*
X154224474Y-103069255D01*
X154272682Y-103141402D01*
X154334038Y-103202758D01*
X154406185Y-103250966D01*
X154486351Y-103284171D01*
X154571455Y-103301100D01*
X154658225Y-103301100D01*
X154743329Y-103284171D01*
X154823495Y-103250966D01*
X154895642Y-103202758D01*
X154956998Y-103141402D01*
X155005206Y-103069255D01*
X155038411Y-102989089D01*
X155055340Y-102903985D01*
X155055340Y-102817215D01*
X155038411Y-102732111D01*
X155005206Y-102651945D01*
X154956998Y-102579798D01*
X154895642Y-102518442D01*
X154823495Y-102470234D01*
X154743329Y-102437029D01*
X154658225Y-102420100D01*
X154571455Y-102420100D01*
X154486351Y-102437029D01*
X154406185Y-102470234D01*
X154334038Y-102518442D01*
X154272682Y-102579798D01*
X154224474Y-102651945D01*
X154191269Y-102732111D01*
X154174340Y-102817215D01*
X107265500Y-102817215D01*
X107265500Y-100138117D01*
X117020106Y-100138117D01*
X117359176Y-100373684D01*
X117862728Y-100538962D01*
X118388848Y-100602827D01*
X118917318Y-100562823D01*
X119427830Y-100420488D01*
X119540824Y-100373684D01*
X119879894Y-100138117D01*
X141170106Y-100138117D01*
X141509176Y-100373684D01*
X142012728Y-100538962D01*
X142538848Y-100602827D01*
X143067318Y-100562823D01*
X143577830Y-100420488D01*
X143690824Y-100373684D01*
X144029894Y-100138117D01*
X143900499Y-100008722D01*
X169330900Y-100008722D01*
X169330900Y-100091278D01*
X169347006Y-100172247D01*
X169378598Y-100248518D01*
X169424464Y-100317161D01*
X169482839Y-100375536D01*
X169551482Y-100421402D01*
X169627753Y-100452994D01*
X169708722Y-100469100D01*
X169791278Y-100469100D01*
X169872247Y-100452994D01*
X169948518Y-100421402D01*
X170017161Y-100375536D01*
X170075536Y-100317161D01*
X170121402Y-100248518D01*
X170152994Y-100172247D01*
X170169100Y-100091278D01*
X170169100Y-100008722D01*
X170152994Y-99927753D01*
X170121402Y-99851482D01*
X170075536Y-99782839D01*
X170017161Y-99724464D01*
X169948518Y-99678598D01*
X169872247Y-99647006D01*
X169791278Y-99630900D01*
X169708722Y-99630900D01*
X169627753Y-99647006D01*
X169551482Y-99678598D01*
X169482839Y-99724464D01*
X169424464Y-99782839D01*
X169378598Y-99851482D01*
X169347006Y-99927753D01*
X169330900Y-100008722D01*
X143900499Y-100008722D01*
X142600000Y-98708223D01*
X141170106Y-100138117D01*
X119879894Y-100138117D01*
X118450000Y-98708223D01*
X117020106Y-100138117D01*
X107265500Y-100138117D01*
X107265500Y-97838848D01*
X115747173Y-97838848D01*
X115787177Y-98367318D01*
X115929512Y-98877830D01*
X115976316Y-98990824D01*
X116211883Y-99329894D01*
X117641777Y-97900000D01*
X119258223Y-97900000D01*
X120688117Y-99329894D01*
X120923684Y-98990824D01*
X121088962Y-98487272D01*
X121152827Y-97961152D01*
X121143569Y-97838848D01*
X139897173Y-97838848D01*
X139937177Y-98367318D01*
X140079512Y-98877830D01*
X140126316Y-98990824D01*
X140361883Y-99329894D01*
X141791777Y-97900000D01*
X143408223Y-97900000D01*
X144838117Y-99329894D01*
X145073684Y-98990824D01*
X145238962Y-98487272D01*
X145302827Y-97961152D01*
X145262823Y-97432682D01*
X145129492Y-96954462D01*
X152745400Y-96954462D01*
X152745400Y-97037018D01*
X152761506Y-97117987D01*
X152793098Y-97194258D01*
X152838964Y-97262901D01*
X152897339Y-97321276D01*
X152965982Y-97367142D01*
X153042253Y-97398734D01*
X153123222Y-97414840D01*
X153205778Y-97414840D01*
X153286747Y-97398734D01*
X153363018Y-97367142D01*
X153431661Y-97321276D01*
X153490036Y-97262901D01*
X153535902Y-97194258D01*
X153567494Y-97117987D01*
X153583600Y-97037018D01*
X153583600Y-96954462D01*
X153567494Y-96873493D01*
X153535902Y-96797222D01*
X153490036Y-96728579D01*
X153431661Y-96670204D01*
X153363018Y-96624338D01*
X153286747Y-96592746D01*
X153205778Y-96576640D01*
X153123222Y-96576640D01*
X153042253Y-96592746D01*
X152965982Y-96624338D01*
X152897339Y-96670204D01*
X152838964Y-96728579D01*
X152793098Y-96797222D01*
X152761506Y-96873493D01*
X152745400Y-96954462D01*
X145129492Y-96954462D01*
X145120488Y-96922170D01*
X145073684Y-96809176D01*
X144838117Y-96470106D01*
X143408223Y-97900000D01*
X141791777Y-97900000D01*
X140361883Y-96470106D01*
X140126316Y-96809176D01*
X139961038Y-97312728D01*
X139897173Y-97838848D01*
X121143569Y-97838848D01*
X121112823Y-97432682D01*
X120970488Y-96922170D01*
X120923684Y-96809176D01*
X120688117Y-96470106D01*
X119258223Y-97900000D01*
X117641777Y-97900000D01*
X116211883Y-96470106D01*
X115976316Y-96809176D01*
X115811038Y-97312728D01*
X115747173Y-97838848D01*
X107265500Y-97838848D01*
X107265500Y-95661883D01*
X117020106Y-95661883D01*
X118450000Y-97091777D01*
X119879894Y-95661883D01*
X141170106Y-95661883D01*
X142600000Y-97091777D01*
X144029894Y-95661883D01*
X143690824Y-95426316D01*
X143187272Y-95261038D01*
X142661152Y-95197173D01*
X142132682Y-95237177D01*
X141622170Y-95379512D01*
X141509176Y-95426316D01*
X141170106Y-95661883D01*
X119879894Y-95661883D01*
X119540824Y-95426316D01*
X119037272Y-95261038D01*
X118511152Y-95197173D01*
X117982682Y-95237177D01*
X117472170Y-95379512D01*
X117359176Y-95426316D01*
X117020106Y-95661883D01*
X107265500Y-95661883D01*
X107265500Y-94265500D01*
X147770943Y-94265500D01*
X147753884Y-94282559D01*
%TA.AperFunction,Conductor*%
D14*
G36*
X147753884Y-94282559D02*
G01*
X147708018Y-94351202D01*
X147676426Y-94427473D01*
X147660320Y-94508442D01*
X147660320Y-94590998D01*
X147676426Y-94671967D01*
X147708018Y-94748238D01*
X147753884Y-94816881D01*
X147812259Y-94875256D01*
X147880902Y-94921122D01*
X147957173Y-94952714D01*
X148038142Y-94968820D01*
X148120698Y-94968820D01*
X148201667Y-94952714D01*
X148277938Y-94921122D01*
X148346581Y-94875256D01*
X148404956Y-94816881D01*
X148450822Y-94748238D01*
X148482414Y-94671967D01*
X148498520Y-94590998D01*
X148498520Y-94508442D01*
X148482414Y-94427473D01*
X148450822Y-94351202D01*
X148404956Y-94282559D01*
X148387897Y-94265500D01*
X148792023Y-94265500D01*
X148774964Y-94282559D01*
X148729098Y-94351202D01*
X148697506Y-94427473D01*
X148681400Y-94508442D01*
X148681400Y-94590998D01*
X148697506Y-94671967D01*
X148729098Y-94748238D01*
X148774964Y-94816881D01*
X148833339Y-94875256D01*
X148901982Y-94921122D01*
X148978253Y-94952714D01*
X149059222Y-94968820D01*
X149141778Y-94968820D01*
X149222747Y-94952714D01*
X149299018Y-94921122D01*
X149367661Y-94875256D01*
X149426036Y-94816881D01*
X149471902Y-94748238D01*
X149503494Y-94671967D01*
X149519600Y-94590998D01*
X149519600Y-94508442D01*
X149503494Y-94427473D01*
X149471902Y-94351202D01*
X149426036Y-94282559D01*
X149408977Y-94265500D01*
X149861363Y-94265500D01*
X149844304Y-94282559D01*
X149798438Y-94351202D01*
X149766846Y-94427473D01*
X149750740Y-94508442D01*
X149750740Y-94590998D01*
X149766846Y-94671967D01*
X149798438Y-94748238D01*
X149844304Y-94816881D01*
X149902679Y-94875256D01*
X149971322Y-94921122D01*
X150047593Y-94952714D01*
X150128562Y-94968820D01*
X150211118Y-94968820D01*
X150292087Y-94952714D01*
X150368358Y-94921122D01*
X150434777Y-94876742D01*
X167916820Y-94876742D01*
X167916820Y-94959298D01*
X167932926Y-95040267D01*
X167964518Y-95116538D01*
X168010384Y-95185181D01*
X168068759Y-95243556D01*
X168137402Y-95289422D01*
X168213673Y-95321014D01*
X168294642Y-95337120D01*
X168377198Y-95337120D01*
X168458167Y-95321014D01*
X168534438Y-95289422D01*
X168603081Y-95243556D01*
X168661456Y-95185181D01*
X168679135Y-95158722D01*
X169330900Y-95158722D01*
X169330900Y-95241278D01*
X169347006Y-95322247D01*
X169378598Y-95398518D01*
X169424464Y-95467161D01*
X169482839Y-95525536D01*
X169551482Y-95571402D01*
X169627753Y-95602994D01*
X169708722Y-95619100D01*
X169791278Y-95619100D01*
X169872247Y-95602994D01*
X169948518Y-95571402D01*
X170017161Y-95525536D01*
X170075536Y-95467161D01*
X170121402Y-95398518D01*
X170152994Y-95322247D01*
X170169100Y-95241278D01*
X170169100Y-95158722D01*
X170152994Y-95077753D01*
X170121402Y-95001482D01*
X170075536Y-94932839D01*
X170017161Y-94874464D01*
X169948518Y-94828598D01*
X169872247Y-94797006D01*
X169791278Y-94780900D01*
X169708722Y-94780900D01*
X169627753Y-94797006D01*
X169551482Y-94828598D01*
X169482839Y-94874464D01*
X169424464Y-94932839D01*
X169378598Y-95001482D01*
X169347006Y-95077753D01*
X169330900Y-95158722D01*
X168679135Y-95158722D01*
X168707322Y-95116538D01*
X168738914Y-95040267D01*
X168755020Y-94959298D01*
X168755020Y-94876742D01*
X168738914Y-94795773D01*
X168707322Y-94719502D01*
X168661456Y-94650859D01*
X168603081Y-94592484D01*
X168534438Y-94546618D01*
X168458167Y-94515026D01*
X168377198Y-94498920D01*
X168294642Y-94498920D01*
X168213673Y-94515026D01*
X168137402Y-94546618D01*
X168068759Y-94592484D01*
X168010384Y-94650859D01*
X167964518Y-94719502D01*
X167932926Y-94795773D01*
X167916820Y-94876742D01*
X150434777Y-94876742D01*
X150437001Y-94875256D01*
X150495376Y-94816881D01*
X150541242Y-94748238D01*
X150572834Y-94671967D01*
X150588940Y-94590998D01*
X150588940Y-94508442D01*
X150572834Y-94427473D01*
X150541242Y-94351202D01*
X150495376Y-94282559D01*
X150478317Y-94265500D01*
X171734500Y-94265500D01*
X171734501Y-125734500D01*
X157411057Y-125734500D01*
X157454976Y-125690581D01*
X157500842Y-125621938D01*
X157532434Y-125545667D01*
X157548540Y-125464698D01*
X157548540Y-125382142D01*
X157532434Y-125301173D01*
X157500842Y-125224902D01*
X157454976Y-125156259D01*
X157396601Y-125097884D01*
X157327958Y-125052018D01*
X157251687Y-125020426D01*
X157170718Y-125004320D01*
X157088162Y-125004320D01*
X157007193Y-125020426D01*
X156930922Y-125052018D01*
X156862279Y-125097884D01*
X156808732Y-125151431D01*
X156800926Y-125139749D01*
X156742551Y-125081374D01*
X156673908Y-125035508D01*
X156597637Y-125003916D01*
X156516668Y-124987810D01*
X156434112Y-124987810D01*
X156353143Y-125003916D01*
X156276872Y-125035508D01*
X156208229Y-125081374D01*
X156154682Y-125134921D01*
X156146876Y-125123239D01*
X156088501Y-125064864D01*
X156019858Y-125018998D01*
X155943587Y-124987406D01*
X155862618Y-124971300D01*
X155780062Y-124971300D01*
X155699093Y-124987406D01*
X155622822Y-125018998D01*
X155554179Y-125064864D01*
X155495804Y-125123239D01*
X155449938Y-125191882D01*
X155418346Y-125268153D01*
X155402240Y-125349122D01*
X155402240Y-125431678D01*
X155418346Y-125512647D01*
X155449938Y-125588918D01*
X155495804Y-125657561D01*
X155554179Y-125715936D01*
X155581962Y-125734500D01*
X149384440Y-125734500D01*
X149440118Y-125678822D01*
X149488326Y-125606675D01*
X149521531Y-125526509D01*
X149538460Y-125441405D01*
X149538460Y-125354635D01*
X149521531Y-125269531D01*
X149488326Y-125189365D01*
X149440118Y-125117218D01*
X149378762Y-125055862D01*
X149306615Y-125007654D01*
X149226449Y-124974449D01*
X149141345Y-124957520D01*
X149054575Y-124957520D01*
X148969471Y-124974449D01*
X148889305Y-125007654D01*
X148817158Y-125055862D01*
X148755802Y-125117218D01*
X148707594Y-125189365D01*
X148674389Y-125269531D01*
X148657460Y-125354635D01*
X148657460Y-125441405D01*
X148674389Y-125526509D01*
X148707594Y-125606675D01*
X148755802Y-125678822D01*
X148811480Y-125734500D01*
X107265500Y-125734500D01*
X107265500Y-124338117D01*
X117020106Y-124338117D01*
X117359176Y-124573684D01*
X117862728Y-124738962D01*
X118388848Y-124802827D01*
X118917318Y-124762823D01*
X119427830Y-124620488D01*
X119540824Y-124573684D01*
X119879894Y-124338117D01*
X141170106Y-124338117D01*
X141509176Y-124573684D01*
X142012728Y-124738962D01*
X142538848Y-124802827D01*
X143067318Y-124762823D01*
X143577830Y-124620488D01*
X143690824Y-124573684D01*
X144029894Y-124338117D01*
X142600000Y-122908223D01*
X141170106Y-124338117D01*
X119879894Y-124338117D01*
X118450000Y-122908223D01*
X117020106Y-124338117D01*
X107265500Y-124338117D01*
X107265500Y-122038848D01*
X115747173Y-122038848D01*
X115787177Y-122567318D01*
X115929512Y-123077830D01*
X115976316Y-123190824D01*
X116211883Y-123529894D01*
X117641777Y-122100000D01*
X119258223Y-122100000D01*
X120688117Y-123529894D01*
X120923684Y-123190824D01*
X121088962Y-122687272D01*
X121152827Y-122161152D01*
X121143569Y-122038848D01*
X139897173Y-122038848D01*
X139937177Y-122567318D01*
X140079512Y-123077830D01*
X140126316Y-123190824D01*
X140361883Y-123529894D01*
X141791777Y-122100000D01*
X143408223Y-122100000D01*
X144838117Y-123529894D01*
X145073684Y-123190824D01*
X145152972Y-122949255D01*
X147331580Y-122949255D01*
X147331580Y-123036025D01*
X147348509Y-123121129D01*
X147381714Y-123201295D01*
X147429922Y-123273442D01*
X147491278Y-123334798D01*
X147563425Y-123383006D01*
X147643591Y-123416211D01*
X147728695Y-123433140D01*
X147815465Y-123433140D01*
X147900569Y-123416211D01*
X147980735Y-123383006D01*
X148052882Y-123334798D01*
X148114238Y-123273442D01*
X148162446Y-123201295D01*
X148195651Y-123121129D01*
X148212580Y-123036025D01*
X148212580Y-122950361D01*
X148332784Y-122950361D01*
X148332784Y-123037131D01*
X148349713Y-123122235D01*
X148382918Y-123202401D01*
X148431126Y-123274548D01*
X148492482Y-123335904D01*
X148564629Y-123384112D01*
X148644795Y-123417317D01*
X148729899Y-123434246D01*
X148816669Y-123434246D01*
X148901773Y-123417317D01*
X148981939Y-123384112D01*
X149054086Y-123335904D01*
X149115442Y-123274548D01*
X149163650Y-123202401D01*
X149196855Y-123122235D01*
X149213784Y-123037131D01*
X149213784Y-122961522D01*
X155468280Y-122961522D01*
X155468280Y-123044078D01*
X155484386Y-123125047D01*
X155515978Y-123201318D01*
X155561844Y-123269961D01*
X155620219Y-123328336D01*
X155688862Y-123374202D01*
X155765133Y-123405794D01*
X155846102Y-123421900D01*
X155928658Y-123421900D01*
X156009627Y-123405794D01*
X156085898Y-123374202D01*
X156154541Y-123328336D01*
X156202975Y-123279902D01*
X156231089Y-123308016D01*
X156299732Y-123353882D01*
X156376003Y-123385474D01*
X156456972Y-123401580D01*
X156539528Y-123401580D01*
X156620497Y-123385474D01*
X156696768Y-123353882D01*
X156765411Y-123308016D01*
X156798605Y-123274822D01*
X156841959Y-123318176D01*
X156910602Y-123364042D01*
X156986873Y-123395634D01*
X157067842Y-123411740D01*
X157150398Y-123411740D01*
X157231367Y-123395634D01*
X157307638Y-123364042D01*
X157376281Y-123318176D01*
X157434656Y-123259801D01*
X157480522Y-123191158D01*
X157512114Y-123114887D01*
X157528220Y-123033918D01*
X157528220Y-122951362D01*
X157512114Y-122870393D01*
X157480522Y-122794122D01*
X157434656Y-122725479D01*
X157376281Y-122667104D01*
X157307638Y-122621238D01*
X157231367Y-122589646D01*
X157150398Y-122573540D01*
X157067842Y-122573540D01*
X156986873Y-122589646D01*
X156910602Y-122621238D01*
X156841959Y-122667104D01*
X156808765Y-122700298D01*
X156765411Y-122656944D01*
X156696768Y-122611078D01*
X156620497Y-122579486D01*
X156539528Y-122563380D01*
X156456972Y-122563380D01*
X156376003Y-122579486D01*
X156299732Y-122611078D01*
X156231089Y-122656944D01*
X156182655Y-122705378D01*
X156154541Y-122677264D01*
X156085898Y-122631398D01*
X156009627Y-122599806D01*
X155928658Y-122583700D01*
X155846102Y-122583700D01*
X155765133Y-122599806D01*
X155688862Y-122631398D01*
X155620219Y-122677264D01*
X155561844Y-122735639D01*
X155515978Y-122804282D01*
X155484386Y-122880553D01*
X155468280Y-122961522D01*
X149213784Y-122961522D01*
X149213784Y-122950361D01*
X149196855Y-122865257D01*
X149163650Y-122785091D01*
X149115442Y-122712944D01*
X149054086Y-122651588D01*
X148981939Y-122603380D01*
X148901773Y-122570175D01*
X148816669Y-122553246D01*
X148729899Y-122553246D01*
X148644795Y-122570175D01*
X148564629Y-122603380D01*
X148492482Y-122651588D01*
X148431126Y-122712944D01*
X148382918Y-122785091D01*
X148349713Y-122865257D01*
X148332784Y-122950361D01*
X148212580Y-122950361D01*
X148212580Y-122949255D01*
X148195651Y-122864151D01*
X148162446Y-122783985D01*
X148114238Y-122711838D01*
X148052882Y-122650482D01*
X147980735Y-122602274D01*
X147900569Y-122569069D01*
X147815465Y-122552140D01*
X147728695Y-122552140D01*
X147643591Y-122569069D01*
X147563425Y-122602274D01*
X147491278Y-122650482D01*
X147429922Y-122711838D01*
X147381714Y-122783985D01*
X147348509Y-122864151D01*
X147331580Y-122949255D01*
X145152972Y-122949255D01*
X145238962Y-122687272D01*
X145302827Y-122161152D01*
X145262823Y-121632682D01*
X145120488Y-121122170D01*
X145073684Y-121009176D01*
X144838117Y-120670106D01*
X143408223Y-122100000D01*
X141791777Y-122100000D01*
X140361883Y-120670106D01*
X140126316Y-121009176D01*
X139961038Y-121512728D01*
X139897173Y-122038848D01*
X121143569Y-122038848D01*
X121112823Y-121632682D01*
X120970488Y-121122170D01*
X120923684Y-121009176D01*
X120688117Y-120670106D01*
X119258223Y-122100000D01*
X117641777Y-122100000D01*
X116211883Y-120670106D01*
X115976316Y-121009176D01*
X115811038Y-121512728D01*
X115747173Y-122038848D01*
X107265500Y-122038848D01*
X107265500Y-119861883D01*
X117020106Y-119861883D01*
X118450000Y-121291777D01*
X119879894Y-119861883D01*
X141170106Y-119861883D01*
X142600000Y-121291777D01*
X144029894Y-119861883D01*
X143690824Y-119626316D01*
X143187272Y-119461038D01*
X142661152Y-119397173D01*
X142132682Y-119437177D01*
X141622170Y-119579512D01*
X141509176Y-119626316D01*
X141170106Y-119861883D01*
X119879894Y-119861883D01*
X119540824Y-119626316D01*
X119037272Y-119461038D01*
X118511152Y-119397173D01*
X117982682Y-119437177D01*
X117472170Y-119579512D01*
X117359176Y-119626316D01*
X117020106Y-119861883D01*
X107265500Y-119861883D01*
X107265500Y-112232615D01*
X160425280Y-112232615D01*
X160425280Y-112319385D01*
X160442209Y-112404489D01*
X160475414Y-112484655D01*
X160523622Y-112556802D01*
X160584978Y-112618158D01*
X160657125Y-112666366D01*
X160737291Y-112699571D01*
X160822395Y-112716500D01*
X160909165Y-112716500D01*
X160994269Y-112699571D01*
X161074435Y-112666366D01*
X161146582Y-112618158D01*
X161207938Y-112556802D01*
X161256146Y-112484655D01*
X161289351Y-112404489D01*
X161306280Y-112319385D01*
X161306280Y-112232615D01*
X161289351Y-112147511D01*
X161256146Y-112067345D01*
X161207938Y-111995198D01*
X161146582Y-111933842D01*
X161074435Y-111885634D01*
X160994269Y-111852429D01*
X160909165Y-111835500D01*
X160822395Y-111835500D01*
X160737291Y-111852429D01*
X160657125Y-111885634D01*
X160584978Y-111933842D01*
X160523622Y-111995198D01*
X160475414Y-112067345D01*
X160442209Y-112147511D01*
X160425280Y-112232615D01*
X107265500Y-112232615D01*
X107265500Y-111176615D01*
X160419500Y-111176615D01*
X160419500Y-111263385D01*
X160436429Y-111348489D01*
X160469634Y-111428655D01*
X160517842Y-111500802D01*
X160579198Y-111562158D01*
X160651345Y-111610366D01*
X160731511Y-111643571D01*
X160816615Y-111660500D01*
X160903385Y-111660500D01*
X160988489Y-111643571D01*
X161068655Y-111610366D01*
X161140802Y-111562158D01*
X161202158Y-111500802D01*
X161250366Y-111428655D01*
X161283571Y-111348489D01*
X161300500Y-111263385D01*
X161300500Y-111176615D01*
X161283571Y-111091511D01*
X161250366Y-111011345D01*
X161202158Y-110939198D01*
X161140802Y-110877842D01*
X161068655Y-110829634D01*
X160988489Y-110796429D01*
X160903385Y-110779500D01*
X160816615Y-110779500D01*
X160731511Y-110796429D01*
X160651345Y-110829634D01*
X160579198Y-110877842D01*
X160517842Y-110939198D01*
X160469634Y-111011345D01*
X160436429Y-111091511D01*
X160419500Y-111176615D01*
X107265500Y-111176615D01*
X107265500Y-110173435D01*
X160425280Y-110173435D01*
X160425280Y-110260205D01*
X160442209Y-110345309D01*
X160475414Y-110425475D01*
X160523622Y-110497622D01*
X160584978Y-110558978D01*
X160657125Y-110607186D01*
X160737291Y-110640391D01*
X160822395Y-110657320D01*
X160909165Y-110657320D01*
X160994269Y-110640391D01*
X161074435Y-110607186D01*
X161146582Y-110558978D01*
X161207938Y-110497622D01*
X161256146Y-110425475D01*
X161289351Y-110345309D01*
X161306280Y-110260205D01*
X161306280Y-110178135D01*
X162729060Y-110178135D01*
X162729060Y-110264905D01*
X162745989Y-110350009D01*
X162779194Y-110430175D01*
X162827402Y-110502322D01*
X162888758Y-110563678D01*
X162960905Y-110611886D01*
X163041071Y-110645091D01*
X163126175Y-110662020D01*
X163212945Y-110662020D01*
X163298049Y-110645091D01*
X163378215Y-110611886D01*
X163450362Y-110563678D01*
X163511718Y-110502322D01*
X163559926Y-110430175D01*
X163593131Y-110350009D01*
X163610060Y-110264905D01*
X163610060Y-110178135D01*
X163593131Y-110093031D01*
X163580783Y-110063221D01*
X163649245Y-110108966D01*
X163729411Y-110142171D01*
X163814515Y-110159100D01*
X163901285Y-110159100D01*
X163986389Y-110142171D01*
X164066555Y-110108966D01*
X164138702Y-110060758D01*
X164200058Y-109999402D01*
X164248266Y-109927255D01*
X164281471Y-109847089D01*
X164298400Y-109761985D01*
X164298400Y-109675215D01*
X164281471Y-109590111D01*
X164248266Y-109509945D01*
X164200058Y-109437798D01*
X164138702Y-109376442D01*
X164066555Y-109328234D01*
X163986389Y-109295029D01*
X163901285Y-109278100D01*
X163814515Y-109278100D01*
X163729411Y-109295029D01*
X163649245Y-109328234D01*
X163577098Y-109376442D01*
X163515742Y-109437798D01*
X163467534Y-109509945D01*
X163434329Y-109590111D01*
X163417400Y-109675215D01*
X163417400Y-109761985D01*
X163434329Y-109847089D01*
X163446677Y-109876899D01*
X163378215Y-109831154D01*
X163298049Y-109797949D01*
X163212945Y-109781020D01*
X163126175Y-109781020D01*
X163041071Y-109797949D01*
X162960905Y-109831154D01*
X162888758Y-109879362D01*
X162827402Y-109940718D01*
X162779194Y-110012865D01*
X162745989Y-110093031D01*
X162729060Y-110178135D01*
X161306280Y-110178135D01*
X161306280Y-110173435D01*
X161289351Y-110088331D01*
X161256146Y-110008165D01*
X161207938Y-109936018D01*
X161146582Y-109874662D01*
X161074435Y-109826454D01*
X160994269Y-109793249D01*
X160909165Y-109776320D01*
X160822395Y-109776320D01*
X160737291Y-109793249D01*
X160657125Y-109826454D01*
X160584978Y-109874662D01*
X160523622Y-109936018D01*
X160475414Y-110008165D01*
X160442209Y-110088331D01*
X160425280Y-110173435D01*
X107265500Y-110173435D01*
X107265500Y-108898722D01*
X146410900Y-108898722D01*
X146410900Y-108981278D01*
X146427006Y-109062247D01*
X146458598Y-109138518D01*
X146504464Y-109207161D01*
X146562839Y-109265536D01*
X146631482Y-109311402D01*
X146707753Y-109342994D01*
X146788722Y-109359100D01*
X146871278Y-109359100D01*
X146952247Y-109342994D01*
X147028518Y-109311402D01*
X147097161Y-109265536D01*
X147155536Y-109207161D01*
X147174030Y-109179482D01*
X160378100Y-109179482D01*
X160378100Y-109262038D01*
X160394206Y-109343007D01*
X160425798Y-109419278D01*
X160471664Y-109487921D01*
X160530039Y-109546296D01*
X160598682Y-109592162D01*
X160674953Y-109623754D01*
X160755922Y-109639860D01*
X160838478Y-109639860D01*
X160919447Y-109623754D01*
X160995718Y-109592162D01*
X161064361Y-109546296D01*
X161122736Y-109487921D01*
X161168602Y-109419278D01*
X161200194Y-109343007D01*
X161216300Y-109262038D01*
X161216300Y-109179482D01*
X161200194Y-109098513D01*
X161168602Y-109022242D01*
X161122736Y-108953599D01*
X161064361Y-108895224D01*
X160995718Y-108849358D01*
X160919447Y-108817766D01*
X160838478Y-108801660D01*
X160755922Y-108801660D01*
X160674953Y-108817766D01*
X160598682Y-108849358D01*
X160530039Y-108895224D01*
X160471664Y-108953599D01*
X160425798Y-109022242D01*
X160394206Y-109098513D01*
X160378100Y-109179482D01*
X147174030Y-109179482D01*
X147201402Y-109138518D01*
X147232994Y-109062247D01*
X147249100Y-108981278D01*
X147249100Y-108898722D01*
X147232994Y-108817753D01*
X147201402Y-108741482D01*
X147155536Y-108672839D01*
X147097161Y-108614464D01*
X147028518Y-108568598D01*
X146952247Y-108537006D01*
X146871278Y-108520900D01*
X146788722Y-108520900D01*
X146707753Y-108537006D01*
X146631482Y-108568598D01*
X146562839Y-108614464D01*
X146504464Y-108672839D01*
X146458598Y-108741482D01*
X146427006Y-108817753D01*
X146410900Y-108898722D01*
X107265500Y-108898722D01*
X107265500Y-108168995D01*
X164288620Y-108168995D01*
X164288620Y-108255765D01*
X164305549Y-108340869D01*
X164338754Y-108421035D01*
X164386962Y-108493182D01*
X164448318Y-108554538D01*
X164520465Y-108602746D01*
X164600631Y-108635951D01*
X164685735Y-108652880D01*
X164772505Y-108652880D01*
X164857609Y-108635951D01*
X164937775Y-108602746D01*
X165009922Y-108554538D01*
X165071278Y-108493182D01*
X165119486Y-108421035D01*
X165152691Y-108340869D01*
X165169620Y-108255765D01*
X165169620Y-108168995D01*
X165152691Y-108083891D01*
X165119486Y-108003725D01*
X165071278Y-107931578D01*
X165009922Y-107870222D01*
X164937775Y-107822014D01*
X164857609Y-107788809D01*
X164772505Y-107771880D01*
X164685735Y-107771880D01*
X164600631Y-107788809D01*
X164520465Y-107822014D01*
X164448318Y-107870222D01*
X164386962Y-107931578D01*
X164338754Y-108003725D01*
X164305549Y-108083891D01*
X164288620Y-108168995D01*
X107265500Y-108168995D01*
X107265500Y-102817215D01*
X154174340Y-102817215D01*
X154174340Y-102903985D01*
X154191269Y-102989089D01*
X154224474Y-103069255D01*
X154272682Y-103141402D01*
X154334038Y-103202758D01*
X154406185Y-103250966D01*
X154486351Y-103284171D01*
X154571455Y-103301100D01*
X154658225Y-103301100D01*
X154743329Y-103284171D01*
X154823495Y-103250966D01*
X154895642Y-103202758D01*
X154956998Y-103141402D01*
X155005206Y-103069255D01*
X155038411Y-102989089D01*
X155055340Y-102903985D01*
X155055340Y-102817215D01*
X155038411Y-102732111D01*
X155005206Y-102651945D01*
X154956998Y-102579798D01*
X154895642Y-102518442D01*
X154823495Y-102470234D01*
X154743329Y-102437029D01*
X154658225Y-102420100D01*
X154571455Y-102420100D01*
X154486351Y-102437029D01*
X154406185Y-102470234D01*
X154334038Y-102518442D01*
X154272682Y-102579798D01*
X154224474Y-102651945D01*
X154191269Y-102732111D01*
X154174340Y-102817215D01*
X107265500Y-102817215D01*
X107265500Y-100138117D01*
X117020106Y-100138117D01*
X117359176Y-100373684D01*
X117862728Y-100538962D01*
X118388848Y-100602827D01*
X118917318Y-100562823D01*
X119427830Y-100420488D01*
X119540824Y-100373684D01*
X119879894Y-100138117D01*
X141170106Y-100138117D01*
X141509176Y-100373684D01*
X142012728Y-100538962D01*
X142538848Y-100602827D01*
X143067318Y-100562823D01*
X143577830Y-100420488D01*
X143690824Y-100373684D01*
X144029894Y-100138117D01*
X143900499Y-100008722D01*
X169330900Y-100008722D01*
X169330900Y-100091278D01*
X169347006Y-100172247D01*
X169378598Y-100248518D01*
X169424464Y-100317161D01*
X169482839Y-100375536D01*
X169551482Y-100421402D01*
X169627753Y-100452994D01*
X169708722Y-100469100D01*
X169791278Y-100469100D01*
X169872247Y-100452994D01*
X169948518Y-100421402D01*
X170017161Y-100375536D01*
X170075536Y-100317161D01*
X170121402Y-100248518D01*
X170152994Y-100172247D01*
X170169100Y-100091278D01*
X170169100Y-100008722D01*
X170152994Y-99927753D01*
X170121402Y-99851482D01*
X170075536Y-99782839D01*
X170017161Y-99724464D01*
X169948518Y-99678598D01*
X169872247Y-99647006D01*
X169791278Y-99630900D01*
X169708722Y-99630900D01*
X169627753Y-99647006D01*
X169551482Y-99678598D01*
X169482839Y-99724464D01*
X169424464Y-99782839D01*
X169378598Y-99851482D01*
X169347006Y-99927753D01*
X169330900Y-100008722D01*
X143900499Y-100008722D01*
X142600000Y-98708223D01*
X141170106Y-100138117D01*
X119879894Y-100138117D01*
X118450000Y-98708223D01*
X117020106Y-100138117D01*
X107265500Y-100138117D01*
X107265500Y-97838848D01*
X115747173Y-97838848D01*
X115787177Y-98367318D01*
X115929512Y-98877830D01*
X115976316Y-98990824D01*
X116211883Y-99329894D01*
X117641777Y-97900000D01*
X119258223Y-97900000D01*
X120688117Y-99329894D01*
X120923684Y-98990824D01*
X121088962Y-98487272D01*
X121152827Y-97961152D01*
X121143569Y-97838848D01*
X139897173Y-97838848D01*
X139937177Y-98367318D01*
X140079512Y-98877830D01*
X140126316Y-98990824D01*
X140361883Y-99329894D01*
X141791777Y-97900000D01*
X143408223Y-97900000D01*
X144838117Y-99329894D01*
X145073684Y-98990824D01*
X145238962Y-98487272D01*
X145302827Y-97961152D01*
X145262823Y-97432682D01*
X145129492Y-96954462D01*
X152745400Y-96954462D01*
X152745400Y-97037018D01*
X152761506Y-97117987D01*
X152793098Y-97194258D01*
X152838964Y-97262901D01*
X152897339Y-97321276D01*
X152965982Y-97367142D01*
X153042253Y-97398734D01*
X153123222Y-97414840D01*
X153205778Y-97414840D01*
X153286747Y-97398734D01*
X153363018Y-97367142D01*
X153431661Y-97321276D01*
X153490036Y-97262901D01*
X153535902Y-97194258D01*
X153567494Y-97117987D01*
X153583600Y-97037018D01*
X153583600Y-96954462D01*
X153567494Y-96873493D01*
X153535902Y-96797222D01*
X153490036Y-96728579D01*
X153431661Y-96670204D01*
X153363018Y-96624338D01*
X153286747Y-96592746D01*
X153205778Y-96576640D01*
X153123222Y-96576640D01*
X153042253Y-96592746D01*
X152965982Y-96624338D01*
X152897339Y-96670204D01*
X152838964Y-96728579D01*
X152793098Y-96797222D01*
X152761506Y-96873493D01*
X152745400Y-96954462D01*
X145129492Y-96954462D01*
X145120488Y-96922170D01*
X145073684Y-96809176D01*
X144838117Y-96470106D01*
X143408223Y-97900000D01*
X141791777Y-97900000D01*
X140361883Y-96470106D01*
X140126316Y-96809176D01*
X139961038Y-97312728D01*
X139897173Y-97838848D01*
X121143569Y-97838848D01*
X121112823Y-97432682D01*
X120970488Y-96922170D01*
X120923684Y-96809176D01*
X120688117Y-96470106D01*
X119258223Y-97900000D01*
X117641777Y-97900000D01*
X116211883Y-96470106D01*
X115976316Y-96809176D01*
X115811038Y-97312728D01*
X115747173Y-97838848D01*
X107265500Y-97838848D01*
X107265500Y-95661883D01*
X117020106Y-95661883D01*
X118450000Y-97091777D01*
X119879894Y-95661883D01*
X141170106Y-95661883D01*
X142600000Y-97091777D01*
X144029894Y-95661883D01*
X143690824Y-95426316D01*
X143187272Y-95261038D01*
X142661152Y-95197173D01*
X142132682Y-95237177D01*
X141622170Y-95379512D01*
X141509176Y-95426316D01*
X141170106Y-95661883D01*
X119879894Y-95661883D01*
X119540824Y-95426316D01*
X119037272Y-95261038D01*
X118511152Y-95197173D01*
X117982682Y-95237177D01*
X117472170Y-95379512D01*
X117359176Y-95426316D01*
X117020106Y-95661883D01*
X107265500Y-95661883D01*
X107265500Y-94265500D01*
X147770943Y-94265500D01*
X147753884Y-94282559D01*
G37*
%TD.AperFunction*%
M02*
