%FSLAX45Y45*%
G04 Gerber Fmt 4.5, Leading zero omitted, Abs format (unit mm)*
G04 Created by KiCad (PCBNEW 5.1.9-73d0e3b20d~88~ubuntu20.04.1) date 2021-03-21 00:06:09*
%MOMM*%
%LPD*%
G01*
G04 APERTURE LIST*
%TA.AperFunction,Profile*%
%ADD10C,0.150000*%
%TD*%
%ADD11C,0.200000*%
%ADD12C,0.300000*%
G04 APERTURE END LIST*
D10*
X10700000Y-12600000D02*
X10700000Y-9400000D01*
X17200000Y-12600000D02*
X10700000Y-12600000D01*
X17200000Y-9400000D02*
X17200000Y-12600000D01*
X10700000Y-9400000D02*
X17200000Y-9400000D01*
D11*
X14795242Y-9442272D02*
X14820642Y-9467672D01*
X14820642Y-9442272D02*
X14795242Y-9467672D01*
X14897350Y-9442272D02*
X14922750Y-9467672D01*
X14922750Y-9442272D02*
X14897350Y-9467672D01*
X15004284Y-9442272D02*
X15029684Y-9467672D01*
X15029684Y-9442272D02*
X15004284Y-9467672D01*
X15303750Y-9686874D02*
X15329150Y-9712274D01*
X15329150Y-9686874D02*
X15303750Y-9712274D01*
X15569434Y-12526340D02*
X15594834Y-12551740D01*
X15594834Y-12526340D02*
X15569434Y-12551740D01*
X15576038Y-12287580D02*
X15601438Y-12312980D01*
X15601438Y-12287580D02*
X15576038Y-12312980D01*
X15634839Y-12527991D02*
X15660239Y-12553391D01*
X15660239Y-12527991D02*
X15634839Y-12553391D01*
X15637125Y-12285548D02*
X15662525Y-12310948D01*
X15662525Y-12285548D02*
X15637125Y-12310948D01*
X15698212Y-12286564D02*
X15723612Y-12311964D01*
X15723612Y-12286564D02*
X15698212Y-12311964D01*
X15700244Y-12529642D02*
X15725644Y-12555042D01*
X15725644Y-12529642D02*
X15700244Y-12555042D01*
X16067020Y-10909376D02*
X16092420Y-10934776D01*
X16092420Y-10909376D02*
X16067020Y-10934776D01*
X16820892Y-9479102D02*
X16846292Y-9504502D01*
X16846292Y-9479102D02*
X16820892Y-9504502D01*
X16962300Y-9507300D02*
X16987700Y-9532700D01*
X16987700Y-9507300D02*
X16962300Y-9532700D01*
X16962300Y-9992300D02*
X16987700Y-10017700D01*
X16987700Y-9992300D02*
X16962300Y-10017700D01*
X14792208Y-12299264D02*
G75*
G03*
X14792208Y-12299264I-15000J0D01*
G01*
X14892328Y-12299375D02*
G75*
G03*
X14892328Y-12299375I-15000J0D01*
G01*
X14899650Y-10606862D02*
G75*
G03*
X14899650Y-10606862I-15000J0D01*
G01*
X14924796Y-12539802D02*
G75*
G03*
X14924796Y-12539802I-15000J0D01*
G01*
X15057384Y-12298756D02*
G75*
G03*
X15057384Y-12298756I-15000J0D01*
G01*
X15145268Y-12299264D02*
G75*
G03*
X15145268Y-12299264I-15000J0D01*
G01*
X15233152Y-12300788D02*
G75*
G03*
X15233152Y-12300788I-15000J0D01*
G01*
X15321036Y-12300026D02*
G75*
G03*
X15321036Y-12300026I-15000J0D01*
G01*
X15464292Y-9698558D02*
G75*
G03*
X15464292Y-9698558I-15000J0D01*
G01*
X15476484Y-10286060D02*
G75*
G03*
X15476484Y-10286060I-15000J0D01*
G01*
X15570464Y-10388422D02*
G75*
G03*
X15570464Y-10388422I-15000J0D01*
G01*
X15570718Y-10501452D02*
G75*
G03*
X15570718Y-10501452I-15000J0D01*
G01*
X15571226Y-11079048D02*
G75*
G03*
X15571226Y-11079048I-15000J0D01*
G01*
X15571226Y-11201561D02*
G75*
G03*
X15571226Y-11201561I-15000J0D01*
G01*
X15571226Y-11324073D02*
G75*
G03*
X15571226Y-11324073I-15000J0D01*
G01*
X15571226Y-11446586D02*
G75*
G03*
X15571226Y-11446586I-15000J0D01*
G01*
X15573512Y-9699574D02*
G75*
G03*
X15573512Y-9699574I-15000J0D01*
G01*
X15594086Y-10789488D02*
G75*
G03*
X15594086Y-10789488I-15000J0D01*
G01*
X15682732Y-9700082D02*
G75*
G03*
X15682732Y-9700082I-15000J0D01*
G01*
X15733786Y-10789234D02*
G75*
G03*
X15733786Y-10789234I-15000J0D01*
G01*
X15791952Y-9699828D02*
G75*
G03*
X15791952Y-9699828I-15000J0D01*
G01*
X16101578Y-11071682D02*
G75*
G03*
X16101578Y-11071682I-15000J0D01*
G01*
X16101578Y-11124641D02*
G75*
G03*
X16101578Y-11124641I-15000J0D01*
G01*
X16101578Y-11177600D02*
G75*
G03*
X16101578Y-11177600I-15000J0D01*
G01*
X16331956Y-11022152D02*
G75*
G03*
X16331956Y-11022152I-15000J0D01*
G01*
X16400790Y-10971860D02*
G75*
G03*
X16400790Y-10971860I-15000J0D01*
G01*
X16487912Y-10821238D02*
G75*
G03*
X16487912Y-10821238I-15000J0D01*
G01*
X16932920Y-9465640D02*
G75*
G03*
X16932920Y-9465640I-15000J0D01*
G01*
X17053062Y-9661728D02*
G75*
G03*
X17053062Y-9661728I-15000J0D01*
G01*
X11845000Y-9640000D02*
X11845000Y-9940000D01*
X11695000Y-9790000D02*
X11995000Y-9790000D01*
X11845000Y-12060000D02*
X11845000Y-12360000D01*
X11695000Y-12210000D02*
X11995000Y-12210000D01*
X14260000Y-9640000D02*
X14260000Y-9940000D01*
X14110000Y-9790000D02*
X14410000Y-9790000D01*
X14260000Y-12060000D02*
X14260000Y-12360000D01*
X14110000Y-12210000D02*
X14410000Y-12210000D01*
D12*
X10978928Y-13073214D02*
X10978928Y-12773214D01*
X11050357Y-12773214D01*
X11093214Y-12787500D01*
X11121786Y-12816071D01*
X11136071Y-12844643D01*
X11150357Y-12901786D01*
X11150357Y-12944643D01*
X11136071Y-13001786D01*
X11121786Y-13030357D01*
X11093214Y-13058929D01*
X11050357Y-13073214D01*
X10978928Y-13073214D01*
X11278928Y-13073214D02*
X11278928Y-12873214D01*
X11278928Y-12930357D02*
X11293214Y-12901786D01*
X11307500Y-12887500D01*
X11336071Y-12873214D01*
X11364643Y-12873214D01*
X11464643Y-13073214D02*
X11464643Y-12873214D01*
X11464643Y-12773214D02*
X11450357Y-12787500D01*
X11464643Y-12801786D01*
X11478928Y-12787500D01*
X11464643Y-12773214D01*
X11464643Y-12801786D01*
X11650357Y-13073214D02*
X11621786Y-13058929D01*
X11607500Y-13030357D01*
X11607500Y-12773214D01*
X11807500Y-13073214D02*
X11778928Y-13058929D01*
X11764643Y-13030357D01*
X11764643Y-12773214D01*
X12150357Y-13073214D02*
X12150357Y-12773214D01*
X12250357Y-12987500D01*
X12350357Y-12773214D01*
X12350357Y-13073214D01*
X12621786Y-13073214D02*
X12621786Y-12916071D01*
X12607500Y-12887500D01*
X12578928Y-12873214D01*
X12521786Y-12873214D01*
X12493214Y-12887500D01*
X12621786Y-13058929D02*
X12593214Y-13073214D01*
X12521786Y-13073214D01*
X12493214Y-13058929D01*
X12478928Y-13030357D01*
X12478928Y-13001786D01*
X12493214Y-12973214D01*
X12521786Y-12958929D01*
X12593214Y-12958929D01*
X12621786Y-12944643D01*
X12764643Y-12873214D02*
X12764643Y-13173214D01*
X12764643Y-12887500D02*
X12793214Y-12873214D01*
X12850357Y-12873214D01*
X12878928Y-12887500D01*
X12893214Y-12901786D01*
X12907500Y-12930357D01*
X12907500Y-13016071D01*
X12893214Y-13044643D01*
X12878928Y-13058929D01*
X12850357Y-13073214D01*
X12793214Y-13073214D01*
X12764643Y-13058929D01*
X13036071Y-13044643D02*
X13050357Y-13058929D01*
X13036071Y-13073214D01*
X13021786Y-13058929D01*
X13036071Y-13044643D01*
X13036071Y-13073214D01*
X13036071Y-12887500D02*
X13050357Y-12901786D01*
X13036071Y-12916071D01*
X13021786Y-12901786D01*
X13036071Y-12887500D01*
X13036071Y-12916071D01*
X10667100Y-13554800D02*
X10692500Y-13580200D01*
X10692500Y-13554800D02*
X10667100Y-13580200D01*
X11036071Y-13403214D02*
X11064643Y-13403214D01*
X11093214Y-13417500D01*
X11107500Y-13431786D01*
X11121786Y-13460357D01*
X11136071Y-13517500D01*
X11136071Y-13588929D01*
X11121786Y-13646071D01*
X11107500Y-13674643D01*
X11093214Y-13688929D01*
X11064643Y-13703214D01*
X11036071Y-13703214D01*
X11007500Y-13688929D01*
X10993214Y-13674643D01*
X10978928Y-13646071D01*
X10964643Y-13588929D01*
X10964643Y-13517500D01*
X10978928Y-13460357D01*
X10993214Y-13431786D01*
X11007500Y-13417500D01*
X11036071Y-13403214D01*
X11264643Y-13674643D02*
X11278928Y-13688929D01*
X11264643Y-13703214D01*
X11250357Y-13688929D01*
X11264643Y-13674643D01*
X11264643Y-13703214D01*
X11393214Y-13431786D02*
X11407500Y-13417500D01*
X11436071Y-13403214D01*
X11507500Y-13403214D01*
X11536071Y-13417500D01*
X11550357Y-13431786D01*
X11564643Y-13460357D01*
X11564643Y-13488929D01*
X11550357Y-13531786D01*
X11378928Y-13703214D01*
X11564643Y-13703214D01*
X11836071Y-13403214D02*
X11693214Y-13403214D01*
X11678928Y-13546071D01*
X11693214Y-13531786D01*
X11721786Y-13517500D01*
X11793214Y-13517500D01*
X11821786Y-13531786D01*
X11836071Y-13546071D01*
X11850357Y-13574643D01*
X11850357Y-13646071D01*
X11836071Y-13674643D01*
X11821786Y-13688929D01*
X11793214Y-13703214D01*
X11721786Y-13703214D01*
X11693214Y-13688929D01*
X11678928Y-13674643D01*
X11978928Y-13703214D02*
X11978928Y-13503214D01*
X11978928Y-13531786D02*
X11993214Y-13517500D01*
X12021786Y-13503214D01*
X12064643Y-13503214D01*
X12093214Y-13517500D01*
X12107500Y-13546071D01*
X12107500Y-13703214D01*
X12107500Y-13546071D02*
X12121786Y-13517500D01*
X12150357Y-13503214D01*
X12193214Y-13503214D01*
X12221786Y-13517500D01*
X12236071Y-13546071D01*
X12236071Y-13703214D01*
X12378928Y-13703214D02*
X12378928Y-13503214D01*
X12378928Y-13531786D02*
X12393214Y-13517500D01*
X12421786Y-13503214D01*
X12464643Y-13503214D01*
X12493214Y-13517500D01*
X12507500Y-13546071D01*
X12507500Y-13703214D01*
X12507500Y-13546071D02*
X12521786Y-13517500D01*
X12550357Y-13503214D01*
X12593214Y-13503214D01*
X12621786Y-13517500D01*
X12636071Y-13546071D01*
X12636071Y-13703214D01*
X13221786Y-13388929D02*
X12964643Y-13774643D01*
X13607500Y-13403214D02*
X13636071Y-13403214D01*
X13664643Y-13417500D01*
X13678928Y-13431786D01*
X13693214Y-13460357D01*
X13707500Y-13517500D01*
X13707500Y-13588929D01*
X13693214Y-13646071D01*
X13678928Y-13674643D01*
X13664643Y-13688929D01*
X13636071Y-13703214D01*
X13607500Y-13703214D01*
X13578928Y-13688929D01*
X13564643Y-13674643D01*
X13550357Y-13646071D01*
X13536071Y-13588929D01*
X13536071Y-13517500D01*
X13550357Y-13460357D01*
X13564643Y-13431786D01*
X13578928Y-13417500D01*
X13607500Y-13403214D01*
X13836071Y-13674643D02*
X13850357Y-13688929D01*
X13836071Y-13703214D01*
X13821786Y-13688929D01*
X13836071Y-13674643D01*
X13836071Y-13703214D01*
X14036071Y-13403214D02*
X14064643Y-13403214D01*
X14093214Y-13417500D01*
X14107500Y-13431786D01*
X14121786Y-13460357D01*
X14136071Y-13517500D01*
X14136071Y-13588929D01*
X14121786Y-13646071D01*
X14107500Y-13674643D01*
X14093214Y-13688929D01*
X14064643Y-13703214D01*
X14036071Y-13703214D01*
X14007500Y-13688929D01*
X13993214Y-13674643D01*
X13978928Y-13646071D01*
X13964643Y-13588929D01*
X13964643Y-13517500D01*
X13978928Y-13460357D01*
X13993214Y-13431786D01*
X14007500Y-13417500D01*
X14036071Y-13403214D01*
X14421786Y-13703214D02*
X14250357Y-13703214D01*
X14336071Y-13703214D02*
X14336071Y-13403214D01*
X14307500Y-13446071D01*
X14278928Y-13474643D01*
X14250357Y-13488929D01*
X14607500Y-13403214D02*
X14636071Y-13403214D01*
X14664643Y-13417500D01*
X14678928Y-13431786D01*
X14693214Y-13460357D01*
X14707500Y-13517500D01*
X14707500Y-13588929D01*
X14693214Y-13646071D01*
X14678928Y-13674643D01*
X14664643Y-13688929D01*
X14636071Y-13703214D01*
X14607500Y-13703214D01*
X14578928Y-13688929D01*
X14564643Y-13674643D01*
X14550357Y-13646071D01*
X14536071Y-13588929D01*
X14536071Y-13517500D01*
X14550357Y-13460357D01*
X14564643Y-13431786D01*
X14578928Y-13417500D01*
X14607500Y-13403214D01*
X14821786Y-13403214D02*
X14821786Y-13460357D01*
X14936071Y-13403214D02*
X14936071Y-13460357D01*
X15378928Y-13817500D02*
X15364643Y-13803214D01*
X15336071Y-13760357D01*
X15321786Y-13731786D01*
X15307500Y-13688929D01*
X15293214Y-13617500D01*
X15293214Y-13560357D01*
X15307500Y-13488929D01*
X15321786Y-13446071D01*
X15336071Y-13417500D01*
X15364643Y-13374643D01*
X15378928Y-13360357D01*
X15650357Y-13703214D02*
X15478928Y-13703214D01*
X15564643Y-13703214D02*
X15564643Y-13403214D01*
X15536071Y-13446071D01*
X15507500Y-13474643D01*
X15478928Y-13488929D01*
X15907500Y-13503214D02*
X15907500Y-13703214D01*
X15836071Y-13388929D02*
X15764643Y-13603214D01*
X15950357Y-13603214D01*
X16293214Y-13703214D02*
X16293214Y-13403214D01*
X16421786Y-13703214D02*
X16421786Y-13546071D01*
X16407500Y-13517500D01*
X16378928Y-13503214D01*
X16336071Y-13503214D01*
X16307500Y-13517500D01*
X16293214Y-13531786D01*
X16607500Y-13703214D02*
X16578928Y-13688929D01*
X16564643Y-13674643D01*
X16550357Y-13646071D01*
X16550357Y-13560357D01*
X16564643Y-13531786D01*
X16578928Y-13517500D01*
X16607500Y-13503214D01*
X16650357Y-13503214D01*
X16678928Y-13517500D01*
X16693214Y-13531786D01*
X16707500Y-13560357D01*
X16707500Y-13646071D01*
X16693214Y-13674643D01*
X16678928Y-13688929D01*
X16650357Y-13703214D01*
X16607500Y-13703214D01*
X16878928Y-13703214D02*
X16850357Y-13688929D01*
X16836071Y-13660357D01*
X16836071Y-13403214D01*
X17107500Y-13688929D02*
X17078928Y-13703214D01*
X17021786Y-13703214D01*
X16993214Y-13688929D01*
X16978928Y-13660357D01*
X16978928Y-13546071D01*
X16993214Y-13517500D01*
X17021786Y-13503214D01*
X17078928Y-13503214D01*
X17107500Y-13517500D01*
X17121786Y-13546071D01*
X17121786Y-13574643D01*
X16978928Y-13603214D01*
X17236071Y-13688929D02*
X17264643Y-13703214D01*
X17321786Y-13703214D01*
X17350357Y-13688929D01*
X17364643Y-13660357D01*
X17364643Y-13646071D01*
X17350357Y-13617500D01*
X17321786Y-13603214D01*
X17278928Y-13603214D01*
X17250357Y-13588929D01*
X17236071Y-13560357D01*
X17236071Y-13546071D01*
X17250357Y-13517500D01*
X17278928Y-13503214D01*
X17321786Y-13503214D01*
X17350357Y-13517500D01*
X17464643Y-13817500D02*
X17478928Y-13803214D01*
X17507500Y-13760357D01*
X17521786Y-13731786D01*
X17536071Y-13688929D01*
X17550357Y-13617500D01*
X17550357Y-13560357D01*
X17536071Y-13488929D01*
X17521786Y-13446071D01*
X17507500Y-13417500D01*
X17478928Y-13374643D01*
X17464643Y-13360357D01*
X10692500Y-13963500D02*
G75*
G03*
X10692500Y-13963500I-15000J0D01*
G01*
X11036071Y-13799214D02*
X11064643Y-13799214D01*
X11093214Y-13813500D01*
X11107500Y-13827786D01*
X11121786Y-13856357D01*
X11136071Y-13913500D01*
X11136071Y-13984929D01*
X11121786Y-14042071D01*
X11107500Y-14070643D01*
X11093214Y-14084929D01*
X11064643Y-14099214D01*
X11036071Y-14099214D01*
X11007500Y-14084929D01*
X10993214Y-14070643D01*
X10978928Y-14042071D01*
X10964643Y-13984929D01*
X10964643Y-13913500D01*
X10978928Y-13856357D01*
X10993214Y-13827786D01*
X11007500Y-13813500D01*
X11036071Y-13799214D01*
X11264643Y-14070643D02*
X11278928Y-14084929D01*
X11264643Y-14099214D01*
X11250357Y-14084929D01*
X11264643Y-14070643D01*
X11264643Y-14099214D01*
X11378928Y-13799214D02*
X11564643Y-13799214D01*
X11464643Y-13913500D01*
X11507500Y-13913500D01*
X11536071Y-13927786D01*
X11550357Y-13942071D01*
X11564643Y-13970643D01*
X11564643Y-14042071D01*
X11550357Y-14070643D01*
X11536071Y-14084929D01*
X11507500Y-14099214D01*
X11421786Y-14099214D01*
X11393214Y-14084929D01*
X11378928Y-14070643D01*
X11750357Y-13799214D02*
X11778928Y-13799214D01*
X11807500Y-13813500D01*
X11821786Y-13827786D01*
X11836071Y-13856357D01*
X11850357Y-13913500D01*
X11850357Y-13984929D01*
X11836071Y-14042071D01*
X11821786Y-14070643D01*
X11807500Y-14084929D01*
X11778928Y-14099214D01*
X11750357Y-14099214D01*
X11721786Y-14084929D01*
X11707500Y-14070643D01*
X11693214Y-14042071D01*
X11678928Y-13984929D01*
X11678928Y-13913500D01*
X11693214Y-13856357D01*
X11707500Y-13827786D01*
X11721786Y-13813500D01*
X11750357Y-13799214D01*
X11978928Y-14099214D02*
X11978928Y-13899214D01*
X11978928Y-13927786D02*
X11993214Y-13913500D01*
X12021786Y-13899214D01*
X12064643Y-13899214D01*
X12093214Y-13913500D01*
X12107500Y-13942071D01*
X12107500Y-14099214D01*
X12107500Y-13942071D02*
X12121786Y-13913500D01*
X12150357Y-13899214D01*
X12193214Y-13899214D01*
X12221786Y-13913500D01*
X12236071Y-13942071D01*
X12236071Y-14099214D01*
X12378928Y-14099214D02*
X12378928Y-13899214D01*
X12378928Y-13927786D02*
X12393214Y-13913500D01*
X12421786Y-13899214D01*
X12464643Y-13899214D01*
X12493214Y-13913500D01*
X12507500Y-13942071D01*
X12507500Y-14099214D01*
X12507500Y-13942071D02*
X12521786Y-13913500D01*
X12550357Y-13899214D01*
X12593214Y-13899214D01*
X12621786Y-13913500D01*
X12636071Y-13942071D01*
X12636071Y-14099214D01*
X13221786Y-13784929D02*
X12964643Y-14170643D01*
X13607500Y-13799214D02*
X13636071Y-13799214D01*
X13664643Y-13813500D01*
X13678928Y-13827786D01*
X13693214Y-13856357D01*
X13707500Y-13913500D01*
X13707500Y-13984929D01*
X13693214Y-14042071D01*
X13678928Y-14070643D01*
X13664643Y-14084929D01*
X13636071Y-14099214D01*
X13607500Y-14099214D01*
X13578928Y-14084929D01*
X13564643Y-14070643D01*
X13550357Y-14042071D01*
X13536071Y-13984929D01*
X13536071Y-13913500D01*
X13550357Y-13856357D01*
X13564643Y-13827786D01*
X13578928Y-13813500D01*
X13607500Y-13799214D01*
X13836071Y-14070643D02*
X13850357Y-14084929D01*
X13836071Y-14099214D01*
X13821786Y-14084929D01*
X13836071Y-14070643D01*
X13836071Y-14099214D01*
X14036071Y-13799214D02*
X14064643Y-13799214D01*
X14093214Y-13813500D01*
X14107500Y-13827786D01*
X14121786Y-13856357D01*
X14136071Y-13913500D01*
X14136071Y-13984929D01*
X14121786Y-14042071D01*
X14107500Y-14070643D01*
X14093214Y-14084929D01*
X14064643Y-14099214D01*
X14036071Y-14099214D01*
X14007500Y-14084929D01*
X13993214Y-14070643D01*
X13978928Y-14042071D01*
X13964643Y-13984929D01*
X13964643Y-13913500D01*
X13978928Y-13856357D01*
X13993214Y-13827786D01*
X14007500Y-13813500D01*
X14036071Y-13799214D01*
X14421786Y-14099214D02*
X14250357Y-14099214D01*
X14336071Y-14099214D02*
X14336071Y-13799214D01*
X14307500Y-13842071D01*
X14278928Y-13870643D01*
X14250357Y-13884929D01*
X14536071Y-13827786D02*
X14550357Y-13813500D01*
X14578928Y-13799214D01*
X14650357Y-13799214D01*
X14678928Y-13813500D01*
X14693214Y-13827786D01*
X14707500Y-13856357D01*
X14707500Y-13884929D01*
X14693214Y-13927786D01*
X14521786Y-14099214D01*
X14707500Y-14099214D01*
X14821786Y-13799214D02*
X14821786Y-13856357D01*
X14936071Y-13799214D02*
X14936071Y-13856357D01*
X15378928Y-14213500D02*
X15364643Y-14199214D01*
X15336071Y-14156357D01*
X15321786Y-14127786D01*
X15307500Y-14084929D01*
X15293214Y-14013500D01*
X15293214Y-13956357D01*
X15307500Y-13884929D01*
X15321786Y-13842071D01*
X15336071Y-13813500D01*
X15364643Y-13770643D01*
X15378928Y-13756357D01*
X15478928Y-13827786D02*
X15493214Y-13813500D01*
X15521786Y-13799214D01*
X15593214Y-13799214D01*
X15621786Y-13813500D01*
X15636071Y-13827786D01*
X15650357Y-13856357D01*
X15650357Y-13884929D01*
X15636071Y-13927786D01*
X15464643Y-14099214D01*
X15650357Y-14099214D01*
X15793214Y-14099214D02*
X15850357Y-14099214D01*
X15878928Y-14084929D01*
X15893214Y-14070643D01*
X15921786Y-14027786D01*
X15936071Y-13970643D01*
X15936071Y-13856357D01*
X15921786Y-13827786D01*
X15907500Y-13813500D01*
X15878928Y-13799214D01*
X15821786Y-13799214D01*
X15793214Y-13813500D01*
X15778928Y-13827786D01*
X15764643Y-13856357D01*
X15764643Y-13927786D01*
X15778928Y-13956357D01*
X15793214Y-13970643D01*
X15821786Y-13984929D01*
X15878928Y-13984929D01*
X15907500Y-13970643D01*
X15921786Y-13956357D01*
X15936071Y-13927786D01*
X16293214Y-14099214D02*
X16293214Y-13799214D01*
X16421786Y-14099214D02*
X16421786Y-13942071D01*
X16407500Y-13913500D01*
X16378928Y-13899214D01*
X16336071Y-13899214D01*
X16307500Y-13913500D01*
X16293214Y-13927786D01*
X16607500Y-14099214D02*
X16578928Y-14084929D01*
X16564643Y-14070643D01*
X16550357Y-14042071D01*
X16550357Y-13956357D01*
X16564643Y-13927786D01*
X16578928Y-13913500D01*
X16607500Y-13899214D01*
X16650357Y-13899214D01*
X16678928Y-13913500D01*
X16693214Y-13927786D01*
X16707500Y-13956357D01*
X16707500Y-14042071D01*
X16693214Y-14070643D01*
X16678928Y-14084929D01*
X16650357Y-14099214D01*
X16607500Y-14099214D01*
X16878928Y-14099214D02*
X16850357Y-14084929D01*
X16836071Y-14056357D01*
X16836071Y-13799214D01*
X17107500Y-14084929D02*
X17078928Y-14099214D01*
X17021786Y-14099214D01*
X16993214Y-14084929D01*
X16978928Y-14056357D01*
X16978928Y-13942071D01*
X16993214Y-13913500D01*
X17021786Y-13899214D01*
X17078928Y-13899214D01*
X17107500Y-13913500D01*
X17121786Y-13942071D01*
X17121786Y-13970643D01*
X16978928Y-13999214D01*
X17236071Y-14084929D02*
X17264643Y-14099214D01*
X17321786Y-14099214D01*
X17350357Y-14084929D01*
X17364643Y-14056357D01*
X17364643Y-14042071D01*
X17350357Y-14013500D01*
X17321786Y-13999214D01*
X17278928Y-13999214D01*
X17250357Y-13984929D01*
X17236071Y-13956357D01*
X17236071Y-13942071D01*
X17250357Y-13913500D01*
X17278928Y-13899214D01*
X17321786Y-13899214D01*
X17350357Y-13913500D01*
X17464643Y-14213500D02*
X17478928Y-14199214D01*
X17507500Y-14156357D01*
X17521786Y-14127786D01*
X17536071Y-14084929D01*
X17550357Y-14013500D01*
X17550357Y-13956357D01*
X17536071Y-13884929D01*
X17521786Y-13842071D01*
X17507500Y-13813500D01*
X17478928Y-13770643D01*
X17464643Y-13756357D01*
X10542500Y-14209500D02*
X10542500Y-14509500D01*
X10392500Y-14359500D02*
X10692500Y-14359500D01*
X10950357Y-14195214D02*
X11136071Y-14195214D01*
X11036071Y-14309500D01*
X11078928Y-14309500D01*
X11107500Y-14323786D01*
X11121786Y-14338071D01*
X11136071Y-14366643D01*
X11136071Y-14438071D01*
X11121786Y-14466643D01*
X11107500Y-14480929D01*
X11078928Y-14495214D01*
X10993214Y-14495214D01*
X10964643Y-14480929D01*
X10950357Y-14466643D01*
X11264643Y-14466643D02*
X11278928Y-14480929D01*
X11264643Y-14495214D01*
X11250357Y-14480929D01*
X11264643Y-14466643D01*
X11264643Y-14495214D01*
X11464643Y-14195214D02*
X11493214Y-14195214D01*
X11521786Y-14209500D01*
X11536071Y-14223786D01*
X11550357Y-14252357D01*
X11564643Y-14309500D01*
X11564643Y-14380929D01*
X11550357Y-14438071D01*
X11536071Y-14466643D01*
X11521786Y-14480929D01*
X11493214Y-14495214D01*
X11464643Y-14495214D01*
X11436071Y-14480929D01*
X11421786Y-14466643D01*
X11407500Y-14438071D01*
X11393214Y-14380929D01*
X11393214Y-14309500D01*
X11407500Y-14252357D01*
X11421786Y-14223786D01*
X11436071Y-14209500D01*
X11464643Y-14195214D01*
X11750357Y-14195214D02*
X11778928Y-14195214D01*
X11807500Y-14209500D01*
X11821786Y-14223786D01*
X11836071Y-14252357D01*
X11850357Y-14309500D01*
X11850357Y-14380929D01*
X11836071Y-14438071D01*
X11821786Y-14466643D01*
X11807500Y-14480929D01*
X11778928Y-14495214D01*
X11750357Y-14495214D01*
X11721786Y-14480929D01*
X11707500Y-14466643D01*
X11693214Y-14438071D01*
X11678928Y-14380929D01*
X11678928Y-14309500D01*
X11693214Y-14252357D01*
X11707500Y-14223786D01*
X11721786Y-14209500D01*
X11750357Y-14195214D01*
X11978928Y-14495214D02*
X11978928Y-14295214D01*
X11978928Y-14323786D02*
X11993214Y-14309500D01*
X12021786Y-14295214D01*
X12064643Y-14295214D01*
X12093214Y-14309500D01*
X12107500Y-14338071D01*
X12107500Y-14495214D01*
X12107500Y-14338071D02*
X12121786Y-14309500D01*
X12150357Y-14295214D01*
X12193214Y-14295214D01*
X12221786Y-14309500D01*
X12236071Y-14338071D01*
X12236071Y-14495214D01*
X12378928Y-14495214D02*
X12378928Y-14295214D01*
X12378928Y-14323786D02*
X12393214Y-14309500D01*
X12421786Y-14295214D01*
X12464643Y-14295214D01*
X12493214Y-14309500D01*
X12507500Y-14338071D01*
X12507500Y-14495214D01*
X12507500Y-14338071D02*
X12521786Y-14309500D01*
X12550357Y-14295214D01*
X12593214Y-14295214D01*
X12621786Y-14309500D01*
X12636071Y-14338071D01*
X12636071Y-14495214D01*
X13221786Y-14180929D02*
X12964643Y-14566643D01*
X13607500Y-14195214D02*
X13636071Y-14195214D01*
X13664643Y-14209500D01*
X13678928Y-14223786D01*
X13693214Y-14252357D01*
X13707500Y-14309500D01*
X13707500Y-14380929D01*
X13693214Y-14438071D01*
X13678928Y-14466643D01*
X13664643Y-14480929D01*
X13636071Y-14495214D01*
X13607500Y-14495214D01*
X13578928Y-14480929D01*
X13564643Y-14466643D01*
X13550357Y-14438071D01*
X13536071Y-14380929D01*
X13536071Y-14309500D01*
X13550357Y-14252357D01*
X13564643Y-14223786D01*
X13578928Y-14209500D01*
X13607500Y-14195214D01*
X13836071Y-14466643D02*
X13850357Y-14480929D01*
X13836071Y-14495214D01*
X13821786Y-14480929D01*
X13836071Y-14466643D01*
X13836071Y-14495214D01*
X14136071Y-14495214D02*
X13964643Y-14495214D01*
X14050357Y-14495214D02*
X14050357Y-14195214D01*
X14021786Y-14238071D01*
X13993214Y-14266643D01*
X13964643Y-14280929D01*
X14421786Y-14495214D02*
X14250357Y-14495214D01*
X14336071Y-14495214D02*
X14336071Y-14195214D01*
X14307500Y-14238071D01*
X14278928Y-14266643D01*
X14250357Y-14280929D01*
X14593214Y-14323786D02*
X14564643Y-14309500D01*
X14550357Y-14295214D01*
X14536071Y-14266643D01*
X14536071Y-14252357D01*
X14550357Y-14223786D01*
X14564643Y-14209500D01*
X14593214Y-14195214D01*
X14650357Y-14195214D01*
X14678928Y-14209500D01*
X14693214Y-14223786D01*
X14707500Y-14252357D01*
X14707500Y-14266643D01*
X14693214Y-14295214D01*
X14678928Y-14309500D01*
X14650357Y-14323786D01*
X14593214Y-14323786D01*
X14564643Y-14338071D01*
X14550357Y-14352357D01*
X14536071Y-14380929D01*
X14536071Y-14438071D01*
X14550357Y-14466643D01*
X14564643Y-14480929D01*
X14593214Y-14495214D01*
X14650357Y-14495214D01*
X14678928Y-14480929D01*
X14693214Y-14466643D01*
X14707500Y-14438071D01*
X14707500Y-14380929D01*
X14693214Y-14352357D01*
X14678928Y-14338071D01*
X14650357Y-14323786D01*
X14821786Y-14195214D02*
X14821786Y-14252357D01*
X14936071Y-14195214D02*
X14936071Y-14252357D01*
X15378928Y-14609500D02*
X15364643Y-14595214D01*
X15336071Y-14552357D01*
X15321786Y-14523786D01*
X15307500Y-14480929D01*
X15293214Y-14409500D01*
X15293214Y-14352357D01*
X15307500Y-14280929D01*
X15321786Y-14238071D01*
X15336071Y-14209500D01*
X15364643Y-14166643D01*
X15378928Y-14152357D01*
X15621786Y-14295214D02*
X15621786Y-14495214D01*
X15550357Y-14180929D02*
X15478928Y-14395214D01*
X15664643Y-14395214D01*
X16007500Y-14495214D02*
X16007500Y-14195214D01*
X16136071Y-14495214D02*
X16136071Y-14338071D01*
X16121786Y-14309500D01*
X16093214Y-14295214D01*
X16050357Y-14295214D01*
X16021786Y-14309500D01*
X16007500Y-14323786D01*
X16321786Y-14495214D02*
X16293214Y-14480929D01*
X16278928Y-14466643D01*
X16264643Y-14438071D01*
X16264643Y-14352357D01*
X16278928Y-14323786D01*
X16293214Y-14309500D01*
X16321786Y-14295214D01*
X16364643Y-14295214D01*
X16393214Y-14309500D01*
X16407500Y-14323786D01*
X16421786Y-14352357D01*
X16421786Y-14438071D01*
X16407500Y-14466643D01*
X16393214Y-14480929D01*
X16364643Y-14495214D01*
X16321786Y-14495214D01*
X16593214Y-14495214D02*
X16564643Y-14480929D01*
X16550357Y-14452357D01*
X16550357Y-14195214D01*
X16821786Y-14480929D02*
X16793214Y-14495214D01*
X16736071Y-14495214D01*
X16707500Y-14480929D01*
X16693214Y-14452357D01*
X16693214Y-14338071D01*
X16707500Y-14309500D01*
X16736071Y-14295214D01*
X16793214Y-14295214D01*
X16821786Y-14309500D01*
X16836071Y-14338071D01*
X16836071Y-14366643D01*
X16693214Y-14395214D01*
X16950357Y-14480929D02*
X16978928Y-14495214D01*
X17036071Y-14495214D01*
X17064643Y-14480929D01*
X17078928Y-14452357D01*
X17078928Y-14438071D01*
X17064643Y-14409500D01*
X17036071Y-14395214D01*
X16993214Y-14395214D01*
X16964643Y-14380929D01*
X16950357Y-14352357D01*
X16950357Y-14338071D01*
X16964643Y-14309500D01*
X16993214Y-14295214D01*
X17036071Y-14295214D01*
X17064643Y-14309500D01*
X17178928Y-14609500D02*
X17193214Y-14595214D01*
X17221786Y-14552357D01*
X17236071Y-14523786D01*
X17250357Y-14480929D01*
X17264643Y-14409500D01*
X17264643Y-14352357D01*
X17250357Y-14280929D01*
X17236071Y-14238071D01*
X17221786Y-14209500D01*
X17193214Y-14166643D01*
X17178928Y-14152357D01*
M02*
