%FSLAX45Y45*%
G04 Gerber Fmt 4.5, Leading zero omitted, Abs format (unit mm)*
G04 Created by KiCad (PCBNEW 5.1.9-73d0e3b20d~88~ubuntu20.04.1) date 2021-03-21 00:06:09*
%MOMM*%
%LPD*%
G01*
G04 APERTURE LIST*
%TA.AperFunction,Profile*%
%ADD10C,0.150000*%
%TD*%
%ADD11C,0.200000*%
%ADD12C,0.300000*%
G04 APERTURE END LIST*
D10*
X10700000Y-12600000D02*
X10700000Y-9400000D01*
X17200000Y-12600000D02*
X10700000Y-12600000D01*
X17200000Y-9400000D02*
X17200000Y-12600000D01*
X10700000Y-9400000D02*
X17200000Y-9400000D01*
D11*
D12*
X10978928Y-13073214D02*
X10978928Y-12773214D01*
X11050357Y-12773214D01*
X11093214Y-12787500D01*
X11121786Y-12816071D01*
X11136071Y-12844643D01*
X11150357Y-12901786D01*
X11150357Y-12944643D01*
X11136071Y-13001786D01*
X11121786Y-13030357D01*
X11093214Y-13058929D01*
X11050357Y-13073214D01*
X10978928Y-13073214D01*
X11278928Y-13073214D02*
X11278928Y-12873214D01*
X11278928Y-12930357D02*
X11293214Y-12901786D01*
X11307500Y-12887500D01*
X11336071Y-12873214D01*
X11364643Y-12873214D01*
X11464643Y-13073214D02*
X11464643Y-12873214D01*
X11464643Y-12773214D02*
X11450357Y-12787500D01*
X11464643Y-12801786D01*
X11478928Y-12787500D01*
X11464643Y-12773214D01*
X11464643Y-12801786D01*
X11650357Y-13073214D02*
X11621786Y-13058929D01*
X11607500Y-13030357D01*
X11607500Y-12773214D01*
X11807500Y-13073214D02*
X11778928Y-13058929D01*
X11764643Y-13030357D01*
X11764643Y-12773214D01*
X12150357Y-13073214D02*
X12150357Y-12773214D01*
X12250357Y-12987500D01*
X12350357Y-12773214D01*
X12350357Y-13073214D01*
X12621786Y-13073214D02*
X12621786Y-12916071D01*
X12607500Y-12887500D01*
X12578928Y-12873214D01*
X12521786Y-12873214D01*
X12493214Y-12887500D01*
X12621786Y-13058929D02*
X12593214Y-13073214D01*
X12521786Y-13073214D01*
X12493214Y-13058929D01*
X12478928Y-13030357D01*
X12478928Y-13001786D01*
X12493214Y-12973214D01*
X12521786Y-12958929D01*
X12593214Y-12958929D01*
X12621786Y-12944643D01*
X12764643Y-12873214D02*
X12764643Y-13173214D01*
X12764643Y-12887500D02*
X12793214Y-12873214D01*
X12850357Y-12873214D01*
X12878928Y-12887500D01*
X12893214Y-12901786D01*
X12907500Y-12930357D01*
X12907500Y-13016071D01*
X12893214Y-13044643D01*
X12878928Y-13058929D01*
X12850357Y-13073214D01*
X12793214Y-13073214D01*
X12764643Y-13058929D01*
X13036071Y-13044643D02*
X13050357Y-13058929D01*
X13036071Y-13073214D01*
X13021786Y-13058929D01*
X13036071Y-13044643D01*
X13036071Y-13073214D01*
X13036071Y-12887500D02*
X13050357Y-12901786D01*
X13036071Y-12916071D01*
X13021786Y-12901786D01*
X13036071Y-12887500D01*
X13036071Y-12916071D01*
M02*
