%TF.GenerationSoftware,KiCad,Pcbnew,5.1.9-73d0e3b20d~88~ubuntu20.04.1*%
%TF.CreationDate,2021-03-21T00:06:11+05:30*%
%TF.ProjectId,kimchi-epaper-lid,6b696d63-6869-42d6-9570-617065722d6c,v0.1*%
%TF.SameCoordinates,Original*%
%TF.FileFunction,Paste,Bot*%
%TF.FilePolarity,Positive*%
%FSLAX46Y46*%
G04 Gerber Fmt 4.6, Leading zero omitted, Abs format (unit mm)*
G04 Created by KiCad (PCBNEW 5.1.9-73d0e3b20d~88~ubuntu20.04.1) date 2021-03-21 00:06:11*
%MOMM*%
%LPD*%
G01*
G04 APERTURE LIST*
%ADD10C,0.100000*%
%ADD11R,0.600000X0.500000*%
G04 APERTURE END LIST*
D10*
G36*
X162441800Y-100570060D02*
G01*
X164641800Y-100570060D01*
X164641800Y-101670060D01*
X165491800Y-101670060D01*
X165491800Y-102970060D01*
X162441800Y-102970060D01*
X162441800Y-100570060D01*
G37*
G36*
X162441800Y-119370060D02*
G01*
X164641800Y-119370060D01*
X164641800Y-118270060D01*
X165491800Y-118270060D01*
X165491800Y-116970060D01*
X162441800Y-116970060D01*
X162441800Y-119370060D01*
G37*
G36*
G01*
X148801002Y-123409987D02*
X148801002Y-124910013D01*
G75*
G02*
X148800000Y-124911015I-1002J0D01*
G01*
X148600000Y-124911015D01*
G75*
G02*
X148598998Y-124910013I0J1002D01*
G01*
X148598998Y-123409987D01*
G75*
G02*
X148600000Y-123408985I1002J0D01*
G01*
X148800000Y-123408985D01*
G75*
G02*
X148801002Y-123409987I0J-1002D01*
G01*
G37*
G36*
G01*
X149201002Y-123409987D02*
X149201002Y-124910013D01*
G75*
G02*
X149200000Y-124911015I-1002J0D01*
G01*
X149000000Y-124911015D01*
G75*
G02*
X148998998Y-124910013I0J1002D01*
G01*
X148998998Y-123409987D01*
G75*
G02*
X149000000Y-123408985I1002J0D01*
G01*
X149200000Y-123408985D01*
G75*
G02*
X149201002Y-123409987I0J-1002D01*
G01*
G37*
G36*
G01*
X149601002Y-123409987D02*
X149601002Y-124910013D01*
G75*
G02*
X149600000Y-124911015I-1002J0D01*
G01*
X149400000Y-124911015D01*
G75*
G02*
X149398998Y-124910013I0J1002D01*
G01*
X149398998Y-123409987D01*
G75*
G02*
X149400000Y-123408985I1002J0D01*
G01*
X149600000Y-123408985D01*
G75*
G02*
X149601002Y-123409987I0J-1002D01*
G01*
G37*
G36*
G01*
X150001002Y-123409987D02*
X150001002Y-124910013D01*
G75*
G02*
X150000000Y-124911015I-1002J0D01*
G01*
X149800000Y-124911015D01*
G75*
G02*
X149798998Y-124910013I0J1002D01*
G01*
X149798998Y-123409987D01*
G75*
G02*
X149800000Y-123408985I1002J0D01*
G01*
X150000000Y-123408985D01*
G75*
G02*
X150001002Y-123409987I0J-1002D01*
G01*
G37*
G36*
G01*
X150401002Y-123409987D02*
X150401002Y-124910013D01*
G75*
G02*
X150400000Y-124911015I-1002J0D01*
G01*
X150200000Y-124911015D01*
G75*
G02*
X150198998Y-124910013I0J1002D01*
G01*
X150198998Y-123409987D01*
G75*
G02*
X150200000Y-123408985I1002J0D01*
G01*
X150400000Y-123408985D01*
G75*
G02*
X150401002Y-123409987I0J-1002D01*
G01*
G37*
G36*
G01*
X146801002Y-121089987D02*
X146801002Y-122590013D01*
G75*
G02*
X146800000Y-122591015I-1002J0D01*
G01*
X146600000Y-122591015D01*
G75*
G02*
X146598998Y-122590013I0J1002D01*
G01*
X146598998Y-121089987D01*
G75*
G02*
X146600000Y-121088985I1002J0D01*
G01*
X146800000Y-121088985D01*
G75*
G02*
X146801002Y-121089987I0J-1002D01*
G01*
G37*
G36*
G01*
X150801002Y-123409987D02*
X150801002Y-124910013D01*
G75*
G02*
X150800000Y-124911015I-1002J0D01*
G01*
X150600000Y-124911015D01*
G75*
G02*
X150598998Y-124910013I0J1002D01*
G01*
X150598998Y-123409987D01*
G75*
G02*
X150600000Y-123408985I1002J0D01*
G01*
X150800000Y-123408985D01*
G75*
G02*
X150801002Y-123409987I0J-1002D01*
G01*
G37*
G36*
G01*
X147201002Y-121089987D02*
X147201002Y-122590013D01*
G75*
G02*
X147200000Y-122591015I-1002J0D01*
G01*
X147000000Y-122591015D01*
G75*
G02*
X146998998Y-122590013I0J1002D01*
G01*
X146998998Y-121089987D01*
G75*
G02*
X147000000Y-121088985I1002J0D01*
G01*
X147200000Y-121088985D01*
G75*
G02*
X147201002Y-121089987I0J-1002D01*
G01*
G37*
G36*
G01*
X151201002Y-123409987D02*
X151201002Y-124910013D01*
G75*
G02*
X151200000Y-124911015I-1002J0D01*
G01*
X151000000Y-124911015D01*
G75*
G02*
X150998998Y-124910013I0J1002D01*
G01*
X150998998Y-123409987D01*
G75*
G02*
X151000000Y-123408985I1002J0D01*
G01*
X151200000Y-123408985D01*
G75*
G02*
X151201002Y-123409987I0J-1002D01*
G01*
G37*
G36*
G01*
X147601002Y-121089987D02*
X147601002Y-122590013D01*
G75*
G02*
X147600000Y-122591015I-1002J0D01*
G01*
X147400000Y-122591015D01*
G75*
G02*
X147398998Y-122590013I0J1002D01*
G01*
X147398998Y-121089987D01*
G75*
G02*
X147400000Y-121088985I1002J0D01*
G01*
X147600000Y-121088985D01*
G75*
G02*
X147601002Y-121089987I0J-1002D01*
G01*
G37*
G36*
G01*
X151601002Y-123409987D02*
X151601002Y-124910013D01*
G75*
G02*
X151600000Y-124911015I-1002J0D01*
G01*
X151400000Y-124911015D01*
G75*
G02*
X151398998Y-124910013I0J1002D01*
G01*
X151398998Y-123409987D01*
G75*
G02*
X151400000Y-123408985I1002J0D01*
G01*
X151600000Y-123408985D01*
G75*
G02*
X151601002Y-123409987I0J-1002D01*
G01*
G37*
G36*
G01*
X148001002Y-121089987D02*
X148001002Y-122590013D01*
G75*
G02*
X148000000Y-122591015I-1002J0D01*
G01*
X147800000Y-122591015D01*
G75*
G02*
X147798998Y-122590013I0J1002D01*
G01*
X147798998Y-121089987D01*
G75*
G02*
X147800000Y-121088985I1002J0D01*
G01*
X148000000Y-121088985D01*
G75*
G02*
X148001002Y-121089987I0J-1002D01*
G01*
G37*
G36*
G01*
X152001002Y-123409987D02*
X152001002Y-124910013D01*
G75*
G02*
X152000000Y-124911015I-1002J0D01*
G01*
X151800000Y-124911015D01*
G75*
G02*
X151798998Y-124910013I0J1002D01*
G01*
X151798998Y-123409987D01*
G75*
G02*
X151800000Y-123408985I1002J0D01*
G01*
X152000000Y-123408985D01*
G75*
G02*
X152001002Y-123409987I0J-1002D01*
G01*
G37*
G36*
G01*
X148401002Y-121089987D02*
X148401002Y-122590013D01*
G75*
G02*
X148400000Y-122591015I-1002J0D01*
G01*
X148200000Y-122591015D01*
G75*
G02*
X148198998Y-122590013I0J1002D01*
G01*
X148198998Y-121089987D01*
G75*
G02*
X148200000Y-121088985I1002J0D01*
G01*
X148400000Y-121088985D01*
G75*
G02*
X148401002Y-121089987I0J-1002D01*
G01*
G37*
G36*
G01*
X152401002Y-123409987D02*
X152401002Y-124910013D01*
G75*
G02*
X152400000Y-124911015I-1002J0D01*
G01*
X152200000Y-124911015D01*
G75*
G02*
X152198998Y-124910013I0J1002D01*
G01*
X152198998Y-123409987D01*
G75*
G02*
X152200000Y-123408985I1002J0D01*
G01*
X152400000Y-123408985D01*
G75*
G02*
X152401002Y-123409987I0J-1002D01*
G01*
G37*
G36*
G01*
X148801002Y-121089987D02*
X148801002Y-122590013D01*
G75*
G02*
X148800000Y-122591015I-1002J0D01*
G01*
X148600000Y-122591015D01*
G75*
G02*
X148598998Y-122590013I0J1002D01*
G01*
X148598998Y-121089987D01*
G75*
G02*
X148600000Y-121088985I1002J0D01*
G01*
X148800000Y-121088985D01*
G75*
G02*
X148801002Y-121089987I0J-1002D01*
G01*
G37*
G36*
G01*
X152801002Y-123409987D02*
X152801002Y-124910013D01*
G75*
G02*
X152800000Y-124911015I-1002J0D01*
G01*
X152600000Y-124911015D01*
G75*
G02*
X152598998Y-124910013I0J1002D01*
G01*
X152598998Y-123409987D01*
G75*
G02*
X152600000Y-123408985I1002J0D01*
G01*
X152800000Y-123408985D01*
G75*
G02*
X152801002Y-123409987I0J-1002D01*
G01*
G37*
G36*
G01*
X149201002Y-121089987D02*
X149201002Y-122590013D01*
G75*
G02*
X149200000Y-122591015I-1002J0D01*
G01*
X149000000Y-122591015D01*
G75*
G02*
X148998998Y-122590013I0J1002D01*
G01*
X148998998Y-121089987D01*
G75*
G02*
X149000000Y-121088985I1002J0D01*
G01*
X149200000Y-121088985D01*
G75*
G02*
X149201002Y-121089987I0J-1002D01*
G01*
G37*
G36*
G01*
X153201002Y-123409987D02*
X153201002Y-124910013D01*
G75*
G02*
X153200000Y-124911015I-1002J0D01*
G01*
X153000000Y-124911015D01*
G75*
G02*
X152998998Y-124910013I0J1002D01*
G01*
X152998998Y-123409987D01*
G75*
G02*
X153000000Y-123408985I1002J0D01*
G01*
X153200000Y-123408985D01*
G75*
G02*
X153201002Y-123409987I0J-1002D01*
G01*
G37*
G36*
G01*
X149601002Y-121089987D02*
X149601002Y-122590013D01*
G75*
G02*
X149600000Y-122591015I-1002J0D01*
G01*
X149400000Y-122591015D01*
G75*
G02*
X149398998Y-122590013I0J1002D01*
G01*
X149398998Y-121089987D01*
G75*
G02*
X149400000Y-121088985I1002J0D01*
G01*
X149600000Y-121088985D01*
G75*
G02*
X149601002Y-121089987I0J-1002D01*
G01*
G37*
G36*
G01*
X153601002Y-123409987D02*
X153601002Y-124910013D01*
G75*
G02*
X153600000Y-124911015I-1002J0D01*
G01*
X153400000Y-124911015D01*
G75*
G02*
X153398998Y-124910013I0J1002D01*
G01*
X153398998Y-123409987D01*
G75*
G02*
X153400000Y-123408985I1002J0D01*
G01*
X153600000Y-123408985D01*
G75*
G02*
X153601002Y-123409987I0J-1002D01*
G01*
G37*
G36*
G01*
X150001002Y-121089987D02*
X150001002Y-122590013D01*
G75*
G02*
X150000000Y-122591015I-1002J0D01*
G01*
X149800000Y-122591015D01*
G75*
G02*
X149798998Y-122590013I0J1002D01*
G01*
X149798998Y-121089987D01*
G75*
G02*
X149800000Y-121088985I1002J0D01*
G01*
X150000000Y-121088985D01*
G75*
G02*
X150001002Y-121089987I0J-1002D01*
G01*
G37*
G36*
G01*
X154001002Y-123409987D02*
X154001002Y-124910013D01*
G75*
G02*
X154000000Y-124911015I-1002J0D01*
G01*
X153800000Y-124911015D01*
G75*
G02*
X153798998Y-124910013I0J1002D01*
G01*
X153798998Y-123409987D01*
G75*
G02*
X153800000Y-123408985I1002J0D01*
G01*
X154000000Y-123408985D01*
G75*
G02*
X154001002Y-123409987I0J-1002D01*
G01*
G37*
G36*
G01*
X150401002Y-121089987D02*
X150401002Y-122590013D01*
G75*
G02*
X150400000Y-122591015I-1002J0D01*
G01*
X150200000Y-122591015D01*
G75*
G02*
X150198998Y-122590013I0J1002D01*
G01*
X150198998Y-121089987D01*
G75*
G02*
X150200000Y-121088985I1002J0D01*
G01*
X150400000Y-121088985D01*
G75*
G02*
X150401002Y-121089987I0J-1002D01*
G01*
G37*
G36*
G01*
X154401002Y-123409987D02*
X154401002Y-124910013D01*
G75*
G02*
X154400000Y-124911015I-1002J0D01*
G01*
X154200000Y-124911015D01*
G75*
G02*
X154198998Y-124910013I0J1002D01*
G01*
X154198998Y-123409987D01*
G75*
G02*
X154200000Y-123408985I1002J0D01*
G01*
X154400000Y-123408985D01*
G75*
G02*
X154401002Y-123409987I0J-1002D01*
G01*
G37*
G36*
G01*
X150801002Y-121089987D02*
X150801002Y-122590013D01*
G75*
G02*
X150800000Y-122591015I-1002J0D01*
G01*
X150600000Y-122591015D01*
G75*
G02*
X150598998Y-122590013I0J1002D01*
G01*
X150598998Y-121089987D01*
G75*
G02*
X150600000Y-121088985I1002J0D01*
G01*
X150800000Y-121088985D01*
G75*
G02*
X150801002Y-121089987I0J-1002D01*
G01*
G37*
G36*
G01*
X154801002Y-123409987D02*
X154801002Y-124910013D01*
G75*
G02*
X154800000Y-124911015I-1002J0D01*
G01*
X154600000Y-124911015D01*
G75*
G02*
X154598998Y-124910013I0J1002D01*
G01*
X154598998Y-123409987D01*
G75*
G02*
X154600000Y-123408985I1002J0D01*
G01*
X154800000Y-123408985D01*
G75*
G02*
X154801002Y-123409987I0J-1002D01*
G01*
G37*
G36*
G01*
X151201002Y-121089987D02*
X151201002Y-122590013D01*
G75*
G02*
X151200000Y-122591015I-1002J0D01*
G01*
X151000000Y-122591015D01*
G75*
G02*
X150998998Y-122590013I0J1002D01*
G01*
X150998998Y-121089987D01*
G75*
G02*
X151000000Y-121088985I1002J0D01*
G01*
X151200000Y-121088985D01*
G75*
G02*
X151201002Y-121089987I0J-1002D01*
G01*
G37*
G36*
G01*
X155201002Y-123409987D02*
X155201002Y-124910013D01*
G75*
G02*
X155200000Y-124911015I-1002J0D01*
G01*
X155000000Y-124911015D01*
G75*
G02*
X154998998Y-124910013I0J1002D01*
G01*
X154998998Y-123409987D01*
G75*
G02*
X155000000Y-123408985I1002J0D01*
G01*
X155200000Y-123408985D01*
G75*
G02*
X155201002Y-123409987I0J-1002D01*
G01*
G37*
G36*
G01*
X151601002Y-121089987D02*
X151601002Y-122590013D01*
G75*
G02*
X151600000Y-122591015I-1002J0D01*
G01*
X151400000Y-122591015D01*
G75*
G02*
X151398998Y-122590013I0J1002D01*
G01*
X151398998Y-121089987D01*
G75*
G02*
X151400000Y-121088985I1002J0D01*
G01*
X151600000Y-121088985D01*
G75*
G02*
X151601002Y-121089987I0J-1002D01*
G01*
G37*
G36*
G01*
X155601002Y-123409987D02*
X155601002Y-124910013D01*
G75*
G02*
X155600000Y-124911015I-1002J0D01*
G01*
X155400000Y-124911015D01*
G75*
G02*
X155398998Y-124910013I0J1002D01*
G01*
X155398998Y-123409987D01*
G75*
G02*
X155400000Y-123408985I1002J0D01*
G01*
X155600000Y-123408985D01*
G75*
G02*
X155601002Y-123409987I0J-1002D01*
G01*
G37*
G36*
G01*
X152001002Y-121089987D02*
X152001002Y-122590013D01*
G75*
G02*
X152000000Y-122591015I-1002J0D01*
G01*
X151800000Y-122591015D01*
G75*
G02*
X151798998Y-122590013I0J1002D01*
G01*
X151798998Y-121089987D01*
G75*
G02*
X151800000Y-121088985I1002J0D01*
G01*
X152000000Y-121088985D01*
G75*
G02*
X152001002Y-121089987I0J-1002D01*
G01*
G37*
G36*
G01*
X156001002Y-123409987D02*
X156001002Y-124910013D01*
G75*
G02*
X156000000Y-124911015I-1002J0D01*
G01*
X155800000Y-124911015D01*
G75*
G02*
X155798998Y-124910013I0J1002D01*
G01*
X155798998Y-123409987D01*
G75*
G02*
X155800000Y-123408985I1002J0D01*
G01*
X156000000Y-123408985D01*
G75*
G02*
X156001002Y-123409987I0J-1002D01*
G01*
G37*
G36*
G01*
X152401002Y-121089987D02*
X152401002Y-122590013D01*
G75*
G02*
X152400000Y-122591015I-1002J0D01*
G01*
X152200000Y-122591015D01*
G75*
G02*
X152198998Y-122590013I0J1002D01*
G01*
X152198998Y-121089987D01*
G75*
G02*
X152200000Y-121088985I1002J0D01*
G01*
X152400000Y-121088985D01*
G75*
G02*
X152401002Y-121089987I0J-1002D01*
G01*
G37*
G36*
G01*
X156401002Y-123409987D02*
X156401002Y-124910013D01*
G75*
G02*
X156400000Y-124911015I-1002J0D01*
G01*
X156200000Y-124911015D01*
G75*
G02*
X156198998Y-124910013I0J1002D01*
G01*
X156198998Y-123409987D01*
G75*
G02*
X156200000Y-123408985I1002J0D01*
G01*
X156400000Y-123408985D01*
G75*
G02*
X156401002Y-123409987I0J-1002D01*
G01*
G37*
G36*
G01*
X152801002Y-121089987D02*
X152801002Y-122590013D01*
G75*
G02*
X152800000Y-122591015I-1002J0D01*
G01*
X152600000Y-122591015D01*
G75*
G02*
X152598998Y-122590013I0J1002D01*
G01*
X152598998Y-121089987D01*
G75*
G02*
X152600000Y-121088985I1002J0D01*
G01*
X152800000Y-121088985D01*
G75*
G02*
X152801002Y-121089987I0J-1002D01*
G01*
G37*
G36*
G01*
X156801002Y-123409987D02*
X156801002Y-124910013D01*
G75*
G02*
X156800000Y-124911015I-1002J0D01*
G01*
X156600000Y-124911015D01*
G75*
G02*
X156598998Y-124910013I0J1002D01*
G01*
X156598998Y-123409987D01*
G75*
G02*
X156600000Y-123408985I1002J0D01*
G01*
X156800000Y-123408985D01*
G75*
G02*
X156801002Y-123409987I0J-1002D01*
G01*
G37*
G36*
G01*
X153201002Y-121089987D02*
X153201002Y-122590013D01*
G75*
G02*
X153200000Y-122591015I-1002J0D01*
G01*
X153000000Y-122591015D01*
G75*
G02*
X152998998Y-122590013I0J1002D01*
G01*
X152998998Y-121089987D01*
G75*
G02*
X153000000Y-121088985I1002J0D01*
G01*
X153200000Y-121088985D01*
G75*
G02*
X153201002Y-121089987I0J-1002D01*
G01*
G37*
G36*
G01*
X157201002Y-123409987D02*
X157201002Y-124910013D01*
G75*
G02*
X157200000Y-124911015I-1002J0D01*
G01*
X157000000Y-124911015D01*
G75*
G02*
X156998998Y-124910013I0J1002D01*
G01*
X156998998Y-123409987D01*
G75*
G02*
X157000000Y-123408985I1002J0D01*
G01*
X157200000Y-123408985D01*
G75*
G02*
X157201002Y-123409987I0J-1002D01*
G01*
G37*
G36*
G01*
X153601002Y-121089987D02*
X153601002Y-122590013D01*
G75*
G02*
X153600000Y-122591015I-1002J0D01*
G01*
X153400000Y-122591015D01*
G75*
G02*
X153398998Y-122590013I0J1002D01*
G01*
X153398998Y-121089987D01*
G75*
G02*
X153400000Y-121088985I1002J0D01*
G01*
X153600000Y-121088985D01*
G75*
G02*
X153601002Y-121089987I0J-1002D01*
G01*
G37*
G36*
G01*
X157601002Y-123409987D02*
X157601002Y-124910013D01*
G75*
G02*
X157600000Y-124911015I-1002J0D01*
G01*
X157400000Y-124911015D01*
G75*
G02*
X157398998Y-124910013I0J1002D01*
G01*
X157398998Y-123409987D01*
G75*
G02*
X157400000Y-123408985I1002J0D01*
G01*
X157600000Y-123408985D01*
G75*
G02*
X157601002Y-123409987I0J-1002D01*
G01*
G37*
G36*
G01*
X154001002Y-121089987D02*
X154001002Y-122590013D01*
G75*
G02*
X154000000Y-122591015I-1002J0D01*
G01*
X153800000Y-122591015D01*
G75*
G02*
X153798998Y-122590013I0J1002D01*
G01*
X153798998Y-121089987D01*
G75*
G02*
X153800000Y-121088985I1002J0D01*
G01*
X154000000Y-121088985D01*
G75*
G02*
X154001002Y-121089987I0J-1002D01*
G01*
G37*
G36*
G01*
X158001002Y-123409987D02*
X158001002Y-124910013D01*
G75*
G02*
X158000000Y-124911015I-1002J0D01*
G01*
X157800000Y-124911015D01*
G75*
G02*
X157798998Y-124910013I0J1002D01*
G01*
X157798998Y-123409987D01*
G75*
G02*
X157800000Y-123408985I1002J0D01*
G01*
X158000000Y-123408985D01*
G75*
G02*
X158001002Y-123409987I0J-1002D01*
G01*
G37*
G36*
G01*
X154401002Y-121089987D02*
X154401002Y-122590013D01*
G75*
G02*
X154400000Y-122591015I-1002J0D01*
G01*
X154200000Y-122591015D01*
G75*
G02*
X154198998Y-122590013I0J1002D01*
G01*
X154198998Y-121089987D01*
G75*
G02*
X154200000Y-121088985I1002J0D01*
G01*
X154400000Y-121088985D01*
G75*
G02*
X154401002Y-121089987I0J-1002D01*
G01*
G37*
G36*
G01*
X158401002Y-123409987D02*
X158401002Y-124910013D01*
G75*
G02*
X158400000Y-124911015I-1002J0D01*
G01*
X158200000Y-124911015D01*
G75*
G02*
X158198998Y-124910013I0J1002D01*
G01*
X158198998Y-123409987D01*
G75*
G02*
X158200000Y-123408985I1002J0D01*
G01*
X158400000Y-123408985D01*
G75*
G02*
X158401002Y-123409987I0J-1002D01*
G01*
G37*
G36*
G01*
X154801002Y-121089987D02*
X154801002Y-122590013D01*
G75*
G02*
X154800000Y-122591015I-1002J0D01*
G01*
X154600000Y-122591015D01*
G75*
G02*
X154598998Y-122590013I0J1002D01*
G01*
X154598998Y-121089987D01*
G75*
G02*
X154600000Y-121088985I1002J0D01*
G01*
X154800000Y-121088985D01*
G75*
G02*
X154801002Y-121089987I0J-1002D01*
G01*
G37*
G36*
G01*
X146801002Y-123409987D02*
X146801002Y-124910013D01*
G75*
G02*
X146800000Y-124911015I-1002J0D01*
G01*
X146600000Y-124911015D01*
G75*
G02*
X146598998Y-124910013I0J1002D01*
G01*
X146598998Y-123409987D01*
G75*
G02*
X146600000Y-123408985I1002J0D01*
G01*
X146800000Y-123408985D01*
G75*
G02*
X146801002Y-123409987I0J-1002D01*
G01*
G37*
G36*
G01*
X155201002Y-121089987D02*
X155201002Y-122590013D01*
G75*
G02*
X155200000Y-122591015I-1002J0D01*
G01*
X155000000Y-122591015D01*
G75*
G02*
X154998998Y-122590013I0J1002D01*
G01*
X154998998Y-121089987D01*
G75*
G02*
X155000000Y-121088985I1002J0D01*
G01*
X155200000Y-121088985D01*
G75*
G02*
X155201002Y-121089987I0J-1002D01*
G01*
G37*
G36*
G01*
X147201002Y-123409987D02*
X147201002Y-124910013D01*
G75*
G02*
X147200000Y-124911015I-1002J0D01*
G01*
X147000000Y-124911015D01*
G75*
G02*
X146998998Y-124910013I0J1002D01*
G01*
X146998998Y-123409987D01*
G75*
G02*
X147000000Y-123408985I1002J0D01*
G01*
X147200000Y-123408985D01*
G75*
G02*
X147201002Y-123409987I0J-1002D01*
G01*
G37*
G36*
G01*
X155601002Y-121089987D02*
X155601002Y-122590013D01*
G75*
G02*
X155600000Y-122591015I-1002J0D01*
G01*
X155400000Y-122591015D01*
G75*
G02*
X155398998Y-122590013I0J1002D01*
G01*
X155398998Y-121089987D01*
G75*
G02*
X155400000Y-121088985I1002J0D01*
G01*
X155600000Y-121088985D01*
G75*
G02*
X155601002Y-121089987I0J-1002D01*
G01*
G37*
G36*
G01*
X147601002Y-123409987D02*
X147601002Y-124910013D01*
G75*
G02*
X147600000Y-124911015I-1002J0D01*
G01*
X147400000Y-124911015D01*
G75*
G02*
X147398998Y-124910013I0J1002D01*
G01*
X147398998Y-123409987D01*
G75*
G02*
X147400000Y-123408985I1002J0D01*
G01*
X147600000Y-123408985D01*
G75*
G02*
X147601002Y-123409987I0J-1002D01*
G01*
G37*
G36*
G01*
X156001002Y-121089987D02*
X156001002Y-122590013D01*
G75*
G02*
X156000000Y-122591015I-1002J0D01*
G01*
X155800000Y-122591015D01*
G75*
G02*
X155798998Y-122590013I0J1002D01*
G01*
X155798998Y-121089987D01*
G75*
G02*
X155800000Y-121088985I1002J0D01*
G01*
X156000000Y-121088985D01*
G75*
G02*
X156001002Y-121089987I0J-1002D01*
G01*
G37*
G36*
G01*
X148001002Y-123409987D02*
X148001002Y-124910013D01*
G75*
G02*
X148000000Y-124911015I-1002J0D01*
G01*
X147800000Y-124911015D01*
G75*
G02*
X147798998Y-124910013I0J1002D01*
G01*
X147798998Y-123409987D01*
G75*
G02*
X147800000Y-123408985I1002J0D01*
G01*
X148000000Y-123408985D01*
G75*
G02*
X148001002Y-123409987I0J-1002D01*
G01*
G37*
G36*
G01*
X156401002Y-121089987D02*
X156401002Y-122590013D01*
G75*
G02*
X156400000Y-122591015I-1002J0D01*
G01*
X156200000Y-122591015D01*
G75*
G02*
X156198998Y-122590013I0J1002D01*
G01*
X156198998Y-121089987D01*
G75*
G02*
X156200000Y-121088985I1002J0D01*
G01*
X156400000Y-121088985D01*
G75*
G02*
X156401002Y-121089987I0J-1002D01*
G01*
G37*
G36*
G01*
X148401002Y-123409987D02*
X148401002Y-124910013D01*
G75*
G02*
X148400000Y-124911015I-1002J0D01*
G01*
X148200000Y-124911015D01*
G75*
G02*
X148198998Y-124910013I0J1002D01*
G01*
X148198998Y-123409987D01*
G75*
G02*
X148200000Y-123408985I1002J0D01*
G01*
X148400000Y-123408985D01*
G75*
G02*
X148401002Y-123409987I0J-1002D01*
G01*
G37*
G36*
G01*
X156801002Y-121089987D02*
X156801002Y-122590013D01*
G75*
G02*
X156800000Y-122591015I-1002J0D01*
G01*
X156600000Y-122591015D01*
G75*
G02*
X156598998Y-122590013I0J1002D01*
G01*
X156598998Y-121089987D01*
G75*
G02*
X156600000Y-121088985I1002J0D01*
G01*
X156800000Y-121088985D01*
G75*
G02*
X156801002Y-121089987I0J-1002D01*
G01*
G37*
G36*
G01*
X157201002Y-121089987D02*
X157201002Y-122590013D01*
G75*
G02*
X157200000Y-122591015I-1002J0D01*
G01*
X157000000Y-122591015D01*
G75*
G02*
X156998998Y-122590013I0J1002D01*
G01*
X156998998Y-121089987D01*
G75*
G02*
X157000000Y-121088985I1002J0D01*
G01*
X157200000Y-121088985D01*
G75*
G02*
X157201002Y-121089987I0J-1002D01*
G01*
G37*
G36*
G01*
X157601002Y-121089987D02*
X157601002Y-122590013D01*
G75*
G02*
X157600000Y-122591015I-1002J0D01*
G01*
X157400000Y-122591015D01*
G75*
G02*
X157398998Y-122590013I0J1002D01*
G01*
X157398998Y-121089987D01*
G75*
G02*
X157400000Y-121088985I1002J0D01*
G01*
X157600000Y-121088985D01*
G75*
G02*
X157601002Y-121089987I0J-1002D01*
G01*
G37*
G36*
G01*
X158001002Y-121089987D02*
X158001002Y-122590013D01*
G75*
G02*
X158000000Y-122591015I-1002J0D01*
G01*
X157800000Y-122591015D01*
G75*
G02*
X157798998Y-122590013I0J1002D01*
G01*
X157798998Y-121089987D01*
G75*
G02*
X157800000Y-121088985I1002J0D01*
G01*
X158000000Y-121088985D01*
G75*
G02*
X158001002Y-121089987I0J-1002D01*
G01*
G37*
G36*
G01*
X158401002Y-121089987D02*
X158401002Y-122590013D01*
G75*
G02*
X158400000Y-122591015I-1002J0D01*
G01*
X158200000Y-122591015D01*
G75*
G02*
X158198998Y-122590013I0J1002D01*
G01*
X158198998Y-121089987D01*
G75*
G02*
X158200000Y-121088985I1002J0D01*
G01*
X158400000Y-121088985D01*
G75*
G02*
X158401002Y-121089987I0J-1002D01*
G01*
G37*
G36*
G01*
X148801002Y-97409987D02*
X148801002Y-98910013D01*
G75*
G02*
X148800000Y-98911015I-1002J0D01*
G01*
X148600000Y-98911015D01*
G75*
G02*
X148598998Y-98910013I0J1002D01*
G01*
X148598998Y-97409987D01*
G75*
G02*
X148600000Y-97408985I1002J0D01*
G01*
X148800000Y-97408985D01*
G75*
G02*
X148801002Y-97409987I0J-1002D01*
G01*
G37*
G36*
G01*
X149201002Y-97409987D02*
X149201002Y-98910013D01*
G75*
G02*
X149200000Y-98911015I-1002J0D01*
G01*
X149000000Y-98911015D01*
G75*
G02*
X148998998Y-98910013I0J1002D01*
G01*
X148998998Y-97409987D01*
G75*
G02*
X149000000Y-97408985I1002J0D01*
G01*
X149200000Y-97408985D01*
G75*
G02*
X149201002Y-97409987I0J-1002D01*
G01*
G37*
G36*
G01*
X149601002Y-97409987D02*
X149601002Y-98910013D01*
G75*
G02*
X149600000Y-98911015I-1002J0D01*
G01*
X149400000Y-98911015D01*
G75*
G02*
X149398998Y-98910013I0J1002D01*
G01*
X149398998Y-97409987D01*
G75*
G02*
X149400000Y-97408985I1002J0D01*
G01*
X149600000Y-97408985D01*
G75*
G02*
X149601002Y-97409987I0J-1002D01*
G01*
G37*
G36*
G01*
X150001002Y-97409987D02*
X150001002Y-98910013D01*
G75*
G02*
X150000000Y-98911015I-1002J0D01*
G01*
X149800000Y-98911015D01*
G75*
G02*
X149798998Y-98910013I0J1002D01*
G01*
X149798998Y-97409987D01*
G75*
G02*
X149800000Y-97408985I1002J0D01*
G01*
X150000000Y-97408985D01*
G75*
G02*
X150001002Y-97409987I0J-1002D01*
G01*
G37*
G36*
G01*
X150401002Y-97409987D02*
X150401002Y-98910013D01*
G75*
G02*
X150400000Y-98911015I-1002J0D01*
G01*
X150200000Y-98911015D01*
G75*
G02*
X150198998Y-98910013I0J1002D01*
G01*
X150198998Y-97409987D01*
G75*
G02*
X150200000Y-97408985I1002J0D01*
G01*
X150400000Y-97408985D01*
G75*
G02*
X150401002Y-97409987I0J-1002D01*
G01*
G37*
G36*
G01*
X146801002Y-95089987D02*
X146801002Y-96590013D01*
G75*
G02*
X146800000Y-96591015I-1002J0D01*
G01*
X146600000Y-96591015D01*
G75*
G02*
X146598998Y-96590013I0J1002D01*
G01*
X146598998Y-95089987D01*
G75*
G02*
X146600000Y-95088985I1002J0D01*
G01*
X146800000Y-95088985D01*
G75*
G02*
X146801002Y-95089987I0J-1002D01*
G01*
G37*
G36*
G01*
X150801002Y-97409987D02*
X150801002Y-98910013D01*
G75*
G02*
X150800000Y-98911015I-1002J0D01*
G01*
X150600000Y-98911015D01*
G75*
G02*
X150598998Y-98910013I0J1002D01*
G01*
X150598998Y-97409987D01*
G75*
G02*
X150600000Y-97408985I1002J0D01*
G01*
X150800000Y-97408985D01*
G75*
G02*
X150801002Y-97409987I0J-1002D01*
G01*
G37*
G36*
G01*
X147201002Y-95089987D02*
X147201002Y-96590013D01*
G75*
G02*
X147200000Y-96591015I-1002J0D01*
G01*
X147000000Y-96591015D01*
G75*
G02*
X146998998Y-96590013I0J1002D01*
G01*
X146998998Y-95089987D01*
G75*
G02*
X147000000Y-95088985I1002J0D01*
G01*
X147200000Y-95088985D01*
G75*
G02*
X147201002Y-95089987I0J-1002D01*
G01*
G37*
G36*
G01*
X151201002Y-97409987D02*
X151201002Y-98910013D01*
G75*
G02*
X151200000Y-98911015I-1002J0D01*
G01*
X151000000Y-98911015D01*
G75*
G02*
X150998998Y-98910013I0J1002D01*
G01*
X150998998Y-97409987D01*
G75*
G02*
X151000000Y-97408985I1002J0D01*
G01*
X151200000Y-97408985D01*
G75*
G02*
X151201002Y-97409987I0J-1002D01*
G01*
G37*
G36*
G01*
X147601002Y-95089987D02*
X147601002Y-96590013D01*
G75*
G02*
X147600000Y-96591015I-1002J0D01*
G01*
X147400000Y-96591015D01*
G75*
G02*
X147398998Y-96590013I0J1002D01*
G01*
X147398998Y-95089987D01*
G75*
G02*
X147400000Y-95088985I1002J0D01*
G01*
X147600000Y-95088985D01*
G75*
G02*
X147601002Y-95089987I0J-1002D01*
G01*
G37*
G36*
G01*
X151601002Y-97409987D02*
X151601002Y-98910013D01*
G75*
G02*
X151600000Y-98911015I-1002J0D01*
G01*
X151400000Y-98911015D01*
G75*
G02*
X151398998Y-98910013I0J1002D01*
G01*
X151398998Y-97409987D01*
G75*
G02*
X151400000Y-97408985I1002J0D01*
G01*
X151600000Y-97408985D01*
G75*
G02*
X151601002Y-97409987I0J-1002D01*
G01*
G37*
G36*
G01*
X148001002Y-95089987D02*
X148001002Y-96590013D01*
G75*
G02*
X148000000Y-96591015I-1002J0D01*
G01*
X147800000Y-96591015D01*
G75*
G02*
X147798998Y-96590013I0J1002D01*
G01*
X147798998Y-95089987D01*
G75*
G02*
X147800000Y-95088985I1002J0D01*
G01*
X148000000Y-95088985D01*
G75*
G02*
X148001002Y-95089987I0J-1002D01*
G01*
G37*
G36*
G01*
X152001002Y-97409987D02*
X152001002Y-98910013D01*
G75*
G02*
X152000000Y-98911015I-1002J0D01*
G01*
X151800000Y-98911015D01*
G75*
G02*
X151798998Y-98910013I0J1002D01*
G01*
X151798998Y-97409987D01*
G75*
G02*
X151800000Y-97408985I1002J0D01*
G01*
X152000000Y-97408985D01*
G75*
G02*
X152001002Y-97409987I0J-1002D01*
G01*
G37*
G36*
G01*
X148401002Y-95089987D02*
X148401002Y-96590013D01*
G75*
G02*
X148400000Y-96591015I-1002J0D01*
G01*
X148200000Y-96591015D01*
G75*
G02*
X148198998Y-96590013I0J1002D01*
G01*
X148198998Y-95089987D01*
G75*
G02*
X148200000Y-95088985I1002J0D01*
G01*
X148400000Y-95088985D01*
G75*
G02*
X148401002Y-95089987I0J-1002D01*
G01*
G37*
G36*
G01*
X152401002Y-97409987D02*
X152401002Y-98910013D01*
G75*
G02*
X152400000Y-98911015I-1002J0D01*
G01*
X152200000Y-98911015D01*
G75*
G02*
X152198998Y-98910013I0J1002D01*
G01*
X152198998Y-97409987D01*
G75*
G02*
X152200000Y-97408985I1002J0D01*
G01*
X152400000Y-97408985D01*
G75*
G02*
X152401002Y-97409987I0J-1002D01*
G01*
G37*
G36*
G01*
X148801002Y-95089987D02*
X148801002Y-96590013D01*
G75*
G02*
X148800000Y-96591015I-1002J0D01*
G01*
X148600000Y-96591015D01*
G75*
G02*
X148598998Y-96590013I0J1002D01*
G01*
X148598998Y-95089987D01*
G75*
G02*
X148600000Y-95088985I1002J0D01*
G01*
X148800000Y-95088985D01*
G75*
G02*
X148801002Y-95089987I0J-1002D01*
G01*
G37*
G36*
G01*
X152801002Y-97409987D02*
X152801002Y-98910013D01*
G75*
G02*
X152800000Y-98911015I-1002J0D01*
G01*
X152600000Y-98911015D01*
G75*
G02*
X152598998Y-98910013I0J1002D01*
G01*
X152598998Y-97409987D01*
G75*
G02*
X152600000Y-97408985I1002J0D01*
G01*
X152800000Y-97408985D01*
G75*
G02*
X152801002Y-97409987I0J-1002D01*
G01*
G37*
G36*
G01*
X149201002Y-95089987D02*
X149201002Y-96590013D01*
G75*
G02*
X149200000Y-96591015I-1002J0D01*
G01*
X149000000Y-96591015D01*
G75*
G02*
X148998998Y-96590013I0J1002D01*
G01*
X148998998Y-95089987D01*
G75*
G02*
X149000000Y-95088985I1002J0D01*
G01*
X149200000Y-95088985D01*
G75*
G02*
X149201002Y-95089987I0J-1002D01*
G01*
G37*
G36*
G01*
X153201002Y-97409987D02*
X153201002Y-98910013D01*
G75*
G02*
X153200000Y-98911015I-1002J0D01*
G01*
X153000000Y-98911015D01*
G75*
G02*
X152998998Y-98910013I0J1002D01*
G01*
X152998998Y-97409987D01*
G75*
G02*
X153000000Y-97408985I1002J0D01*
G01*
X153200000Y-97408985D01*
G75*
G02*
X153201002Y-97409987I0J-1002D01*
G01*
G37*
G36*
G01*
X149601002Y-95089987D02*
X149601002Y-96590013D01*
G75*
G02*
X149600000Y-96591015I-1002J0D01*
G01*
X149400000Y-96591015D01*
G75*
G02*
X149398998Y-96590013I0J1002D01*
G01*
X149398998Y-95089987D01*
G75*
G02*
X149400000Y-95088985I1002J0D01*
G01*
X149600000Y-95088985D01*
G75*
G02*
X149601002Y-95089987I0J-1002D01*
G01*
G37*
G36*
G01*
X153601002Y-97409987D02*
X153601002Y-98910013D01*
G75*
G02*
X153600000Y-98911015I-1002J0D01*
G01*
X153400000Y-98911015D01*
G75*
G02*
X153398998Y-98910013I0J1002D01*
G01*
X153398998Y-97409987D01*
G75*
G02*
X153400000Y-97408985I1002J0D01*
G01*
X153600000Y-97408985D01*
G75*
G02*
X153601002Y-97409987I0J-1002D01*
G01*
G37*
G36*
G01*
X150001002Y-95089987D02*
X150001002Y-96590013D01*
G75*
G02*
X150000000Y-96591015I-1002J0D01*
G01*
X149800000Y-96591015D01*
G75*
G02*
X149798998Y-96590013I0J1002D01*
G01*
X149798998Y-95089987D01*
G75*
G02*
X149800000Y-95088985I1002J0D01*
G01*
X150000000Y-95088985D01*
G75*
G02*
X150001002Y-95089987I0J-1002D01*
G01*
G37*
G36*
G01*
X154001002Y-97409987D02*
X154001002Y-98910013D01*
G75*
G02*
X154000000Y-98911015I-1002J0D01*
G01*
X153800000Y-98911015D01*
G75*
G02*
X153798998Y-98910013I0J1002D01*
G01*
X153798998Y-97409987D01*
G75*
G02*
X153800000Y-97408985I1002J0D01*
G01*
X154000000Y-97408985D01*
G75*
G02*
X154001002Y-97409987I0J-1002D01*
G01*
G37*
G36*
G01*
X150401002Y-95089987D02*
X150401002Y-96590013D01*
G75*
G02*
X150400000Y-96591015I-1002J0D01*
G01*
X150200000Y-96591015D01*
G75*
G02*
X150198998Y-96590013I0J1002D01*
G01*
X150198998Y-95089987D01*
G75*
G02*
X150200000Y-95088985I1002J0D01*
G01*
X150400000Y-95088985D01*
G75*
G02*
X150401002Y-95089987I0J-1002D01*
G01*
G37*
G36*
G01*
X154401002Y-97409987D02*
X154401002Y-98910013D01*
G75*
G02*
X154400000Y-98911015I-1002J0D01*
G01*
X154200000Y-98911015D01*
G75*
G02*
X154198998Y-98910013I0J1002D01*
G01*
X154198998Y-97409987D01*
G75*
G02*
X154200000Y-97408985I1002J0D01*
G01*
X154400000Y-97408985D01*
G75*
G02*
X154401002Y-97409987I0J-1002D01*
G01*
G37*
G36*
G01*
X150801002Y-95089987D02*
X150801002Y-96590013D01*
G75*
G02*
X150800000Y-96591015I-1002J0D01*
G01*
X150600000Y-96591015D01*
G75*
G02*
X150598998Y-96590013I0J1002D01*
G01*
X150598998Y-95089987D01*
G75*
G02*
X150600000Y-95088985I1002J0D01*
G01*
X150800000Y-95088985D01*
G75*
G02*
X150801002Y-95089987I0J-1002D01*
G01*
G37*
G36*
G01*
X154801002Y-97409987D02*
X154801002Y-98910013D01*
G75*
G02*
X154800000Y-98911015I-1002J0D01*
G01*
X154600000Y-98911015D01*
G75*
G02*
X154598998Y-98910013I0J1002D01*
G01*
X154598998Y-97409987D01*
G75*
G02*
X154600000Y-97408985I1002J0D01*
G01*
X154800000Y-97408985D01*
G75*
G02*
X154801002Y-97409987I0J-1002D01*
G01*
G37*
G36*
G01*
X151201002Y-95089987D02*
X151201002Y-96590013D01*
G75*
G02*
X151200000Y-96591015I-1002J0D01*
G01*
X151000000Y-96591015D01*
G75*
G02*
X150998998Y-96590013I0J1002D01*
G01*
X150998998Y-95089987D01*
G75*
G02*
X151000000Y-95088985I1002J0D01*
G01*
X151200000Y-95088985D01*
G75*
G02*
X151201002Y-95089987I0J-1002D01*
G01*
G37*
G36*
G01*
X155201002Y-97409987D02*
X155201002Y-98910013D01*
G75*
G02*
X155200000Y-98911015I-1002J0D01*
G01*
X155000000Y-98911015D01*
G75*
G02*
X154998998Y-98910013I0J1002D01*
G01*
X154998998Y-97409987D01*
G75*
G02*
X155000000Y-97408985I1002J0D01*
G01*
X155200000Y-97408985D01*
G75*
G02*
X155201002Y-97409987I0J-1002D01*
G01*
G37*
G36*
G01*
X151601002Y-95089987D02*
X151601002Y-96590013D01*
G75*
G02*
X151600000Y-96591015I-1002J0D01*
G01*
X151400000Y-96591015D01*
G75*
G02*
X151398998Y-96590013I0J1002D01*
G01*
X151398998Y-95089987D01*
G75*
G02*
X151400000Y-95088985I1002J0D01*
G01*
X151600000Y-95088985D01*
G75*
G02*
X151601002Y-95089987I0J-1002D01*
G01*
G37*
G36*
G01*
X155601002Y-97409987D02*
X155601002Y-98910013D01*
G75*
G02*
X155600000Y-98911015I-1002J0D01*
G01*
X155400000Y-98911015D01*
G75*
G02*
X155398998Y-98910013I0J1002D01*
G01*
X155398998Y-97409987D01*
G75*
G02*
X155400000Y-97408985I1002J0D01*
G01*
X155600000Y-97408985D01*
G75*
G02*
X155601002Y-97409987I0J-1002D01*
G01*
G37*
G36*
G01*
X152001002Y-95089987D02*
X152001002Y-96590013D01*
G75*
G02*
X152000000Y-96591015I-1002J0D01*
G01*
X151800000Y-96591015D01*
G75*
G02*
X151798998Y-96590013I0J1002D01*
G01*
X151798998Y-95089987D01*
G75*
G02*
X151800000Y-95088985I1002J0D01*
G01*
X152000000Y-95088985D01*
G75*
G02*
X152001002Y-95089987I0J-1002D01*
G01*
G37*
G36*
G01*
X156001002Y-97409987D02*
X156001002Y-98910013D01*
G75*
G02*
X156000000Y-98911015I-1002J0D01*
G01*
X155800000Y-98911015D01*
G75*
G02*
X155798998Y-98910013I0J1002D01*
G01*
X155798998Y-97409987D01*
G75*
G02*
X155800000Y-97408985I1002J0D01*
G01*
X156000000Y-97408985D01*
G75*
G02*
X156001002Y-97409987I0J-1002D01*
G01*
G37*
G36*
G01*
X152401002Y-95089987D02*
X152401002Y-96590013D01*
G75*
G02*
X152400000Y-96591015I-1002J0D01*
G01*
X152200000Y-96591015D01*
G75*
G02*
X152198998Y-96590013I0J1002D01*
G01*
X152198998Y-95089987D01*
G75*
G02*
X152200000Y-95088985I1002J0D01*
G01*
X152400000Y-95088985D01*
G75*
G02*
X152401002Y-95089987I0J-1002D01*
G01*
G37*
G36*
G01*
X156401002Y-97409987D02*
X156401002Y-98910013D01*
G75*
G02*
X156400000Y-98911015I-1002J0D01*
G01*
X156200000Y-98911015D01*
G75*
G02*
X156198998Y-98910013I0J1002D01*
G01*
X156198998Y-97409987D01*
G75*
G02*
X156200000Y-97408985I1002J0D01*
G01*
X156400000Y-97408985D01*
G75*
G02*
X156401002Y-97409987I0J-1002D01*
G01*
G37*
G36*
G01*
X152801002Y-95089987D02*
X152801002Y-96590013D01*
G75*
G02*
X152800000Y-96591015I-1002J0D01*
G01*
X152600000Y-96591015D01*
G75*
G02*
X152598998Y-96590013I0J1002D01*
G01*
X152598998Y-95089987D01*
G75*
G02*
X152600000Y-95088985I1002J0D01*
G01*
X152800000Y-95088985D01*
G75*
G02*
X152801002Y-95089987I0J-1002D01*
G01*
G37*
G36*
G01*
X156801002Y-97409987D02*
X156801002Y-98910013D01*
G75*
G02*
X156800000Y-98911015I-1002J0D01*
G01*
X156600000Y-98911015D01*
G75*
G02*
X156598998Y-98910013I0J1002D01*
G01*
X156598998Y-97409987D01*
G75*
G02*
X156600000Y-97408985I1002J0D01*
G01*
X156800000Y-97408985D01*
G75*
G02*
X156801002Y-97409987I0J-1002D01*
G01*
G37*
G36*
G01*
X153201002Y-95089987D02*
X153201002Y-96590013D01*
G75*
G02*
X153200000Y-96591015I-1002J0D01*
G01*
X153000000Y-96591015D01*
G75*
G02*
X152998998Y-96590013I0J1002D01*
G01*
X152998998Y-95089987D01*
G75*
G02*
X153000000Y-95088985I1002J0D01*
G01*
X153200000Y-95088985D01*
G75*
G02*
X153201002Y-95089987I0J-1002D01*
G01*
G37*
G36*
G01*
X157201002Y-97409987D02*
X157201002Y-98910013D01*
G75*
G02*
X157200000Y-98911015I-1002J0D01*
G01*
X157000000Y-98911015D01*
G75*
G02*
X156998998Y-98910013I0J1002D01*
G01*
X156998998Y-97409987D01*
G75*
G02*
X157000000Y-97408985I1002J0D01*
G01*
X157200000Y-97408985D01*
G75*
G02*
X157201002Y-97409987I0J-1002D01*
G01*
G37*
G36*
G01*
X153601002Y-95089987D02*
X153601002Y-96590013D01*
G75*
G02*
X153600000Y-96591015I-1002J0D01*
G01*
X153400000Y-96591015D01*
G75*
G02*
X153398998Y-96590013I0J1002D01*
G01*
X153398998Y-95089987D01*
G75*
G02*
X153400000Y-95088985I1002J0D01*
G01*
X153600000Y-95088985D01*
G75*
G02*
X153601002Y-95089987I0J-1002D01*
G01*
G37*
G36*
G01*
X157601002Y-97409987D02*
X157601002Y-98910013D01*
G75*
G02*
X157600000Y-98911015I-1002J0D01*
G01*
X157400000Y-98911015D01*
G75*
G02*
X157398998Y-98910013I0J1002D01*
G01*
X157398998Y-97409987D01*
G75*
G02*
X157400000Y-97408985I1002J0D01*
G01*
X157600000Y-97408985D01*
G75*
G02*
X157601002Y-97409987I0J-1002D01*
G01*
G37*
G36*
G01*
X154001002Y-95089987D02*
X154001002Y-96590013D01*
G75*
G02*
X154000000Y-96591015I-1002J0D01*
G01*
X153800000Y-96591015D01*
G75*
G02*
X153798998Y-96590013I0J1002D01*
G01*
X153798998Y-95089987D01*
G75*
G02*
X153800000Y-95088985I1002J0D01*
G01*
X154000000Y-95088985D01*
G75*
G02*
X154001002Y-95089987I0J-1002D01*
G01*
G37*
G36*
G01*
X158001002Y-97409987D02*
X158001002Y-98910013D01*
G75*
G02*
X158000000Y-98911015I-1002J0D01*
G01*
X157800000Y-98911015D01*
G75*
G02*
X157798998Y-98910013I0J1002D01*
G01*
X157798998Y-97409987D01*
G75*
G02*
X157800000Y-97408985I1002J0D01*
G01*
X158000000Y-97408985D01*
G75*
G02*
X158001002Y-97409987I0J-1002D01*
G01*
G37*
G36*
G01*
X154401002Y-95089987D02*
X154401002Y-96590013D01*
G75*
G02*
X154400000Y-96591015I-1002J0D01*
G01*
X154200000Y-96591015D01*
G75*
G02*
X154198998Y-96590013I0J1002D01*
G01*
X154198998Y-95089987D01*
G75*
G02*
X154200000Y-95088985I1002J0D01*
G01*
X154400000Y-95088985D01*
G75*
G02*
X154401002Y-95089987I0J-1002D01*
G01*
G37*
G36*
G01*
X158401002Y-97409987D02*
X158401002Y-98910013D01*
G75*
G02*
X158400000Y-98911015I-1002J0D01*
G01*
X158200000Y-98911015D01*
G75*
G02*
X158198998Y-98910013I0J1002D01*
G01*
X158198998Y-97409987D01*
G75*
G02*
X158200000Y-97408985I1002J0D01*
G01*
X158400000Y-97408985D01*
G75*
G02*
X158401002Y-97409987I0J-1002D01*
G01*
G37*
G36*
G01*
X154801002Y-95089987D02*
X154801002Y-96590013D01*
G75*
G02*
X154800000Y-96591015I-1002J0D01*
G01*
X154600000Y-96591015D01*
G75*
G02*
X154598998Y-96590013I0J1002D01*
G01*
X154598998Y-95089987D01*
G75*
G02*
X154600000Y-95088985I1002J0D01*
G01*
X154800000Y-95088985D01*
G75*
G02*
X154801002Y-95089987I0J-1002D01*
G01*
G37*
G36*
G01*
X146801002Y-97409987D02*
X146801002Y-98910013D01*
G75*
G02*
X146800000Y-98911015I-1002J0D01*
G01*
X146600000Y-98911015D01*
G75*
G02*
X146598998Y-98910013I0J1002D01*
G01*
X146598998Y-97409987D01*
G75*
G02*
X146600000Y-97408985I1002J0D01*
G01*
X146800000Y-97408985D01*
G75*
G02*
X146801002Y-97409987I0J-1002D01*
G01*
G37*
G36*
G01*
X155201002Y-95089987D02*
X155201002Y-96590013D01*
G75*
G02*
X155200000Y-96591015I-1002J0D01*
G01*
X155000000Y-96591015D01*
G75*
G02*
X154998998Y-96590013I0J1002D01*
G01*
X154998998Y-95089987D01*
G75*
G02*
X155000000Y-95088985I1002J0D01*
G01*
X155200000Y-95088985D01*
G75*
G02*
X155201002Y-95089987I0J-1002D01*
G01*
G37*
G36*
G01*
X147201002Y-97409987D02*
X147201002Y-98910013D01*
G75*
G02*
X147200000Y-98911015I-1002J0D01*
G01*
X147000000Y-98911015D01*
G75*
G02*
X146998998Y-98910013I0J1002D01*
G01*
X146998998Y-97409987D01*
G75*
G02*
X147000000Y-97408985I1002J0D01*
G01*
X147200000Y-97408985D01*
G75*
G02*
X147201002Y-97409987I0J-1002D01*
G01*
G37*
G36*
G01*
X155601002Y-95089987D02*
X155601002Y-96590013D01*
G75*
G02*
X155600000Y-96591015I-1002J0D01*
G01*
X155400000Y-96591015D01*
G75*
G02*
X155398998Y-96590013I0J1002D01*
G01*
X155398998Y-95089987D01*
G75*
G02*
X155400000Y-95088985I1002J0D01*
G01*
X155600000Y-95088985D01*
G75*
G02*
X155601002Y-95089987I0J-1002D01*
G01*
G37*
G36*
G01*
X147601002Y-97409987D02*
X147601002Y-98910013D01*
G75*
G02*
X147600000Y-98911015I-1002J0D01*
G01*
X147400000Y-98911015D01*
G75*
G02*
X147398998Y-98910013I0J1002D01*
G01*
X147398998Y-97409987D01*
G75*
G02*
X147400000Y-97408985I1002J0D01*
G01*
X147600000Y-97408985D01*
G75*
G02*
X147601002Y-97409987I0J-1002D01*
G01*
G37*
G36*
G01*
X156001002Y-95089987D02*
X156001002Y-96590013D01*
G75*
G02*
X156000000Y-96591015I-1002J0D01*
G01*
X155800000Y-96591015D01*
G75*
G02*
X155798998Y-96590013I0J1002D01*
G01*
X155798998Y-95089987D01*
G75*
G02*
X155800000Y-95088985I1002J0D01*
G01*
X156000000Y-95088985D01*
G75*
G02*
X156001002Y-95089987I0J-1002D01*
G01*
G37*
G36*
G01*
X148001002Y-97409987D02*
X148001002Y-98910013D01*
G75*
G02*
X148000000Y-98911015I-1002J0D01*
G01*
X147800000Y-98911015D01*
G75*
G02*
X147798998Y-98910013I0J1002D01*
G01*
X147798998Y-97409987D01*
G75*
G02*
X147800000Y-97408985I1002J0D01*
G01*
X148000000Y-97408985D01*
G75*
G02*
X148001002Y-97409987I0J-1002D01*
G01*
G37*
G36*
G01*
X156401002Y-95089987D02*
X156401002Y-96590013D01*
G75*
G02*
X156400000Y-96591015I-1002J0D01*
G01*
X156200000Y-96591015D01*
G75*
G02*
X156198998Y-96590013I0J1002D01*
G01*
X156198998Y-95089987D01*
G75*
G02*
X156200000Y-95088985I1002J0D01*
G01*
X156400000Y-95088985D01*
G75*
G02*
X156401002Y-95089987I0J-1002D01*
G01*
G37*
G36*
G01*
X148401002Y-97409987D02*
X148401002Y-98910013D01*
G75*
G02*
X148400000Y-98911015I-1002J0D01*
G01*
X148200000Y-98911015D01*
G75*
G02*
X148198998Y-98910013I0J1002D01*
G01*
X148198998Y-97409987D01*
G75*
G02*
X148200000Y-97408985I1002J0D01*
G01*
X148400000Y-97408985D01*
G75*
G02*
X148401002Y-97409987I0J-1002D01*
G01*
G37*
G36*
G01*
X156801002Y-95089987D02*
X156801002Y-96590013D01*
G75*
G02*
X156800000Y-96591015I-1002J0D01*
G01*
X156600000Y-96591015D01*
G75*
G02*
X156598998Y-96590013I0J1002D01*
G01*
X156598998Y-95089987D01*
G75*
G02*
X156600000Y-95088985I1002J0D01*
G01*
X156800000Y-95088985D01*
G75*
G02*
X156801002Y-95089987I0J-1002D01*
G01*
G37*
G36*
G01*
X157201002Y-95089987D02*
X157201002Y-96590013D01*
G75*
G02*
X157200000Y-96591015I-1002J0D01*
G01*
X157000000Y-96591015D01*
G75*
G02*
X156998998Y-96590013I0J1002D01*
G01*
X156998998Y-95089987D01*
G75*
G02*
X157000000Y-95088985I1002J0D01*
G01*
X157200000Y-95088985D01*
G75*
G02*
X157201002Y-95089987I0J-1002D01*
G01*
G37*
G36*
G01*
X157601002Y-95089987D02*
X157601002Y-96590013D01*
G75*
G02*
X157600000Y-96591015I-1002J0D01*
G01*
X157400000Y-96591015D01*
G75*
G02*
X157398998Y-96590013I0J1002D01*
G01*
X157398998Y-95089987D01*
G75*
G02*
X157400000Y-95088985I1002J0D01*
G01*
X157600000Y-95088985D01*
G75*
G02*
X157601002Y-95089987I0J-1002D01*
G01*
G37*
G36*
G01*
X158001002Y-95089987D02*
X158001002Y-96590013D01*
G75*
G02*
X158000000Y-96591015I-1002J0D01*
G01*
X157800000Y-96591015D01*
G75*
G02*
X157798998Y-96590013I0J1002D01*
G01*
X157798998Y-95089987D01*
G75*
G02*
X157800000Y-95088985I1002J0D01*
G01*
X158000000Y-95088985D01*
G75*
G02*
X158001002Y-95089987I0J-1002D01*
G01*
G37*
G36*
G01*
X158401002Y-95089987D02*
X158401002Y-96590013D01*
G75*
G02*
X158400000Y-96591015I-1002J0D01*
G01*
X158200000Y-96591015D01*
G75*
G02*
X158198998Y-96590013I0J1002D01*
G01*
X158198998Y-95089987D01*
G75*
G02*
X158200000Y-95088985I1002J0D01*
G01*
X158400000Y-95088985D01*
G75*
G02*
X158401002Y-95089987I0J-1002D01*
G01*
G37*
D11*
X168625000Y-97175000D03*
X169375000Y-97175000D03*
X168625000Y-97825000D03*
X169375000Y-97825000D03*
G36*
G01*
X169899995Y-96376008D02*
X169600005Y-96376008D01*
G75*
G02*
X169598997Y-96375000I0J1008D01*
G01*
X169598997Y-95625000D01*
G75*
G02*
X169600005Y-95623992I1008J0D01*
G01*
X169899995Y-95623992D01*
G75*
G02*
X169901003Y-95625000I0J-1008D01*
G01*
X169901003Y-96375000D01*
G75*
G02*
X169899995Y-96376008I-1008J0D01*
G01*
G37*
G36*
G01*
X169399995Y-96376008D02*
X169100005Y-96376008D01*
G75*
G02*
X169098997Y-96375000I0J1008D01*
G01*
X169098997Y-95625000D01*
G75*
G02*
X169100005Y-95623992I1008J0D01*
G01*
X169399995Y-95623992D01*
G75*
G02*
X169401003Y-95625000I0J-1008D01*
G01*
X169401003Y-96375000D01*
G75*
G02*
X169399995Y-96376008I-1008J0D01*
G01*
G37*
G36*
G01*
X168899995Y-96376008D02*
X168600005Y-96376008D01*
G75*
G02*
X168598997Y-96375000I0J1008D01*
G01*
X168598997Y-95625000D01*
G75*
G02*
X168600005Y-95623992I1008J0D01*
G01*
X168899995Y-95623992D01*
G75*
G02*
X168901003Y-95625000I0J-1008D01*
G01*
X168901003Y-96375000D01*
G75*
G02*
X168899995Y-96376008I-1008J0D01*
G01*
G37*
G36*
G01*
X168399995Y-96376008D02*
X168100005Y-96376008D01*
G75*
G02*
X168098997Y-96375000I0J1008D01*
G01*
X168098997Y-95625000D01*
G75*
G02*
X168100005Y-95623992I1008J0D01*
G01*
X168399995Y-95623992D01*
G75*
G02*
X168401003Y-95625000I0J-1008D01*
G01*
X168401003Y-96375000D01*
G75*
G02*
X168399995Y-96376008I-1008J0D01*
G01*
G37*
G36*
G01*
X168399995Y-99376008D02*
X168100005Y-99376008D01*
G75*
G02*
X168098997Y-99375000I0J1008D01*
G01*
X168098997Y-98625000D01*
G75*
G02*
X168100005Y-98623992I1008J0D01*
G01*
X168399995Y-98623992D01*
G75*
G02*
X168401003Y-98625000I0J-1008D01*
G01*
X168401003Y-99375000D01*
G75*
G02*
X168399995Y-99376008I-1008J0D01*
G01*
G37*
G36*
G01*
X168899995Y-99376008D02*
X168600005Y-99376008D01*
G75*
G02*
X168598997Y-99375000I0J1008D01*
G01*
X168598997Y-98625000D01*
G75*
G02*
X168600005Y-98623992I1008J0D01*
G01*
X168899995Y-98623992D01*
G75*
G02*
X168901003Y-98625000I0J-1008D01*
G01*
X168901003Y-99375000D01*
G75*
G02*
X168899995Y-99376008I-1008J0D01*
G01*
G37*
G36*
G01*
X169399995Y-99376008D02*
X169100005Y-99376008D01*
G75*
G02*
X169098997Y-99375000I0J1008D01*
G01*
X169098997Y-98625000D01*
G75*
G02*
X169100005Y-98623992I1008J0D01*
G01*
X169399995Y-98623992D01*
G75*
G02*
X169401003Y-98625000I0J-1008D01*
G01*
X169401003Y-99375000D01*
G75*
G02*
X169399995Y-99376008I-1008J0D01*
G01*
G37*
G36*
G01*
X169899995Y-99376008D02*
X169600005Y-99376008D01*
G75*
G02*
X169598997Y-99375000I0J1008D01*
G01*
X169598997Y-98625000D01*
G75*
G02*
X169600005Y-98623992I1008J0D01*
G01*
X169899995Y-98623992D01*
G75*
G02*
X169901003Y-98625000I0J-1008D01*
G01*
X169901003Y-99375000D01*
G75*
G02*
X169899995Y-99376008I-1008J0D01*
G01*
G37*
G36*
G01*
X155066149Y-105835894D02*
X155066149Y-106336906D01*
G75*
G02*
X154840645Y-106562410I-225504J0D01*
G01*
X154389635Y-106562410D01*
G75*
G02*
X154164131Y-106336906I0J225504D01*
G01*
X154164131Y-105835894D01*
G75*
G02*
X154389635Y-105610390I225504J0D01*
G01*
X154840645Y-105610390D01*
G75*
G02*
X155066149Y-105835894I0J-225504D01*
G01*
G37*
G36*
G01*
X153516149Y-105835894D02*
X153516149Y-106336906D01*
G75*
G02*
X153290645Y-106562410I-225504J0D01*
G01*
X152839635Y-106562410D01*
G75*
G02*
X152614131Y-106336906I0J225504D01*
G01*
X152614131Y-105835894D01*
G75*
G02*
X152839635Y-105610390I225504J0D01*
G01*
X153290645Y-105610390D01*
G75*
G02*
X153516149Y-105835894I0J-225504D01*
G01*
G37*
G36*
G01*
X145420131Y-111155286D02*
X145420131Y-110654274D01*
G75*
G02*
X145645635Y-110428770I225504J0D01*
G01*
X146096645Y-110428770D01*
G75*
G02*
X146322149Y-110654274I0J-225504D01*
G01*
X146322149Y-111155286D01*
G75*
G02*
X146096645Y-111380790I-225504J0D01*
G01*
X145645635Y-111380790D01*
G75*
G02*
X145420131Y-111155286I0J225504D01*
G01*
G37*
G36*
G01*
X143870131Y-111155286D02*
X143870131Y-110654274D01*
G75*
G02*
X144095635Y-110428770I225504J0D01*
G01*
X144546645Y-110428770D01*
G75*
G02*
X144772149Y-110654274I0J-225504D01*
G01*
X144772149Y-111155286D01*
G75*
G02*
X144546645Y-111380790I-225504J0D01*
G01*
X144095635Y-111380790D01*
G75*
G02*
X143870131Y-111155286I0J225504D01*
G01*
G37*
G36*
G01*
X156980409Y-108374940D02*
X156980409Y-108875952D01*
G75*
G02*
X156754905Y-109101456I-225504J0D01*
G01*
X156303895Y-109101456D01*
G75*
G02*
X156078391Y-108875952I0J225504D01*
G01*
X156078391Y-108374940D01*
G75*
G02*
X156303895Y-108149436I225504J0D01*
G01*
X156754905Y-108149436D01*
G75*
G02*
X156980409Y-108374940I0J-225504D01*
G01*
G37*
G36*
G01*
X158530409Y-108374940D02*
X158530409Y-108875952D01*
G75*
G02*
X158304905Y-109101456I-225504J0D01*
G01*
X157853895Y-109101456D01*
G75*
G02*
X157628391Y-108875952I0J225504D01*
G01*
X157628391Y-108374940D01*
G75*
G02*
X157853895Y-108149436I225504J0D01*
G01*
X158304905Y-108149436D01*
G75*
G02*
X158530409Y-108374940I0J-225504D01*
G01*
G37*
G36*
G01*
X156078391Y-105940348D02*
X156078391Y-105439336D01*
G75*
G02*
X156303895Y-105213832I225504J0D01*
G01*
X156754905Y-105213832D01*
G75*
G02*
X156980409Y-105439336I0J-225504D01*
G01*
X156980409Y-105940348D01*
G75*
G02*
X156754905Y-106165852I-225504J0D01*
G01*
X156303895Y-106165852D01*
G75*
G02*
X156078391Y-105940348I0J225504D01*
G01*
G37*
G36*
G01*
X157628391Y-105940348D02*
X157628391Y-105439336D01*
G75*
G02*
X157853895Y-105213832I225504J0D01*
G01*
X158304905Y-105213832D01*
G75*
G02*
X158530409Y-105439336I0J-225504D01*
G01*
X158530409Y-105940348D01*
G75*
G02*
X158304905Y-106165852I-225504J0D01*
G01*
X157853895Y-106165852D01*
G75*
G02*
X157628391Y-105940348I0J225504D01*
G01*
G37*
G36*
G01*
X157628391Y-113279358D02*
X157628391Y-112778346D01*
G75*
G02*
X157853895Y-112552842I225504J0D01*
G01*
X158304905Y-112552842D01*
G75*
G02*
X158530409Y-112778346I0J-225504D01*
G01*
X158530409Y-113279358D01*
G75*
G02*
X158304905Y-113504862I-225504J0D01*
G01*
X157853895Y-113504862D01*
G75*
G02*
X157628391Y-113279358I0J225504D01*
G01*
G37*
G36*
G01*
X156078391Y-113279358D02*
X156078391Y-112778346D01*
G75*
G02*
X156303895Y-112552842I225504J0D01*
G01*
X156754905Y-112552842D01*
G75*
G02*
X156980409Y-112778346I0J-225504D01*
G01*
X156980409Y-113279358D01*
G75*
G02*
X156754905Y-113504862I-225504J0D01*
G01*
X156303895Y-113504862D01*
G75*
G02*
X156078391Y-113279358I0J225504D01*
G01*
G37*
G36*
G01*
X158530409Y-111310544D02*
X158530409Y-111811556D01*
G75*
G02*
X158304905Y-112037060I-225504J0D01*
G01*
X157853895Y-112037060D01*
G75*
G02*
X157628391Y-111811556I0J225504D01*
G01*
X157628391Y-111310544D01*
G75*
G02*
X157853895Y-111085040I225504J0D01*
G01*
X158304905Y-111085040D01*
G75*
G02*
X158530409Y-111310544I0J-225504D01*
G01*
G37*
G36*
G01*
X156980409Y-111310544D02*
X156980409Y-111811556D01*
G75*
G02*
X156754905Y-112037060I-225504J0D01*
G01*
X156303895Y-112037060D01*
G75*
G02*
X156078391Y-111811556I0J225504D01*
G01*
X156078391Y-111310544D01*
G75*
G02*
X156303895Y-111085040I225504J0D01*
G01*
X156754905Y-111085040D01*
G75*
G02*
X156980409Y-111310544I0J-225504D01*
G01*
G37*
G36*
G01*
X156980409Y-109842742D02*
X156980409Y-110343754D01*
G75*
G02*
X156754905Y-110569258I-225504J0D01*
G01*
X156303895Y-110569258D01*
G75*
G02*
X156078391Y-110343754I0J225504D01*
G01*
X156078391Y-109842742D01*
G75*
G02*
X156303895Y-109617238I225504J0D01*
G01*
X156754905Y-109617238D01*
G75*
G02*
X156980409Y-109842742I0J-225504D01*
G01*
G37*
G36*
G01*
X158530409Y-109842742D02*
X158530409Y-110343754D01*
G75*
G02*
X158304905Y-110569258I-225504J0D01*
G01*
X157853895Y-110569258D01*
G75*
G02*
X157628391Y-110343754I0J225504D01*
G01*
X157628391Y-109842742D01*
G75*
G02*
X157853895Y-109617238I225504J0D01*
G01*
X158304905Y-109617238D01*
G75*
G02*
X158530409Y-109842742I0J-225504D01*
G01*
G37*
G36*
G01*
X156980409Y-106907138D02*
X156980409Y-107408150D01*
G75*
G02*
X156754905Y-107633654I-225504J0D01*
G01*
X156303895Y-107633654D01*
G75*
G02*
X156078391Y-107408150I0J225504D01*
G01*
X156078391Y-106907138D01*
G75*
G02*
X156303895Y-106681634I225504J0D01*
G01*
X156754905Y-106681634D01*
G75*
G02*
X156980409Y-106907138I0J-225504D01*
G01*
G37*
G36*
G01*
X158530409Y-106907138D02*
X158530409Y-107408150D01*
G75*
G02*
X158304905Y-107633654I-225504J0D01*
G01*
X157853895Y-107633654D01*
G75*
G02*
X157628391Y-107408150I0J225504D01*
G01*
X157628391Y-106907138D01*
G75*
G02*
X157853895Y-106681634I225504J0D01*
G01*
X158304905Y-106681634D01*
G75*
G02*
X158530409Y-106907138I0J-225504D01*
G01*
G37*
G36*
G01*
X156078391Y-104472546D02*
X156078391Y-103971534D01*
G75*
G02*
X156303895Y-103746030I225504J0D01*
G01*
X156754905Y-103746030D01*
G75*
G02*
X156980409Y-103971534I0J-225504D01*
G01*
X156980409Y-104472546D01*
G75*
G02*
X156754905Y-104698050I-225504J0D01*
G01*
X156303895Y-104698050D01*
G75*
G02*
X156078391Y-104472546I0J225504D01*
G01*
G37*
G36*
G01*
X157628391Y-104472546D02*
X157628391Y-103971534D01*
G75*
G02*
X157853895Y-103746030I225504J0D01*
G01*
X158304905Y-103746030D01*
G75*
G02*
X158530409Y-103971534I0J-225504D01*
G01*
X158530409Y-104472546D01*
G75*
G02*
X158304905Y-104698050I-225504J0D01*
G01*
X157853895Y-104698050D01*
G75*
G02*
X157628391Y-104472546I0J225504D01*
G01*
G37*
G36*
G01*
X158530409Y-115713950D02*
X158530409Y-116214962D01*
G75*
G02*
X158304905Y-116440466I-225504J0D01*
G01*
X157853895Y-116440466D01*
G75*
G02*
X157628391Y-116214962I0J225504D01*
G01*
X157628391Y-115713950D01*
G75*
G02*
X157853895Y-115488446I225504J0D01*
G01*
X158304905Y-115488446D01*
G75*
G02*
X158530409Y-115713950I0J-225504D01*
G01*
G37*
G36*
G01*
X156980409Y-115713950D02*
X156980409Y-116214962D01*
G75*
G02*
X156754905Y-116440466I-225504J0D01*
G01*
X156303895Y-116440466D01*
G75*
G02*
X156078391Y-116214962I0J225504D01*
G01*
X156078391Y-115713950D01*
G75*
G02*
X156303895Y-115488446I225504J0D01*
G01*
X156754905Y-115488446D01*
G75*
G02*
X156980409Y-115713950I0J-225504D01*
G01*
G37*
G36*
G01*
X157628391Y-114747160D02*
X157628391Y-114246148D01*
G75*
G02*
X157853895Y-114020644I225504J0D01*
G01*
X158304905Y-114020644D01*
G75*
G02*
X158530409Y-114246148I0J-225504D01*
G01*
X158530409Y-114747160D01*
G75*
G02*
X158304905Y-114972664I-225504J0D01*
G01*
X157853895Y-114972664D01*
G75*
G02*
X157628391Y-114747160I0J225504D01*
G01*
G37*
G36*
G01*
X156078391Y-114747160D02*
X156078391Y-114246148D01*
G75*
G02*
X156303895Y-114020644I225504J0D01*
G01*
X156754905Y-114020644D01*
G75*
G02*
X156980409Y-114246148I0J-225504D01*
G01*
X156980409Y-114747160D01*
G75*
G02*
X156754905Y-114972664I-225504J0D01*
G01*
X156303895Y-114972664D01*
G75*
G02*
X156078391Y-114747160I0J225504D01*
G01*
G37*
G36*
G01*
X152614131Y-104466465D02*
X152614131Y-103965453D01*
G75*
G02*
X152839635Y-103739949I225504J0D01*
G01*
X153290645Y-103739949D01*
G75*
G02*
X153516149Y-103965453I0J-225504D01*
G01*
X153516149Y-104466465D01*
G75*
G02*
X153290645Y-104691969I-225504J0D01*
G01*
X152839635Y-104691969D01*
G75*
G02*
X152614131Y-104466465I0J225504D01*
G01*
G37*
G36*
G01*
X154164131Y-104466465D02*
X154164131Y-103965453D01*
G75*
G02*
X154389635Y-103739949I225504J0D01*
G01*
X154840645Y-103739949D01*
G75*
G02*
X155066149Y-103965453I0J-225504D01*
G01*
X155066149Y-104466465D01*
G75*
G02*
X154840645Y-104691969I-225504J0D01*
G01*
X154389635Y-104691969D01*
G75*
G02*
X154164131Y-104466465I0J225504D01*
G01*
G37*
G36*
G01*
X148067149Y-112382497D02*
X148067149Y-113582503D01*
G75*
G02*
X148066140Y-113583512I-1009J0D01*
G01*
X147166140Y-113583512D01*
G75*
G02*
X147165131Y-113582503I0J1009D01*
G01*
X147165131Y-112382497D01*
G75*
G02*
X147166140Y-112381488I1009J0D01*
G01*
X148066140Y-112381488D01*
G75*
G02*
X148067149Y-112382497I0J-1009D01*
G01*
G37*
G36*
G01*
X144767149Y-112382497D02*
X144767149Y-113582503D01*
G75*
G02*
X144766140Y-113583512I-1009J0D01*
G01*
X143866140Y-113583512D01*
G75*
G02*
X143865131Y-113582503I0J1009D01*
G01*
X143865131Y-112382497D01*
G75*
G02*
X143866140Y-112381488I1009J0D01*
G01*
X144766140Y-112381488D01*
G75*
G02*
X144767149Y-112382497I0J-1009D01*
G01*
G37*
G36*
G01*
X150866371Y-108604103D02*
X150866371Y-107404097D01*
G75*
G02*
X150867380Y-107403088I1009J0D01*
G01*
X151767380Y-107403088D01*
G75*
G02*
X151768389Y-107404097I0J-1009D01*
G01*
X151768389Y-108604103D01*
G75*
G02*
X151767380Y-108605112I-1009J0D01*
G01*
X150867380Y-108605112D01*
G75*
G02*
X150866371Y-108604103I0J1009D01*
G01*
G37*
G36*
G01*
X154166371Y-108604103D02*
X154166371Y-107404097D01*
G75*
G02*
X154167380Y-107403088I1009J0D01*
G01*
X155067380Y-107403088D01*
G75*
G02*
X155068389Y-107404097I0J-1009D01*
G01*
X155068389Y-108604103D01*
G75*
G02*
X155067380Y-108605112I-1009J0D01*
G01*
X154167380Y-108605112D01*
G75*
G02*
X154166371Y-108604103I0J1009D01*
G01*
G37*
G36*
G01*
X151768389Y-109771377D02*
X151768389Y-110971383D01*
G75*
G02*
X151767380Y-110972392I-1009J0D01*
G01*
X150867380Y-110972392D01*
G75*
G02*
X150866371Y-110971383I0J1009D01*
G01*
X150866371Y-109771377D01*
G75*
G02*
X150867380Y-109770368I1009J0D01*
G01*
X151767380Y-109770368D01*
G75*
G02*
X151768389Y-109771377I0J-1009D01*
G01*
G37*
G36*
G01*
X155068389Y-109771377D02*
X155068389Y-110971383D01*
G75*
G02*
X155067380Y-110972392I-1009J0D01*
G01*
X154167380Y-110972392D01*
G75*
G02*
X154166371Y-110971383I0J1009D01*
G01*
X154166371Y-109771377D01*
G75*
G02*
X154167380Y-109770368I1009J0D01*
G01*
X155067380Y-109770368D01*
G75*
G02*
X155068389Y-109771377I0J-1009D01*
G01*
G37*
G36*
G01*
X147871494Y-106991806D02*
X149821506Y-106991806D01*
G75*
G02*
X149822520Y-106992820I0J-1014D01*
G01*
X149822520Y-108392820D01*
G75*
G02*
X149821506Y-108393834I-1014J0D01*
G01*
X147871494Y-108393834D01*
G75*
G02*
X147870480Y-108392820I0J1014D01*
G01*
X147870480Y-106992820D01*
G75*
G02*
X147871494Y-106991806I1014J0D01*
G01*
G37*
G36*
G01*
X147871494Y-109991806D02*
X149821506Y-109991806D01*
G75*
G02*
X149822520Y-109992820I0J-1014D01*
G01*
X149822520Y-111392820D01*
G75*
G02*
X149821506Y-111393834I-1014J0D01*
G01*
X147871494Y-111393834D01*
G75*
G02*
X147870480Y-111392820I0J1014D01*
G01*
X147870480Y-109992820D01*
G75*
G02*
X147871494Y-109991806I1014J0D01*
G01*
G37*
G36*
G01*
X150304494Y-113700934D02*
X151354506Y-113700934D01*
G75*
G02*
X151355511Y-113701939I0J-1005D01*
G01*
X151355511Y-114201939D01*
G75*
G02*
X151354506Y-114202944I-1005J0D01*
G01*
X150304494Y-114202944D01*
G75*
G02*
X150303489Y-114201939I0J1005D01*
G01*
X150303489Y-113701939D01*
G75*
G02*
X150304494Y-113700934I1005J0D01*
G01*
G37*
G36*
G01*
X150304494Y-112400934D02*
X151354506Y-112400934D01*
G75*
G02*
X151355511Y-112401939I0J-1005D01*
G01*
X151355511Y-112901939D01*
G75*
G02*
X151354506Y-112902944I-1005J0D01*
G01*
X150304494Y-112902944D01*
G75*
G02*
X150303489Y-112901939I0J1005D01*
G01*
X150303489Y-112401939D01*
G75*
G02*
X150304494Y-112400934I1005J0D01*
G01*
G37*
G36*
G01*
X152404494Y-113050934D02*
X153454506Y-113050934D01*
G75*
G02*
X153455511Y-113051939I0J-1005D01*
G01*
X153455511Y-113551939D01*
G75*
G02*
X153454506Y-113552944I-1005J0D01*
G01*
X152404494Y-113552944D01*
G75*
G02*
X152403489Y-113551939I0J1005D01*
G01*
X152403489Y-113051939D01*
G75*
G02*
X152404494Y-113050934I1005J0D01*
G01*
G37*
G36*
G01*
X149447126Y-114538508D02*
X148896114Y-114538508D01*
G75*
G02*
X148695610Y-114338004I0J200504D01*
G01*
X148695610Y-113936996D01*
G75*
G02*
X148896114Y-113736492I200504J0D01*
G01*
X149447126Y-113736492D01*
G75*
G02*
X149647630Y-113936996I0J-200504D01*
G01*
X149647630Y-114338004D01*
G75*
G02*
X149447126Y-114538508I-200504J0D01*
G01*
G37*
G36*
G01*
X149447126Y-112888508D02*
X148896114Y-112888508D01*
G75*
G02*
X148695610Y-112688004I0J200504D01*
G01*
X148695610Y-112286996D01*
G75*
G02*
X148896114Y-112086492I200504J0D01*
G01*
X149447126Y-112086492D01*
G75*
G02*
X149647630Y-112286996I0J-200504D01*
G01*
X149647630Y-112688004D01*
G75*
G02*
X149447126Y-112888508I-200504J0D01*
G01*
G37*
G36*
G01*
X154311874Y-113725931D02*
X154862886Y-113725931D01*
G75*
G02*
X155063390Y-113926435I0J-200504D01*
G01*
X155063390Y-114327443D01*
G75*
G02*
X154862886Y-114527947I-200504J0D01*
G01*
X154311874Y-114527947D01*
G75*
G02*
X154111370Y-114327443I0J200504D01*
G01*
X154111370Y-113926435D01*
G75*
G02*
X154311874Y-113725931I200504J0D01*
G01*
G37*
G36*
G01*
X154311874Y-112075931D02*
X154862886Y-112075931D01*
G75*
G02*
X155063390Y-112276435I0J-200504D01*
G01*
X155063390Y-112677443D01*
G75*
G02*
X154862886Y-112877947I-200504J0D01*
G01*
X154311874Y-112877947D01*
G75*
G02*
X154111370Y-112677443I0J200504D01*
G01*
X154111370Y-112276435D01*
G75*
G02*
X154311874Y-112075931I200504J0D01*
G01*
G37*
G36*
G01*
X161641795Y-104069057D02*
X162441805Y-104069057D01*
G75*
G02*
X162442808Y-104070060I0J-1003D01*
G01*
X162442808Y-104370060D01*
G75*
G02*
X162441805Y-104371063I-1003J0D01*
G01*
X161641795Y-104371063D01*
G75*
G02*
X161640792Y-104370060I0J1003D01*
G01*
X161640792Y-104070060D01*
G75*
G02*
X161641795Y-104069057I1003J0D01*
G01*
G37*
G36*
G01*
X161641795Y-104569057D02*
X162441805Y-104569057D01*
G75*
G02*
X162442808Y-104570060I0J-1003D01*
G01*
X162442808Y-104870060D01*
G75*
G02*
X162441805Y-104871063I-1003J0D01*
G01*
X161641795Y-104871063D01*
G75*
G02*
X161640792Y-104870060I0J1003D01*
G01*
X161640792Y-104570060D01*
G75*
G02*
X161641795Y-104569057I1003J0D01*
G01*
G37*
G36*
G01*
X161641795Y-105069057D02*
X162441805Y-105069057D01*
G75*
G02*
X162442808Y-105070060I0J-1003D01*
G01*
X162442808Y-105370060D01*
G75*
G02*
X162441805Y-105371063I-1003J0D01*
G01*
X161641795Y-105371063D01*
G75*
G02*
X161640792Y-105370060I0J1003D01*
G01*
X161640792Y-105070060D01*
G75*
G02*
X161641795Y-105069057I1003J0D01*
G01*
G37*
G36*
G01*
X161641795Y-105569057D02*
X162441805Y-105569057D01*
G75*
G02*
X162442808Y-105570060I0J-1003D01*
G01*
X162442808Y-105870060D01*
G75*
G02*
X162441805Y-105871063I-1003J0D01*
G01*
X161641795Y-105871063D01*
G75*
G02*
X161640792Y-105870060I0J1003D01*
G01*
X161640792Y-105570060D01*
G75*
G02*
X161641795Y-105569057I1003J0D01*
G01*
G37*
G36*
G01*
X161641795Y-106069057D02*
X162441805Y-106069057D01*
G75*
G02*
X162442808Y-106070060I0J-1003D01*
G01*
X162442808Y-106370060D01*
G75*
G02*
X162441805Y-106371063I-1003J0D01*
G01*
X161641795Y-106371063D01*
G75*
G02*
X161640792Y-106370060I0J1003D01*
G01*
X161640792Y-106070060D01*
G75*
G02*
X161641795Y-106069057I1003J0D01*
G01*
G37*
G36*
G01*
X161641795Y-106569057D02*
X162441805Y-106569057D01*
G75*
G02*
X162442808Y-106570060I0J-1003D01*
G01*
X162442808Y-106870060D01*
G75*
G02*
X162441805Y-106871063I-1003J0D01*
G01*
X161641795Y-106871063D01*
G75*
G02*
X161640792Y-106870060I0J1003D01*
G01*
X161640792Y-106570060D01*
G75*
G02*
X161641795Y-106569057I1003J0D01*
G01*
G37*
G36*
G01*
X161641795Y-107069057D02*
X162441805Y-107069057D01*
G75*
G02*
X162442808Y-107070060I0J-1003D01*
G01*
X162442808Y-107370060D01*
G75*
G02*
X162441805Y-107371063I-1003J0D01*
G01*
X161641795Y-107371063D01*
G75*
G02*
X161640792Y-107370060I0J1003D01*
G01*
X161640792Y-107070060D01*
G75*
G02*
X161641795Y-107069057I1003J0D01*
G01*
G37*
G36*
G01*
X161641795Y-107569057D02*
X162441805Y-107569057D01*
G75*
G02*
X162442808Y-107570060I0J-1003D01*
G01*
X162442808Y-107870060D01*
G75*
G02*
X162441805Y-107871063I-1003J0D01*
G01*
X161641795Y-107871063D01*
G75*
G02*
X161640792Y-107870060I0J1003D01*
G01*
X161640792Y-107570060D01*
G75*
G02*
X161641795Y-107569057I1003J0D01*
G01*
G37*
G36*
G01*
X161641795Y-108069057D02*
X162441805Y-108069057D01*
G75*
G02*
X162442808Y-108070060I0J-1003D01*
G01*
X162442808Y-108370060D01*
G75*
G02*
X162441805Y-108371063I-1003J0D01*
G01*
X161641795Y-108371063D01*
G75*
G02*
X161640792Y-108370060I0J1003D01*
G01*
X161640792Y-108070060D01*
G75*
G02*
X161641795Y-108069057I1003J0D01*
G01*
G37*
G36*
G01*
X161641795Y-108569057D02*
X162441805Y-108569057D01*
G75*
G02*
X162442808Y-108570060I0J-1003D01*
G01*
X162442808Y-108870060D01*
G75*
G02*
X162441805Y-108871063I-1003J0D01*
G01*
X161641795Y-108871063D01*
G75*
G02*
X161640792Y-108870060I0J1003D01*
G01*
X161640792Y-108570060D01*
G75*
G02*
X161641795Y-108569057I1003J0D01*
G01*
G37*
G36*
G01*
X161641795Y-109069057D02*
X162441805Y-109069057D01*
G75*
G02*
X162442808Y-109070060I0J-1003D01*
G01*
X162442808Y-109370060D01*
G75*
G02*
X162441805Y-109371063I-1003J0D01*
G01*
X161641795Y-109371063D01*
G75*
G02*
X161640792Y-109370060I0J1003D01*
G01*
X161640792Y-109070060D01*
G75*
G02*
X161641795Y-109069057I1003J0D01*
G01*
G37*
G36*
G01*
X161641795Y-109569057D02*
X162441805Y-109569057D01*
G75*
G02*
X162442808Y-109570060I0J-1003D01*
G01*
X162442808Y-109870060D01*
G75*
G02*
X162441805Y-109871063I-1003J0D01*
G01*
X161641795Y-109871063D01*
G75*
G02*
X161640792Y-109870060I0J1003D01*
G01*
X161640792Y-109570060D01*
G75*
G02*
X161641795Y-109569057I1003J0D01*
G01*
G37*
G36*
G01*
X161641795Y-110069057D02*
X162441805Y-110069057D01*
G75*
G02*
X162442808Y-110070060I0J-1003D01*
G01*
X162442808Y-110370060D01*
G75*
G02*
X162441805Y-110371063I-1003J0D01*
G01*
X161641795Y-110371063D01*
G75*
G02*
X161640792Y-110370060I0J1003D01*
G01*
X161640792Y-110070060D01*
G75*
G02*
X161641795Y-110069057I1003J0D01*
G01*
G37*
G36*
G01*
X161641795Y-110569057D02*
X162441805Y-110569057D01*
G75*
G02*
X162442808Y-110570060I0J-1003D01*
G01*
X162442808Y-110870060D01*
G75*
G02*
X162441805Y-110871063I-1003J0D01*
G01*
X161641795Y-110871063D01*
G75*
G02*
X161640792Y-110870060I0J1003D01*
G01*
X161640792Y-110570060D01*
G75*
G02*
X161641795Y-110569057I1003J0D01*
G01*
G37*
G36*
G01*
X161641795Y-111069057D02*
X162441805Y-111069057D01*
G75*
G02*
X162442808Y-111070060I0J-1003D01*
G01*
X162442808Y-111370060D01*
G75*
G02*
X162441805Y-111371063I-1003J0D01*
G01*
X161641795Y-111371063D01*
G75*
G02*
X161640792Y-111370060I0J1003D01*
G01*
X161640792Y-111070060D01*
G75*
G02*
X161641795Y-111069057I1003J0D01*
G01*
G37*
G36*
G01*
X161641795Y-111569057D02*
X162441805Y-111569057D01*
G75*
G02*
X162442808Y-111570060I0J-1003D01*
G01*
X162442808Y-111870060D01*
G75*
G02*
X162441805Y-111871063I-1003J0D01*
G01*
X161641795Y-111871063D01*
G75*
G02*
X161640792Y-111870060I0J1003D01*
G01*
X161640792Y-111570060D01*
G75*
G02*
X161641795Y-111569057I1003J0D01*
G01*
G37*
G36*
G01*
X161641795Y-112069057D02*
X162441805Y-112069057D01*
G75*
G02*
X162442808Y-112070060I0J-1003D01*
G01*
X162442808Y-112370060D01*
G75*
G02*
X162441805Y-112371063I-1003J0D01*
G01*
X161641795Y-112371063D01*
G75*
G02*
X161640792Y-112370060I0J1003D01*
G01*
X161640792Y-112070060D01*
G75*
G02*
X161641795Y-112069057I1003J0D01*
G01*
G37*
G36*
G01*
X161641795Y-112569057D02*
X162441805Y-112569057D01*
G75*
G02*
X162442808Y-112570060I0J-1003D01*
G01*
X162442808Y-112870060D01*
G75*
G02*
X162441805Y-112871063I-1003J0D01*
G01*
X161641795Y-112871063D01*
G75*
G02*
X161640792Y-112870060I0J1003D01*
G01*
X161640792Y-112570060D01*
G75*
G02*
X161641795Y-112569057I1003J0D01*
G01*
G37*
G36*
G01*
X161641795Y-113069057D02*
X162441805Y-113069057D01*
G75*
G02*
X162442808Y-113070060I0J-1003D01*
G01*
X162442808Y-113370060D01*
G75*
G02*
X162441805Y-113371063I-1003J0D01*
G01*
X161641795Y-113371063D01*
G75*
G02*
X161640792Y-113370060I0J1003D01*
G01*
X161640792Y-113070060D01*
G75*
G02*
X161641795Y-113069057I1003J0D01*
G01*
G37*
G36*
G01*
X161641795Y-113569057D02*
X162441805Y-113569057D01*
G75*
G02*
X162442808Y-113570060I0J-1003D01*
G01*
X162442808Y-113870060D01*
G75*
G02*
X162441805Y-113871063I-1003J0D01*
G01*
X161641795Y-113871063D01*
G75*
G02*
X161640792Y-113870060I0J1003D01*
G01*
X161640792Y-113570060D01*
G75*
G02*
X161641795Y-113569057I1003J0D01*
G01*
G37*
G36*
G01*
X161641795Y-114069057D02*
X162441805Y-114069057D01*
G75*
G02*
X162442808Y-114070060I0J-1003D01*
G01*
X162442808Y-114370060D01*
G75*
G02*
X162441805Y-114371063I-1003J0D01*
G01*
X161641795Y-114371063D01*
G75*
G02*
X161640792Y-114370060I0J1003D01*
G01*
X161640792Y-114070060D01*
G75*
G02*
X161641795Y-114069057I1003J0D01*
G01*
G37*
G36*
G01*
X161641795Y-114569057D02*
X162441805Y-114569057D01*
G75*
G02*
X162442808Y-114570060I0J-1003D01*
G01*
X162442808Y-114870060D01*
G75*
G02*
X162441805Y-114871063I-1003J0D01*
G01*
X161641795Y-114871063D01*
G75*
G02*
X161640792Y-114870060I0J1003D01*
G01*
X161640792Y-114570060D01*
G75*
G02*
X161641795Y-114569057I1003J0D01*
G01*
G37*
G36*
G01*
X161641795Y-115069057D02*
X162441805Y-115069057D01*
G75*
G02*
X162442808Y-115070060I0J-1003D01*
G01*
X162442808Y-115370060D01*
G75*
G02*
X162441805Y-115371063I-1003J0D01*
G01*
X161641795Y-115371063D01*
G75*
G02*
X161640792Y-115370060I0J1003D01*
G01*
X161640792Y-115070060D01*
G75*
G02*
X161641795Y-115069057I1003J0D01*
G01*
G37*
G36*
G01*
X161641795Y-115569057D02*
X162441805Y-115569057D01*
G75*
G02*
X162442808Y-115570060I0J-1003D01*
G01*
X162442808Y-115870060D01*
G75*
G02*
X162441805Y-115871063I-1003J0D01*
G01*
X161641795Y-115871063D01*
G75*
G02*
X161640792Y-115870060I0J1003D01*
G01*
X161640792Y-115570060D01*
G75*
G02*
X161641795Y-115569057I1003J0D01*
G01*
G37*
M02*
