%TF.GenerationSoftware,KiCad,Pcbnew,5.1.9-73d0e3b20d~88~ubuntu20.04.1*%
%TF.CreationDate,2021-03-21T00:06:11+05:30*%
%TF.ProjectId,kimchi-epaper-lid,6b696d63-6869-42d6-9570-617065722d6c,v0.1*%
%TF.SameCoordinates,Original*%
%TF.FileFunction,Copper,L1,Top*%
%TF.FilePolarity,Positive*%
%FSLAX46Y46*%
G04 Gerber Fmt 4.6, Leading zero omitted, Abs format (unit mm)*
G04 Created by KiCad (PCBNEW 5.1.9-73d0e3b20d~88~ubuntu20.04.1) date 2021-03-21 00:06:11*
%MOMM*%
%LPD*%
G01*
G04 APERTURE LIST*
%TA.AperFunction,ComponentPad*%
%ADD10C,5.000000*%
%TD*%
%TA.AperFunction,ViaPad*%
%ADD11C,0.500000*%
%TD*%
%TA.AperFunction,ViaPad*%
%ADD12C,0.457200*%
%TD*%
%TA.AperFunction,Conductor*%
%ADD13C,0.254000*%
%TD*%
%TA.AperFunction,Conductor*%
%ADD14C,0.200000*%
%TD*%
G04 APERTURE END LIST*
D10*
X142600000Y-122100000D03*
X142600000Y-97900000D03*
X118450000Y-122100000D03*
X118450000Y-97900000D03*
D11*
X154492920Y-96985580D03*
X155585120Y-96995740D03*
X156677320Y-97000820D03*
X169179200Y-94656400D03*
X170380620Y-96617280D03*
X157769520Y-96998280D03*
X150423840Y-122987560D03*
X151302680Y-122992640D03*
X152181520Y-123007880D03*
X153060360Y-123000260D03*
X155557180Y-105014520D03*
X155554640Y-103884220D03*
X155790860Y-107894880D03*
X157187860Y-107892340D03*
X155562260Y-110790480D03*
X155562260Y-112015606D03*
X155562260Y-113240732D03*
X155562260Y-114465860D03*
D12*
X155887380Y-123002800D03*
X157109120Y-122992640D03*
X157129440Y-125423420D03*
X155821340Y-125390400D03*
X156498250Y-122982480D03*
X169750000Y-95200000D03*
X169750000Y-100050000D03*
X156475390Y-125406910D03*
D11*
X164729120Y-108212380D03*
X154614840Y-102860600D03*
X148846500Y-106068620D03*
D12*
X153164500Y-96995740D03*
X168335920Y-94918020D03*
X148079420Y-94549720D03*
X160797200Y-109220760D03*
X149100500Y-94549720D03*
D11*
X163169560Y-110221520D03*
D12*
X150169840Y-94549720D03*
D11*
X163857900Y-109718600D03*
X160865780Y-111246410D03*
X148773284Y-122993746D03*
X160865780Y-111776000D03*
X149097960Y-125398020D03*
X160865780Y-110716820D03*
X147772080Y-122992640D03*
D13*
X168325760Y-94928180D02*
X168335920Y-94918020D01*
X155242220Y-94918020D02*
X153164500Y-96995740D01*
X168335920Y-94918020D02*
X155242220Y-94918020D01*
D14*
X160797200Y-107597700D02*
X160797200Y-109220760D01*
X148079420Y-94879920D02*
X160797200Y-107597700D01*
X148079420Y-94549720D02*
X148079420Y-94879920D01*
X163169560Y-109507598D02*
X163169560Y-110221520D01*
X149100500Y-94549720D02*
X149100500Y-95438538D01*
X149100500Y-95438538D02*
X163169560Y-109507598D01*
X150169840Y-96030540D02*
X163857900Y-109718600D01*
X150169840Y-94549720D02*
X150169840Y-96030540D01*
D13*
X148773284Y-122560396D02*
X148773284Y-122993746D01*
X160087270Y-111246410D02*
X148773284Y-122560396D01*
X160865780Y-111246410D02*
X160087270Y-111246410D01*
X160865780Y-111776000D02*
X160096508Y-111776000D01*
X149621200Y-122251308D02*
X149621200Y-123002800D01*
X160096508Y-111776000D02*
X149621200Y-122251308D01*
X149621200Y-124874780D02*
X149097960Y-125398020D01*
X149621200Y-123002800D02*
X149621200Y-124874780D01*
X160047900Y-110716820D02*
X147772080Y-122992640D01*
X160865780Y-110716820D02*
X160047900Y-110716820D01*
M02*
