%TF.GenerationSoftware,KiCad,Pcbnew,5.1.9-73d0e3b20d~88~ubuntu20.04.1*%
%TF.CreationDate,2021-03-21T00:06:11+05:30*%
%TF.ProjectId,kimchi-epaper-lid,6b696d63-6869-42d6-9570-617065722d6c,v0.1*%
%TF.SameCoordinates,Original*%
%TF.FileFunction,Copper,L3,Inr*%
%TF.FilePolarity,Positive*%
%FSLAX46Y46*%
G04 Gerber Fmt 4.6, Leading zero omitted, Abs format (unit mm)*
G04 Created by KiCad (PCBNEW 5.1.9-73d0e3b20d~88~ubuntu20.04.1) date 2021-03-21 00:06:11*
%MOMM*%
%LPD*%
G01*
G04 APERTURE LIST*
%TA.AperFunction,ComponentPad*%
%ADD10C,5.000000*%
%TD*%
%TA.AperFunction,ViaPad*%
%ADD11C,0.500000*%
%TD*%
%TA.AperFunction,ViaPad*%
%ADD12C,0.457200*%
%TD*%
%TA.AperFunction,Conductor*%
%ADD13C,0.254000*%
%TD*%
%TA.AperFunction,Conductor*%
%ADD14C,0.100000*%
%TD*%
G04 APERTURE END LIST*
D10*
X142600000Y-122100000D03*
X142600000Y-97900000D03*
X118450000Y-122100000D03*
X118450000Y-97900000D03*
D11*
X154492920Y-96985580D03*
X155585120Y-96995740D03*
X156677320Y-97000820D03*
X169179200Y-94656400D03*
X170380620Y-96617280D03*
X157769520Y-96998280D03*
X150423840Y-122987560D03*
X151302680Y-122992640D03*
X152181520Y-123007880D03*
X153060360Y-123000260D03*
X155557180Y-105014520D03*
X155554640Y-103884220D03*
X155790860Y-107894880D03*
X157187860Y-107892340D03*
X155562260Y-110790480D03*
X155562260Y-112015606D03*
X155562260Y-113240732D03*
X155562260Y-114465860D03*
D12*
X155887380Y-123002800D03*
X157109120Y-122992640D03*
X157129440Y-125423420D03*
X155821340Y-125390400D03*
X156498250Y-122982480D03*
X169750000Y-95200000D03*
X169750000Y-100050000D03*
X156475390Y-125406910D03*
D11*
X164729120Y-108212380D03*
X154614840Y-102860600D03*
X148846500Y-106068620D03*
D12*
X153164500Y-96995740D03*
X168335920Y-94918020D03*
X148079420Y-94549720D03*
X160797200Y-109220760D03*
X149100500Y-94549720D03*
D11*
X163169560Y-110221520D03*
D12*
X150169840Y-94549720D03*
D11*
X163857900Y-109718600D03*
X160865780Y-111246410D03*
X148773284Y-122993746D03*
X160865780Y-111776000D03*
X149097960Y-125398020D03*
X160865780Y-110716820D03*
X147772080Y-122992640D03*
D13*
X147615366Y-94408951D02*
X147596820Y-94502188D01*
X147596820Y-94597252D01*
X147615366Y-94690489D01*
X147651746Y-94778317D01*
X147704560Y-94857360D01*
X147771780Y-94924580D01*
X147850823Y-94977394D01*
X147938651Y-95013774D01*
X148031888Y-95032320D01*
X148126952Y-95032320D01*
X148220189Y-95013774D01*
X148308017Y-94977394D01*
X148387060Y-94924580D01*
X148454280Y-94857360D01*
X148507094Y-94778317D01*
X148543474Y-94690489D01*
X148562020Y-94597252D01*
X148562020Y-94502188D01*
X148543474Y-94408951D01*
X148510357Y-94329000D01*
X148669563Y-94329000D01*
X148636446Y-94408951D01*
X148617900Y-94502188D01*
X148617900Y-94597252D01*
X148636446Y-94690489D01*
X148672826Y-94778317D01*
X148725640Y-94857360D01*
X148792860Y-94924580D01*
X148871903Y-94977394D01*
X148959731Y-95013774D01*
X149052968Y-95032320D01*
X149148032Y-95032320D01*
X149241269Y-95013774D01*
X149329097Y-94977394D01*
X149408140Y-94924580D01*
X149475360Y-94857360D01*
X149528174Y-94778317D01*
X149564554Y-94690489D01*
X149583100Y-94597252D01*
X149583100Y-94502188D01*
X149564554Y-94408951D01*
X149531437Y-94329000D01*
X149738903Y-94329000D01*
X149705786Y-94408951D01*
X149687240Y-94502188D01*
X149687240Y-94597252D01*
X149705786Y-94690489D01*
X149742166Y-94778317D01*
X149794980Y-94857360D01*
X149862200Y-94924580D01*
X149941243Y-94977394D01*
X150029071Y-95013774D01*
X150122308Y-95032320D01*
X150217372Y-95032320D01*
X150310609Y-95013774D01*
X150398437Y-94977394D01*
X150477480Y-94924580D01*
X150544700Y-94857360D01*
X150597514Y-94778317D01*
X150633894Y-94690489D01*
X150652440Y-94597252D01*
X150652440Y-94502188D01*
X150633894Y-94408951D01*
X150600777Y-94329000D01*
X168793835Y-94329000D01*
X168787717Y-94335118D01*
X168732561Y-94417666D01*
X168694568Y-94509389D01*
X168680502Y-94580102D01*
X168643560Y-94543160D01*
X168564517Y-94490346D01*
X168476689Y-94453966D01*
X168383452Y-94435420D01*
X168288388Y-94435420D01*
X168195151Y-94453966D01*
X168107323Y-94490346D01*
X168028280Y-94543160D01*
X167961060Y-94610380D01*
X167908246Y-94689423D01*
X167871866Y-94777251D01*
X167853320Y-94870488D01*
X167853320Y-94965552D01*
X167871866Y-95058789D01*
X167908246Y-95146617D01*
X167961060Y-95225660D01*
X168028280Y-95292880D01*
X168107323Y-95345694D01*
X168195151Y-95382074D01*
X168288388Y-95400620D01*
X168383452Y-95400620D01*
X168476689Y-95382074D01*
X168564517Y-95345694D01*
X168643560Y-95292880D01*
X168710780Y-95225660D01*
X168763594Y-95146617D01*
X168799974Y-95058789D01*
X168811397Y-95001362D01*
X168857918Y-95047883D01*
X168940466Y-95103039D01*
X169032189Y-95141032D01*
X169129560Y-95160400D01*
X169228840Y-95160400D01*
X169326211Y-95141032D01*
X169417934Y-95103039D01*
X169500482Y-95047883D01*
X169570683Y-94977682D01*
X169625839Y-94895134D01*
X169663832Y-94803411D01*
X169683200Y-94706040D01*
X169683200Y-94606760D01*
X169663832Y-94509389D01*
X169625839Y-94417666D01*
X169570683Y-94335118D01*
X169564565Y-94329000D01*
X171671000Y-94329000D01*
X171671001Y-125671000D01*
X149521717Y-125671000D01*
X149544599Y-125636754D01*
X149582592Y-125545031D01*
X149601960Y-125447660D01*
X149601960Y-125348380D01*
X149582592Y-125251009D01*
X149544599Y-125159286D01*
X149489443Y-125076738D01*
X149419242Y-125006537D01*
X149336694Y-124951381D01*
X149244971Y-124913388D01*
X149147600Y-124894020D01*
X149048320Y-124894020D01*
X148950949Y-124913388D01*
X148859226Y-124951381D01*
X148776678Y-125006537D01*
X148706477Y-125076738D01*
X148651321Y-125159286D01*
X148613328Y-125251009D01*
X148593960Y-125348380D01*
X148593960Y-125447660D01*
X148613328Y-125545031D01*
X148651321Y-125636754D01*
X148674203Y-125671000D01*
X107329000Y-125671000D01*
X107329000Y-121828755D01*
X115696000Y-121828755D01*
X115696000Y-122371245D01*
X115801835Y-122903312D01*
X116009437Y-123404508D01*
X116310829Y-123855572D01*
X116694428Y-124239171D01*
X117145492Y-124540563D01*
X117646688Y-124748165D01*
X118178755Y-124854000D01*
X118721245Y-124854000D01*
X119253312Y-124748165D01*
X119754508Y-124540563D01*
X120205572Y-124239171D01*
X120589171Y-123855572D01*
X120890563Y-123404508D01*
X121098165Y-122903312D01*
X121204000Y-122371245D01*
X121204000Y-121828755D01*
X139846000Y-121828755D01*
X139846000Y-122371245D01*
X139951835Y-122903312D01*
X140159437Y-123404508D01*
X140460829Y-123855572D01*
X140844428Y-124239171D01*
X141295492Y-124540563D01*
X141796688Y-124748165D01*
X142328755Y-124854000D01*
X142871245Y-124854000D01*
X143403312Y-124748165D01*
X143904508Y-124540563D01*
X144355572Y-124239171D01*
X144739171Y-123855572D01*
X145040563Y-123404508D01*
X145231725Y-122943000D01*
X147268080Y-122943000D01*
X147268080Y-123042280D01*
X147287448Y-123139651D01*
X147325441Y-123231374D01*
X147380597Y-123313922D01*
X147450798Y-123384123D01*
X147533346Y-123439279D01*
X147625069Y-123477272D01*
X147722440Y-123496640D01*
X147821720Y-123496640D01*
X147919091Y-123477272D01*
X148010814Y-123439279D01*
X148093362Y-123384123D01*
X148163563Y-123313922D01*
X148218719Y-123231374D01*
X148256712Y-123139651D01*
X148272572Y-123059916D01*
X148288652Y-123140757D01*
X148326645Y-123232480D01*
X148381801Y-123315028D01*
X148452002Y-123385229D01*
X148534550Y-123440385D01*
X148626273Y-123478378D01*
X148723644Y-123497746D01*
X148822924Y-123497746D01*
X148920295Y-123478378D01*
X149012018Y-123440385D01*
X149094566Y-123385229D01*
X149164767Y-123315028D01*
X149219923Y-123232480D01*
X149257916Y-123140757D01*
X149277284Y-123043386D01*
X149277284Y-122944106D01*
X149276054Y-122937920D01*
X149919840Y-122937920D01*
X149919840Y-123037200D01*
X149939208Y-123134571D01*
X149977201Y-123226294D01*
X150032357Y-123308842D01*
X150102558Y-123379043D01*
X150185106Y-123434199D01*
X150276829Y-123472192D01*
X150374200Y-123491560D01*
X150473480Y-123491560D01*
X150570851Y-123472192D01*
X150662574Y-123434199D01*
X150745122Y-123379043D01*
X150815323Y-123308842D01*
X150861563Y-123239638D01*
X150911197Y-123313922D01*
X150981398Y-123384123D01*
X151063946Y-123439279D01*
X151155669Y-123477272D01*
X151253040Y-123496640D01*
X151352320Y-123496640D01*
X151449691Y-123477272D01*
X151541414Y-123439279D01*
X151623962Y-123384123D01*
X151694163Y-123313922D01*
X151737009Y-123249798D01*
X151790037Y-123329162D01*
X151860238Y-123399363D01*
X151942786Y-123454519D01*
X152034509Y-123492512D01*
X152131880Y-123511880D01*
X152231160Y-123511880D01*
X152328531Y-123492512D01*
X152420254Y-123454519D01*
X152502802Y-123399363D01*
X152573003Y-123329162D01*
X152623486Y-123253608D01*
X152668877Y-123321542D01*
X152739078Y-123391743D01*
X152821626Y-123446899D01*
X152913349Y-123484892D01*
X153010720Y-123504260D01*
X153110000Y-123504260D01*
X153207371Y-123484892D01*
X153299094Y-123446899D01*
X153381642Y-123391743D01*
X153451843Y-123321542D01*
X153506999Y-123238994D01*
X153544992Y-123147271D01*
X153564360Y-123049900D01*
X153564360Y-122950620D01*
X153544992Y-122853249D01*
X153506999Y-122761526D01*
X153451843Y-122678978D01*
X153381642Y-122608777D01*
X153299094Y-122553621D01*
X153207371Y-122515628D01*
X153110000Y-122496260D01*
X153010720Y-122496260D01*
X152913349Y-122515628D01*
X152821626Y-122553621D01*
X152739078Y-122608777D01*
X152668877Y-122678978D01*
X152618394Y-122754532D01*
X152573003Y-122686598D01*
X152502802Y-122616397D01*
X152420254Y-122561241D01*
X152328531Y-122523248D01*
X152231160Y-122503880D01*
X152131880Y-122503880D01*
X152034509Y-122523248D01*
X151942786Y-122561241D01*
X151860238Y-122616397D01*
X151790037Y-122686598D01*
X151747191Y-122750722D01*
X151694163Y-122671358D01*
X151623962Y-122601157D01*
X151541414Y-122546001D01*
X151449691Y-122508008D01*
X151352320Y-122488640D01*
X151253040Y-122488640D01*
X151155669Y-122508008D01*
X151063946Y-122546001D01*
X150981398Y-122601157D01*
X150911197Y-122671358D01*
X150864957Y-122740562D01*
X150815323Y-122666278D01*
X150745122Y-122596077D01*
X150662574Y-122540921D01*
X150570851Y-122502928D01*
X150473480Y-122483560D01*
X150374200Y-122483560D01*
X150276829Y-122502928D01*
X150185106Y-122540921D01*
X150102558Y-122596077D01*
X150032357Y-122666278D01*
X149977201Y-122748826D01*
X149939208Y-122840549D01*
X149919840Y-122937920D01*
X149276054Y-122937920D01*
X149257916Y-122846735D01*
X149219923Y-122755012D01*
X149164767Y-122672464D01*
X149094566Y-122602263D01*
X149012018Y-122547107D01*
X148920295Y-122509114D01*
X148822924Y-122489746D01*
X148723644Y-122489746D01*
X148626273Y-122509114D01*
X148534550Y-122547107D01*
X148452002Y-122602263D01*
X148381801Y-122672464D01*
X148326645Y-122755012D01*
X148288652Y-122846735D01*
X148272792Y-122926470D01*
X148256712Y-122845629D01*
X148218719Y-122753906D01*
X148163563Y-122671358D01*
X148093362Y-122601157D01*
X148010814Y-122546001D01*
X147919091Y-122508008D01*
X147821720Y-122488640D01*
X147722440Y-122488640D01*
X147625069Y-122508008D01*
X147533346Y-122546001D01*
X147450798Y-122601157D01*
X147380597Y-122671358D01*
X147325441Y-122753906D01*
X147287448Y-122845629D01*
X147268080Y-122943000D01*
X145231725Y-122943000D01*
X145248165Y-122903312D01*
X145354000Y-122371245D01*
X145354000Y-121828755D01*
X145248165Y-121296688D01*
X145040563Y-120795492D01*
X144739171Y-120344428D01*
X144355572Y-119960829D01*
X143904508Y-119659437D01*
X143403312Y-119451835D01*
X142871245Y-119346000D01*
X142328755Y-119346000D01*
X141796688Y-119451835D01*
X141295492Y-119659437D01*
X140844428Y-119960829D01*
X140460829Y-120344428D01*
X140159437Y-120795492D01*
X139951835Y-121296688D01*
X139846000Y-121828755D01*
X121204000Y-121828755D01*
X121098165Y-121296688D01*
X120890563Y-120795492D01*
X120589171Y-120344428D01*
X120205572Y-119960829D01*
X119754508Y-119659437D01*
X119253312Y-119451835D01*
X118721245Y-119346000D01*
X118178755Y-119346000D01*
X117646688Y-119451835D01*
X117145492Y-119659437D01*
X116694428Y-119960829D01*
X116310829Y-120344428D01*
X116009437Y-120795492D01*
X115801835Y-121296688D01*
X115696000Y-121828755D01*
X107329000Y-121828755D01*
X107329000Y-114416220D01*
X155058260Y-114416220D01*
X155058260Y-114515500D01*
X155077628Y-114612871D01*
X155115621Y-114704594D01*
X155170777Y-114787142D01*
X155240978Y-114857343D01*
X155323526Y-114912499D01*
X155415249Y-114950492D01*
X155512620Y-114969860D01*
X155611900Y-114969860D01*
X155709271Y-114950492D01*
X155800994Y-114912499D01*
X155883542Y-114857343D01*
X155953743Y-114787142D01*
X156008899Y-114704594D01*
X156046892Y-114612871D01*
X156066260Y-114515500D01*
X156066260Y-114416220D01*
X156046892Y-114318849D01*
X156008899Y-114227126D01*
X155953743Y-114144578D01*
X155883542Y-114074377D01*
X155800994Y-114019221D01*
X155709271Y-113981228D01*
X155611900Y-113961860D01*
X155512620Y-113961860D01*
X155415249Y-113981228D01*
X155323526Y-114019221D01*
X155240978Y-114074377D01*
X155170777Y-114144578D01*
X155115621Y-114227126D01*
X155077628Y-114318849D01*
X155058260Y-114416220D01*
X107329000Y-114416220D01*
X107329000Y-113191092D01*
X155058260Y-113191092D01*
X155058260Y-113290372D01*
X155077628Y-113387743D01*
X155115621Y-113479466D01*
X155170777Y-113562014D01*
X155240978Y-113632215D01*
X155323526Y-113687371D01*
X155415249Y-113725364D01*
X155512620Y-113744732D01*
X155611900Y-113744732D01*
X155709271Y-113725364D01*
X155800994Y-113687371D01*
X155883542Y-113632215D01*
X155953743Y-113562014D01*
X156008899Y-113479466D01*
X156046892Y-113387743D01*
X156066260Y-113290372D01*
X156066260Y-113191092D01*
X156046892Y-113093721D01*
X156008899Y-113001998D01*
X155953743Y-112919450D01*
X155883542Y-112849249D01*
X155800994Y-112794093D01*
X155709271Y-112756100D01*
X155611900Y-112736732D01*
X155512620Y-112736732D01*
X155415249Y-112756100D01*
X155323526Y-112794093D01*
X155240978Y-112849249D01*
X155170777Y-112919450D01*
X155115621Y-113001998D01*
X155077628Y-113093721D01*
X155058260Y-113191092D01*
X107329000Y-113191092D01*
X107329000Y-111965966D01*
X155058260Y-111965966D01*
X155058260Y-112065246D01*
X155077628Y-112162617D01*
X155115621Y-112254340D01*
X155170777Y-112336888D01*
X155240978Y-112407089D01*
X155323526Y-112462245D01*
X155415249Y-112500238D01*
X155512620Y-112519606D01*
X155611900Y-112519606D01*
X155709271Y-112500238D01*
X155800994Y-112462245D01*
X155883542Y-112407089D01*
X155953743Y-112336888D01*
X156008899Y-112254340D01*
X156046892Y-112162617D01*
X156066260Y-112065246D01*
X156066260Y-111965966D01*
X156046892Y-111868595D01*
X156008899Y-111776872D01*
X155953743Y-111694324D01*
X155883542Y-111624123D01*
X155800994Y-111568967D01*
X155709271Y-111530974D01*
X155611900Y-111511606D01*
X155512620Y-111511606D01*
X155415249Y-111530974D01*
X155323526Y-111568967D01*
X155240978Y-111624123D01*
X155170777Y-111694324D01*
X155115621Y-111776872D01*
X155077628Y-111868595D01*
X155058260Y-111965966D01*
X107329000Y-111965966D01*
X107329000Y-110740840D01*
X155058260Y-110740840D01*
X155058260Y-110840120D01*
X155077628Y-110937491D01*
X155115621Y-111029214D01*
X155170777Y-111111762D01*
X155240978Y-111181963D01*
X155323526Y-111237119D01*
X155415249Y-111275112D01*
X155512620Y-111294480D01*
X155611900Y-111294480D01*
X155709271Y-111275112D01*
X155800994Y-111237119D01*
X155883542Y-111181963D01*
X155953743Y-111111762D01*
X156008899Y-111029214D01*
X156046892Y-110937491D01*
X156066260Y-110840120D01*
X156066260Y-110740840D01*
X156051609Y-110667180D01*
X160361780Y-110667180D01*
X160361780Y-110766460D01*
X160381148Y-110863831D01*
X160419141Y-110955554D01*
X160436554Y-110981615D01*
X160419141Y-111007676D01*
X160381148Y-111099399D01*
X160361780Y-111196770D01*
X160361780Y-111296050D01*
X160381148Y-111393421D01*
X160419141Y-111485144D01*
X160436554Y-111511205D01*
X160419141Y-111537266D01*
X160381148Y-111628989D01*
X160361780Y-111726360D01*
X160361780Y-111825640D01*
X160381148Y-111923011D01*
X160419141Y-112014734D01*
X160474297Y-112097282D01*
X160544498Y-112167483D01*
X160627046Y-112222639D01*
X160718769Y-112260632D01*
X160816140Y-112280000D01*
X160915420Y-112280000D01*
X161012791Y-112260632D01*
X161104514Y-112222639D01*
X161187062Y-112167483D01*
X161257263Y-112097282D01*
X161312419Y-112014734D01*
X161350412Y-111923011D01*
X161369780Y-111825640D01*
X161369780Y-111726360D01*
X161350412Y-111628989D01*
X161312419Y-111537266D01*
X161295006Y-111511205D01*
X161312419Y-111485144D01*
X161350412Y-111393421D01*
X161369780Y-111296050D01*
X161369780Y-111196770D01*
X161350412Y-111099399D01*
X161312419Y-111007676D01*
X161295006Y-110981615D01*
X161312419Y-110955554D01*
X161350412Y-110863831D01*
X161369780Y-110766460D01*
X161369780Y-110667180D01*
X161350412Y-110569809D01*
X161312419Y-110478086D01*
X161257263Y-110395538D01*
X161187062Y-110325337D01*
X161104514Y-110270181D01*
X161012791Y-110232188D01*
X160915420Y-110212820D01*
X160816140Y-110212820D01*
X160718769Y-110232188D01*
X160627046Y-110270181D01*
X160544498Y-110325337D01*
X160474297Y-110395538D01*
X160419141Y-110478086D01*
X160381148Y-110569809D01*
X160361780Y-110667180D01*
X156051609Y-110667180D01*
X156046892Y-110643469D01*
X156008899Y-110551746D01*
X155953743Y-110469198D01*
X155883542Y-110398997D01*
X155800994Y-110343841D01*
X155709271Y-110305848D01*
X155611900Y-110286480D01*
X155512620Y-110286480D01*
X155415249Y-110305848D01*
X155323526Y-110343841D01*
X155240978Y-110398997D01*
X155170777Y-110469198D01*
X155115621Y-110551746D01*
X155077628Y-110643469D01*
X155058260Y-110740840D01*
X107329000Y-110740840D01*
X107329000Y-110171880D01*
X162665560Y-110171880D01*
X162665560Y-110271160D01*
X162684928Y-110368531D01*
X162722921Y-110460254D01*
X162778077Y-110542802D01*
X162848278Y-110613003D01*
X162930826Y-110668159D01*
X163022549Y-110706152D01*
X163119920Y-110725520D01*
X163219200Y-110725520D01*
X163316571Y-110706152D01*
X163408294Y-110668159D01*
X163490842Y-110613003D01*
X163561043Y-110542802D01*
X163616199Y-110460254D01*
X163654192Y-110368531D01*
X163673560Y-110271160D01*
X163673560Y-110187770D01*
X163710889Y-110203232D01*
X163808260Y-110222600D01*
X163907540Y-110222600D01*
X164004911Y-110203232D01*
X164096634Y-110165239D01*
X164179182Y-110110083D01*
X164249383Y-110039882D01*
X164304539Y-109957334D01*
X164342532Y-109865611D01*
X164361900Y-109768240D01*
X164361900Y-109668960D01*
X164342532Y-109571589D01*
X164304539Y-109479866D01*
X164249383Y-109397318D01*
X164179182Y-109327117D01*
X164096634Y-109271961D01*
X164004911Y-109233968D01*
X163907540Y-109214600D01*
X163808260Y-109214600D01*
X163710889Y-109233968D01*
X163619166Y-109271961D01*
X163536618Y-109327117D01*
X163466417Y-109397318D01*
X163411261Y-109479866D01*
X163373268Y-109571589D01*
X163353900Y-109668960D01*
X163353900Y-109752350D01*
X163316571Y-109736888D01*
X163219200Y-109717520D01*
X163119920Y-109717520D01*
X163022549Y-109736888D01*
X162930826Y-109774881D01*
X162848278Y-109830037D01*
X162778077Y-109900238D01*
X162722921Y-109982786D01*
X162684928Y-110074509D01*
X162665560Y-110171880D01*
X107329000Y-110171880D01*
X107329000Y-109173228D01*
X160314600Y-109173228D01*
X160314600Y-109268292D01*
X160333146Y-109361529D01*
X160369526Y-109449357D01*
X160422340Y-109528400D01*
X160489560Y-109595620D01*
X160568603Y-109648434D01*
X160656431Y-109684814D01*
X160749668Y-109703360D01*
X160844732Y-109703360D01*
X160937969Y-109684814D01*
X161025797Y-109648434D01*
X161104840Y-109595620D01*
X161172060Y-109528400D01*
X161224874Y-109449357D01*
X161261254Y-109361529D01*
X161279800Y-109268292D01*
X161279800Y-109173228D01*
X161261254Y-109079991D01*
X161224874Y-108992163D01*
X161172060Y-108913120D01*
X161104840Y-108845900D01*
X161025797Y-108793086D01*
X160937969Y-108756706D01*
X160844732Y-108738160D01*
X160749668Y-108738160D01*
X160656431Y-108756706D01*
X160568603Y-108793086D01*
X160489560Y-108845900D01*
X160422340Y-108913120D01*
X160369526Y-108992163D01*
X160333146Y-109079991D01*
X160314600Y-109173228D01*
X107329000Y-109173228D01*
X107329000Y-107845240D01*
X155286860Y-107845240D01*
X155286860Y-107944520D01*
X155306228Y-108041891D01*
X155344221Y-108133614D01*
X155399377Y-108216162D01*
X155469578Y-108286363D01*
X155552126Y-108341519D01*
X155643849Y-108379512D01*
X155741220Y-108398880D01*
X155840500Y-108398880D01*
X155937871Y-108379512D01*
X156029594Y-108341519D01*
X156112142Y-108286363D01*
X156182343Y-108216162D01*
X156237499Y-108133614D01*
X156275492Y-108041891D01*
X156294860Y-107944520D01*
X156294860Y-107845240D01*
X156294355Y-107842700D01*
X156683860Y-107842700D01*
X156683860Y-107941980D01*
X156703228Y-108039351D01*
X156741221Y-108131074D01*
X156796377Y-108213622D01*
X156866578Y-108283823D01*
X156949126Y-108338979D01*
X157040849Y-108376972D01*
X157138220Y-108396340D01*
X157237500Y-108396340D01*
X157334871Y-108376972D01*
X157426594Y-108338979D01*
X157509142Y-108283823D01*
X157579343Y-108213622D01*
X157634499Y-108131074D01*
X157672492Y-108039351D01*
X157691860Y-107941980D01*
X157691860Y-107842700D01*
X157672492Y-107745329D01*
X157634499Y-107653606D01*
X157579343Y-107571058D01*
X157509142Y-107500857D01*
X157426594Y-107445701D01*
X157334871Y-107407708D01*
X157237500Y-107388340D01*
X157138220Y-107388340D01*
X157040849Y-107407708D01*
X156949126Y-107445701D01*
X156866578Y-107500857D01*
X156796377Y-107571058D01*
X156741221Y-107653606D01*
X156703228Y-107745329D01*
X156683860Y-107842700D01*
X156294355Y-107842700D01*
X156275492Y-107747869D01*
X156237499Y-107656146D01*
X156182343Y-107573598D01*
X156112142Y-107503397D01*
X156029594Y-107448241D01*
X155937871Y-107410248D01*
X155840500Y-107390880D01*
X155741220Y-107390880D01*
X155643849Y-107410248D01*
X155552126Y-107448241D01*
X155469578Y-107503397D01*
X155399377Y-107573598D01*
X155344221Y-107656146D01*
X155306228Y-107747869D01*
X155286860Y-107845240D01*
X107329000Y-107845240D01*
X107329000Y-104964880D01*
X155053180Y-104964880D01*
X155053180Y-105064160D01*
X155072548Y-105161531D01*
X155110541Y-105253254D01*
X155165697Y-105335802D01*
X155235898Y-105406003D01*
X155318446Y-105461159D01*
X155410169Y-105499152D01*
X155507540Y-105518520D01*
X155606820Y-105518520D01*
X155704191Y-105499152D01*
X155795914Y-105461159D01*
X155878462Y-105406003D01*
X155948663Y-105335802D01*
X156003819Y-105253254D01*
X156041812Y-105161531D01*
X156061180Y-105064160D01*
X156061180Y-104964880D01*
X156041812Y-104867509D01*
X156003819Y-104775786D01*
X155948663Y-104693238D01*
X155878462Y-104623037D01*
X155795914Y-104567881D01*
X155704191Y-104529888D01*
X155606820Y-104510520D01*
X155507540Y-104510520D01*
X155410169Y-104529888D01*
X155318446Y-104567881D01*
X155235898Y-104623037D01*
X155165697Y-104693238D01*
X155110541Y-104775786D01*
X155072548Y-104867509D01*
X155053180Y-104964880D01*
X107329000Y-104964880D01*
X107329000Y-103834580D01*
X155050640Y-103834580D01*
X155050640Y-103933860D01*
X155070008Y-104031231D01*
X155108001Y-104122954D01*
X155163157Y-104205502D01*
X155233358Y-104275703D01*
X155315906Y-104330859D01*
X155407629Y-104368852D01*
X155505000Y-104388220D01*
X155604280Y-104388220D01*
X155701651Y-104368852D01*
X155793374Y-104330859D01*
X155875922Y-104275703D01*
X155946123Y-104205502D01*
X156001279Y-104122954D01*
X156039272Y-104031231D01*
X156058640Y-103933860D01*
X156058640Y-103834580D01*
X156039272Y-103737209D01*
X156001279Y-103645486D01*
X155946123Y-103562938D01*
X155875922Y-103492737D01*
X155793374Y-103437581D01*
X155701651Y-103399588D01*
X155604280Y-103380220D01*
X155505000Y-103380220D01*
X155407629Y-103399588D01*
X155315906Y-103437581D01*
X155233358Y-103492737D01*
X155163157Y-103562938D01*
X155108001Y-103645486D01*
X155070008Y-103737209D01*
X155050640Y-103834580D01*
X107329000Y-103834580D01*
X107329000Y-97628755D01*
X115696000Y-97628755D01*
X115696000Y-98171245D01*
X115801835Y-98703312D01*
X116009437Y-99204508D01*
X116310829Y-99655572D01*
X116694428Y-100039171D01*
X117145492Y-100340563D01*
X117646688Y-100548165D01*
X118178755Y-100654000D01*
X118721245Y-100654000D01*
X119253312Y-100548165D01*
X119754508Y-100340563D01*
X120205572Y-100039171D01*
X120589171Y-99655572D01*
X120890563Y-99204508D01*
X121098165Y-98703312D01*
X121204000Y-98171245D01*
X121204000Y-97628755D01*
X139846000Y-97628755D01*
X139846000Y-98171245D01*
X139951835Y-98703312D01*
X140159437Y-99204508D01*
X140460829Y-99655572D01*
X140844428Y-100039171D01*
X141295492Y-100340563D01*
X141796688Y-100548165D01*
X142328755Y-100654000D01*
X142871245Y-100654000D01*
X143403312Y-100548165D01*
X143904508Y-100340563D01*
X144355572Y-100039171D01*
X144739171Y-99655572D01*
X145040563Y-99204508D01*
X145248165Y-98703312D01*
X145354000Y-98171245D01*
X145354000Y-97628755D01*
X145248165Y-97096688D01*
X145186663Y-96948208D01*
X152681900Y-96948208D01*
X152681900Y-97043272D01*
X152700446Y-97136509D01*
X152736826Y-97224337D01*
X152789640Y-97303380D01*
X152856860Y-97370600D01*
X152935903Y-97423414D01*
X153023731Y-97459794D01*
X153116968Y-97478340D01*
X153212032Y-97478340D01*
X153305269Y-97459794D01*
X153393097Y-97423414D01*
X153472140Y-97370600D01*
X153539360Y-97303380D01*
X153592174Y-97224337D01*
X153628554Y-97136509D01*
X153647100Y-97043272D01*
X153647100Y-96948208D01*
X153644660Y-96935940D01*
X153988920Y-96935940D01*
X153988920Y-97035220D01*
X154008288Y-97132591D01*
X154046281Y-97224314D01*
X154101437Y-97306862D01*
X154171638Y-97377063D01*
X154254186Y-97432219D01*
X154345909Y-97470212D01*
X154443280Y-97489580D01*
X154542560Y-97489580D01*
X154639931Y-97470212D01*
X154731654Y-97432219D01*
X154814202Y-97377063D01*
X154884403Y-97306862D01*
X154939559Y-97224314D01*
X154977552Y-97132591D01*
X154996920Y-97035220D01*
X154996920Y-96946100D01*
X155081120Y-96946100D01*
X155081120Y-97045380D01*
X155100488Y-97142751D01*
X155138481Y-97234474D01*
X155193637Y-97317022D01*
X155263838Y-97387223D01*
X155346386Y-97442379D01*
X155438109Y-97480372D01*
X155535480Y-97499740D01*
X155634760Y-97499740D01*
X155732131Y-97480372D01*
X155823854Y-97442379D01*
X155906402Y-97387223D01*
X155976603Y-97317022D01*
X156031759Y-97234474D01*
X156069752Y-97142751D01*
X156089120Y-97045380D01*
X156089120Y-96951180D01*
X156173320Y-96951180D01*
X156173320Y-97050460D01*
X156192688Y-97147831D01*
X156230681Y-97239554D01*
X156285837Y-97322102D01*
X156356038Y-97392303D01*
X156438586Y-97447459D01*
X156530309Y-97485452D01*
X156627680Y-97504820D01*
X156726960Y-97504820D01*
X156824331Y-97485452D01*
X156916054Y-97447459D01*
X156998602Y-97392303D01*
X157068803Y-97322102D01*
X157123959Y-97239554D01*
X157161952Y-97147831D01*
X157181320Y-97050460D01*
X157181320Y-96951180D01*
X157180815Y-96948640D01*
X157265520Y-96948640D01*
X157265520Y-97047920D01*
X157284888Y-97145291D01*
X157322881Y-97237014D01*
X157378037Y-97319562D01*
X157448238Y-97389763D01*
X157530786Y-97444919D01*
X157622509Y-97482912D01*
X157719880Y-97502280D01*
X157819160Y-97502280D01*
X157916531Y-97482912D01*
X158008254Y-97444919D01*
X158090802Y-97389763D01*
X158161003Y-97319562D01*
X158216159Y-97237014D01*
X158254152Y-97145291D01*
X158273520Y-97047920D01*
X158273520Y-96948640D01*
X158254152Y-96851269D01*
X158216159Y-96759546D01*
X158161003Y-96676998D01*
X158090802Y-96606797D01*
X158032199Y-96567640D01*
X169876620Y-96567640D01*
X169876620Y-96666920D01*
X169895988Y-96764291D01*
X169933981Y-96856014D01*
X169989137Y-96938562D01*
X170059338Y-97008763D01*
X170141886Y-97063919D01*
X170233609Y-97101912D01*
X170330980Y-97121280D01*
X170430260Y-97121280D01*
X170527631Y-97101912D01*
X170619354Y-97063919D01*
X170701902Y-97008763D01*
X170772103Y-96938562D01*
X170827259Y-96856014D01*
X170865252Y-96764291D01*
X170884620Y-96666920D01*
X170884620Y-96567640D01*
X170865252Y-96470269D01*
X170827259Y-96378546D01*
X170772103Y-96295998D01*
X170701902Y-96225797D01*
X170619354Y-96170641D01*
X170527631Y-96132648D01*
X170430260Y-96113280D01*
X170330980Y-96113280D01*
X170233609Y-96132648D01*
X170141886Y-96170641D01*
X170059338Y-96225797D01*
X169989137Y-96295998D01*
X169933981Y-96378546D01*
X169895988Y-96470269D01*
X169876620Y-96567640D01*
X158032199Y-96567640D01*
X158008254Y-96551641D01*
X157916531Y-96513648D01*
X157819160Y-96494280D01*
X157719880Y-96494280D01*
X157622509Y-96513648D01*
X157530786Y-96551641D01*
X157448238Y-96606797D01*
X157378037Y-96676998D01*
X157322881Y-96759546D01*
X157284888Y-96851269D01*
X157265520Y-96948640D01*
X157180815Y-96948640D01*
X157161952Y-96853809D01*
X157123959Y-96762086D01*
X157068803Y-96679538D01*
X156998602Y-96609337D01*
X156916054Y-96554181D01*
X156824331Y-96516188D01*
X156726960Y-96496820D01*
X156627680Y-96496820D01*
X156530309Y-96516188D01*
X156438586Y-96554181D01*
X156356038Y-96609337D01*
X156285837Y-96679538D01*
X156230681Y-96762086D01*
X156192688Y-96853809D01*
X156173320Y-96951180D01*
X156089120Y-96951180D01*
X156089120Y-96946100D01*
X156069752Y-96848729D01*
X156031759Y-96757006D01*
X155976603Y-96674458D01*
X155906402Y-96604257D01*
X155823854Y-96549101D01*
X155732131Y-96511108D01*
X155634760Y-96491740D01*
X155535480Y-96491740D01*
X155438109Y-96511108D01*
X155346386Y-96549101D01*
X155263838Y-96604257D01*
X155193637Y-96674458D01*
X155138481Y-96757006D01*
X155100488Y-96848729D01*
X155081120Y-96946100D01*
X154996920Y-96946100D01*
X154996920Y-96935940D01*
X154977552Y-96838569D01*
X154939559Y-96746846D01*
X154884403Y-96664298D01*
X154814202Y-96594097D01*
X154731654Y-96538941D01*
X154639931Y-96500948D01*
X154542560Y-96481580D01*
X154443280Y-96481580D01*
X154345909Y-96500948D01*
X154254186Y-96538941D01*
X154171638Y-96594097D01*
X154101437Y-96664298D01*
X154046281Y-96746846D01*
X154008288Y-96838569D01*
X153988920Y-96935940D01*
X153644660Y-96935940D01*
X153628554Y-96854971D01*
X153592174Y-96767143D01*
X153539360Y-96688100D01*
X153472140Y-96620880D01*
X153393097Y-96568066D01*
X153305269Y-96531686D01*
X153212032Y-96513140D01*
X153116968Y-96513140D01*
X153023731Y-96531686D01*
X152935903Y-96568066D01*
X152856860Y-96620880D01*
X152789640Y-96688100D01*
X152736826Y-96767143D01*
X152700446Y-96854971D01*
X152681900Y-96948208D01*
X145186663Y-96948208D01*
X145040563Y-96595492D01*
X144739171Y-96144428D01*
X144355572Y-95760829D01*
X143904508Y-95459437D01*
X143403312Y-95251835D01*
X142871245Y-95146000D01*
X142328755Y-95146000D01*
X141796688Y-95251835D01*
X141295492Y-95459437D01*
X140844428Y-95760829D01*
X140460829Y-96144428D01*
X140159437Y-96595492D01*
X139951835Y-97096688D01*
X139846000Y-97628755D01*
X121204000Y-97628755D01*
X121098165Y-97096688D01*
X120890563Y-96595492D01*
X120589171Y-96144428D01*
X120205572Y-95760829D01*
X119754508Y-95459437D01*
X119253312Y-95251835D01*
X118721245Y-95146000D01*
X118178755Y-95146000D01*
X117646688Y-95251835D01*
X117145492Y-95459437D01*
X116694428Y-95760829D01*
X116310829Y-96144428D01*
X116009437Y-96595492D01*
X115801835Y-97096688D01*
X115696000Y-97628755D01*
X107329000Y-97628755D01*
X107329000Y-94329000D01*
X147648483Y-94329000D01*
X147615366Y-94408951D01*
%TA.AperFunction,Conductor*%
D14*
G36*
X147615366Y-94408951D02*
G01*
X147596820Y-94502188D01*
X147596820Y-94597252D01*
X147615366Y-94690489D01*
X147651746Y-94778317D01*
X147704560Y-94857360D01*
X147771780Y-94924580D01*
X147850823Y-94977394D01*
X147938651Y-95013774D01*
X148031888Y-95032320D01*
X148126952Y-95032320D01*
X148220189Y-95013774D01*
X148308017Y-94977394D01*
X148387060Y-94924580D01*
X148454280Y-94857360D01*
X148507094Y-94778317D01*
X148543474Y-94690489D01*
X148562020Y-94597252D01*
X148562020Y-94502188D01*
X148543474Y-94408951D01*
X148510357Y-94329000D01*
X148669563Y-94329000D01*
X148636446Y-94408951D01*
X148617900Y-94502188D01*
X148617900Y-94597252D01*
X148636446Y-94690489D01*
X148672826Y-94778317D01*
X148725640Y-94857360D01*
X148792860Y-94924580D01*
X148871903Y-94977394D01*
X148959731Y-95013774D01*
X149052968Y-95032320D01*
X149148032Y-95032320D01*
X149241269Y-95013774D01*
X149329097Y-94977394D01*
X149408140Y-94924580D01*
X149475360Y-94857360D01*
X149528174Y-94778317D01*
X149564554Y-94690489D01*
X149583100Y-94597252D01*
X149583100Y-94502188D01*
X149564554Y-94408951D01*
X149531437Y-94329000D01*
X149738903Y-94329000D01*
X149705786Y-94408951D01*
X149687240Y-94502188D01*
X149687240Y-94597252D01*
X149705786Y-94690489D01*
X149742166Y-94778317D01*
X149794980Y-94857360D01*
X149862200Y-94924580D01*
X149941243Y-94977394D01*
X150029071Y-95013774D01*
X150122308Y-95032320D01*
X150217372Y-95032320D01*
X150310609Y-95013774D01*
X150398437Y-94977394D01*
X150477480Y-94924580D01*
X150544700Y-94857360D01*
X150597514Y-94778317D01*
X150633894Y-94690489D01*
X150652440Y-94597252D01*
X150652440Y-94502188D01*
X150633894Y-94408951D01*
X150600777Y-94329000D01*
X168793835Y-94329000D01*
X168787717Y-94335118D01*
X168732561Y-94417666D01*
X168694568Y-94509389D01*
X168680502Y-94580102D01*
X168643560Y-94543160D01*
X168564517Y-94490346D01*
X168476689Y-94453966D01*
X168383452Y-94435420D01*
X168288388Y-94435420D01*
X168195151Y-94453966D01*
X168107323Y-94490346D01*
X168028280Y-94543160D01*
X167961060Y-94610380D01*
X167908246Y-94689423D01*
X167871866Y-94777251D01*
X167853320Y-94870488D01*
X167853320Y-94965552D01*
X167871866Y-95058789D01*
X167908246Y-95146617D01*
X167961060Y-95225660D01*
X168028280Y-95292880D01*
X168107323Y-95345694D01*
X168195151Y-95382074D01*
X168288388Y-95400620D01*
X168383452Y-95400620D01*
X168476689Y-95382074D01*
X168564517Y-95345694D01*
X168643560Y-95292880D01*
X168710780Y-95225660D01*
X168763594Y-95146617D01*
X168799974Y-95058789D01*
X168811397Y-95001362D01*
X168857918Y-95047883D01*
X168940466Y-95103039D01*
X169032189Y-95141032D01*
X169129560Y-95160400D01*
X169228840Y-95160400D01*
X169326211Y-95141032D01*
X169417934Y-95103039D01*
X169500482Y-95047883D01*
X169570683Y-94977682D01*
X169625839Y-94895134D01*
X169663832Y-94803411D01*
X169683200Y-94706040D01*
X169683200Y-94606760D01*
X169663832Y-94509389D01*
X169625839Y-94417666D01*
X169570683Y-94335118D01*
X169564565Y-94329000D01*
X171671000Y-94329000D01*
X171671001Y-125671000D01*
X149521717Y-125671000D01*
X149544599Y-125636754D01*
X149582592Y-125545031D01*
X149601960Y-125447660D01*
X149601960Y-125348380D01*
X149582592Y-125251009D01*
X149544599Y-125159286D01*
X149489443Y-125076738D01*
X149419242Y-125006537D01*
X149336694Y-124951381D01*
X149244971Y-124913388D01*
X149147600Y-124894020D01*
X149048320Y-124894020D01*
X148950949Y-124913388D01*
X148859226Y-124951381D01*
X148776678Y-125006537D01*
X148706477Y-125076738D01*
X148651321Y-125159286D01*
X148613328Y-125251009D01*
X148593960Y-125348380D01*
X148593960Y-125447660D01*
X148613328Y-125545031D01*
X148651321Y-125636754D01*
X148674203Y-125671000D01*
X107329000Y-125671000D01*
X107329000Y-121828755D01*
X115696000Y-121828755D01*
X115696000Y-122371245D01*
X115801835Y-122903312D01*
X116009437Y-123404508D01*
X116310829Y-123855572D01*
X116694428Y-124239171D01*
X117145492Y-124540563D01*
X117646688Y-124748165D01*
X118178755Y-124854000D01*
X118721245Y-124854000D01*
X119253312Y-124748165D01*
X119754508Y-124540563D01*
X120205572Y-124239171D01*
X120589171Y-123855572D01*
X120890563Y-123404508D01*
X121098165Y-122903312D01*
X121204000Y-122371245D01*
X121204000Y-121828755D01*
X139846000Y-121828755D01*
X139846000Y-122371245D01*
X139951835Y-122903312D01*
X140159437Y-123404508D01*
X140460829Y-123855572D01*
X140844428Y-124239171D01*
X141295492Y-124540563D01*
X141796688Y-124748165D01*
X142328755Y-124854000D01*
X142871245Y-124854000D01*
X143403312Y-124748165D01*
X143904508Y-124540563D01*
X144355572Y-124239171D01*
X144739171Y-123855572D01*
X145040563Y-123404508D01*
X145231725Y-122943000D01*
X147268080Y-122943000D01*
X147268080Y-123042280D01*
X147287448Y-123139651D01*
X147325441Y-123231374D01*
X147380597Y-123313922D01*
X147450798Y-123384123D01*
X147533346Y-123439279D01*
X147625069Y-123477272D01*
X147722440Y-123496640D01*
X147821720Y-123496640D01*
X147919091Y-123477272D01*
X148010814Y-123439279D01*
X148093362Y-123384123D01*
X148163563Y-123313922D01*
X148218719Y-123231374D01*
X148256712Y-123139651D01*
X148272572Y-123059916D01*
X148288652Y-123140757D01*
X148326645Y-123232480D01*
X148381801Y-123315028D01*
X148452002Y-123385229D01*
X148534550Y-123440385D01*
X148626273Y-123478378D01*
X148723644Y-123497746D01*
X148822924Y-123497746D01*
X148920295Y-123478378D01*
X149012018Y-123440385D01*
X149094566Y-123385229D01*
X149164767Y-123315028D01*
X149219923Y-123232480D01*
X149257916Y-123140757D01*
X149277284Y-123043386D01*
X149277284Y-122944106D01*
X149276054Y-122937920D01*
X149919840Y-122937920D01*
X149919840Y-123037200D01*
X149939208Y-123134571D01*
X149977201Y-123226294D01*
X150032357Y-123308842D01*
X150102558Y-123379043D01*
X150185106Y-123434199D01*
X150276829Y-123472192D01*
X150374200Y-123491560D01*
X150473480Y-123491560D01*
X150570851Y-123472192D01*
X150662574Y-123434199D01*
X150745122Y-123379043D01*
X150815323Y-123308842D01*
X150861563Y-123239638D01*
X150911197Y-123313922D01*
X150981398Y-123384123D01*
X151063946Y-123439279D01*
X151155669Y-123477272D01*
X151253040Y-123496640D01*
X151352320Y-123496640D01*
X151449691Y-123477272D01*
X151541414Y-123439279D01*
X151623962Y-123384123D01*
X151694163Y-123313922D01*
X151737009Y-123249798D01*
X151790037Y-123329162D01*
X151860238Y-123399363D01*
X151942786Y-123454519D01*
X152034509Y-123492512D01*
X152131880Y-123511880D01*
X152231160Y-123511880D01*
X152328531Y-123492512D01*
X152420254Y-123454519D01*
X152502802Y-123399363D01*
X152573003Y-123329162D01*
X152623486Y-123253608D01*
X152668877Y-123321542D01*
X152739078Y-123391743D01*
X152821626Y-123446899D01*
X152913349Y-123484892D01*
X153010720Y-123504260D01*
X153110000Y-123504260D01*
X153207371Y-123484892D01*
X153299094Y-123446899D01*
X153381642Y-123391743D01*
X153451843Y-123321542D01*
X153506999Y-123238994D01*
X153544992Y-123147271D01*
X153564360Y-123049900D01*
X153564360Y-122950620D01*
X153544992Y-122853249D01*
X153506999Y-122761526D01*
X153451843Y-122678978D01*
X153381642Y-122608777D01*
X153299094Y-122553621D01*
X153207371Y-122515628D01*
X153110000Y-122496260D01*
X153010720Y-122496260D01*
X152913349Y-122515628D01*
X152821626Y-122553621D01*
X152739078Y-122608777D01*
X152668877Y-122678978D01*
X152618394Y-122754532D01*
X152573003Y-122686598D01*
X152502802Y-122616397D01*
X152420254Y-122561241D01*
X152328531Y-122523248D01*
X152231160Y-122503880D01*
X152131880Y-122503880D01*
X152034509Y-122523248D01*
X151942786Y-122561241D01*
X151860238Y-122616397D01*
X151790037Y-122686598D01*
X151747191Y-122750722D01*
X151694163Y-122671358D01*
X151623962Y-122601157D01*
X151541414Y-122546001D01*
X151449691Y-122508008D01*
X151352320Y-122488640D01*
X151253040Y-122488640D01*
X151155669Y-122508008D01*
X151063946Y-122546001D01*
X150981398Y-122601157D01*
X150911197Y-122671358D01*
X150864957Y-122740562D01*
X150815323Y-122666278D01*
X150745122Y-122596077D01*
X150662574Y-122540921D01*
X150570851Y-122502928D01*
X150473480Y-122483560D01*
X150374200Y-122483560D01*
X150276829Y-122502928D01*
X150185106Y-122540921D01*
X150102558Y-122596077D01*
X150032357Y-122666278D01*
X149977201Y-122748826D01*
X149939208Y-122840549D01*
X149919840Y-122937920D01*
X149276054Y-122937920D01*
X149257916Y-122846735D01*
X149219923Y-122755012D01*
X149164767Y-122672464D01*
X149094566Y-122602263D01*
X149012018Y-122547107D01*
X148920295Y-122509114D01*
X148822924Y-122489746D01*
X148723644Y-122489746D01*
X148626273Y-122509114D01*
X148534550Y-122547107D01*
X148452002Y-122602263D01*
X148381801Y-122672464D01*
X148326645Y-122755012D01*
X148288652Y-122846735D01*
X148272792Y-122926470D01*
X148256712Y-122845629D01*
X148218719Y-122753906D01*
X148163563Y-122671358D01*
X148093362Y-122601157D01*
X148010814Y-122546001D01*
X147919091Y-122508008D01*
X147821720Y-122488640D01*
X147722440Y-122488640D01*
X147625069Y-122508008D01*
X147533346Y-122546001D01*
X147450798Y-122601157D01*
X147380597Y-122671358D01*
X147325441Y-122753906D01*
X147287448Y-122845629D01*
X147268080Y-122943000D01*
X145231725Y-122943000D01*
X145248165Y-122903312D01*
X145354000Y-122371245D01*
X145354000Y-121828755D01*
X145248165Y-121296688D01*
X145040563Y-120795492D01*
X144739171Y-120344428D01*
X144355572Y-119960829D01*
X143904508Y-119659437D01*
X143403312Y-119451835D01*
X142871245Y-119346000D01*
X142328755Y-119346000D01*
X141796688Y-119451835D01*
X141295492Y-119659437D01*
X140844428Y-119960829D01*
X140460829Y-120344428D01*
X140159437Y-120795492D01*
X139951835Y-121296688D01*
X139846000Y-121828755D01*
X121204000Y-121828755D01*
X121098165Y-121296688D01*
X120890563Y-120795492D01*
X120589171Y-120344428D01*
X120205572Y-119960829D01*
X119754508Y-119659437D01*
X119253312Y-119451835D01*
X118721245Y-119346000D01*
X118178755Y-119346000D01*
X117646688Y-119451835D01*
X117145492Y-119659437D01*
X116694428Y-119960829D01*
X116310829Y-120344428D01*
X116009437Y-120795492D01*
X115801835Y-121296688D01*
X115696000Y-121828755D01*
X107329000Y-121828755D01*
X107329000Y-114416220D01*
X155058260Y-114416220D01*
X155058260Y-114515500D01*
X155077628Y-114612871D01*
X155115621Y-114704594D01*
X155170777Y-114787142D01*
X155240978Y-114857343D01*
X155323526Y-114912499D01*
X155415249Y-114950492D01*
X155512620Y-114969860D01*
X155611900Y-114969860D01*
X155709271Y-114950492D01*
X155800994Y-114912499D01*
X155883542Y-114857343D01*
X155953743Y-114787142D01*
X156008899Y-114704594D01*
X156046892Y-114612871D01*
X156066260Y-114515500D01*
X156066260Y-114416220D01*
X156046892Y-114318849D01*
X156008899Y-114227126D01*
X155953743Y-114144578D01*
X155883542Y-114074377D01*
X155800994Y-114019221D01*
X155709271Y-113981228D01*
X155611900Y-113961860D01*
X155512620Y-113961860D01*
X155415249Y-113981228D01*
X155323526Y-114019221D01*
X155240978Y-114074377D01*
X155170777Y-114144578D01*
X155115621Y-114227126D01*
X155077628Y-114318849D01*
X155058260Y-114416220D01*
X107329000Y-114416220D01*
X107329000Y-113191092D01*
X155058260Y-113191092D01*
X155058260Y-113290372D01*
X155077628Y-113387743D01*
X155115621Y-113479466D01*
X155170777Y-113562014D01*
X155240978Y-113632215D01*
X155323526Y-113687371D01*
X155415249Y-113725364D01*
X155512620Y-113744732D01*
X155611900Y-113744732D01*
X155709271Y-113725364D01*
X155800994Y-113687371D01*
X155883542Y-113632215D01*
X155953743Y-113562014D01*
X156008899Y-113479466D01*
X156046892Y-113387743D01*
X156066260Y-113290372D01*
X156066260Y-113191092D01*
X156046892Y-113093721D01*
X156008899Y-113001998D01*
X155953743Y-112919450D01*
X155883542Y-112849249D01*
X155800994Y-112794093D01*
X155709271Y-112756100D01*
X155611900Y-112736732D01*
X155512620Y-112736732D01*
X155415249Y-112756100D01*
X155323526Y-112794093D01*
X155240978Y-112849249D01*
X155170777Y-112919450D01*
X155115621Y-113001998D01*
X155077628Y-113093721D01*
X155058260Y-113191092D01*
X107329000Y-113191092D01*
X107329000Y-111965966D01*
X155058260Y-111965966D01*
X155058260Y-112065246D01*
X155077628Y-112162617D01*
X155115621Y-112254340D01*
X155170777Y-112336888D01*
X155240978Y-112407089D01*
X155323526Y-112462245D01*
X155415249Y-112500238D01*
X155512620Y-112519606D01*
X155611900Y-112519606D01*
X155709271Y-112500238D01*
X155800994Y-112462245D01*
X155883542Y-112407089D01*
X155953743Y-112336888D01*
X156008899Y-112254340D01*
X156046892Y-112162617D01*
X156066260Y-112065246D01*
X156066260Y-111965966D01*
X156046892Y-111868595D01*
X156008899Y-111776872D01*
X155953743Y-111694324D01*
X155883542Y-111624123D01*
X155800994Y-111568967D01*
X155709271Y-111530974D01*
X155611900Y-111511606D01*
X155512620Y-111511606D01*
X155415249Y-111530974D01*
X155323526Y-111568967D01*
X155240978Y-111624123D01*
X155170777Y-111694324D01*
X155115621Y-111776872D01*
X155077628Y-111868595D01*
X155058260Y-111965966D01*
X107329000Y-111965966D01*
X107329000Y-110740840D01*
X155058260Y-110740840D01*
X155058260Y-110840120D01*
X155077628Y-110937491D01*
X155115621Y-111029214D01*
X155170777Y-111111762D01*
X155240978Y-111181963D01*
X155323526Y-111237119D01*
X155415249Y-111275112D01*
X155512620Y-111294480D01*
X155611900Y-111294480D01*
X155709271Y-111275112D01*
X155800994Y-111237119D01*
X155883542Y-111181963D01*
X155953743Y-111111762D01*
X156008899Y-111029214D01*
X156046892Y-110937491D01*
X156066260Y-110840120D01*
X156066260Y-110740840D01*
X156051609Y-110667180D01*
X160361780Y-110667180D01*
X160361780Y-110766460D01*
X160381148Y-110863831D01*
X160419141Y-110955554D01*
X160436554Y-110981615D01*
X160419141Y-111007676D01*
X160381148Y-111099399D01*
X160361780Y-111196770D01*
X160361780Y-111296050D01*
X160381148Y-111393421D01*
X160419141Y-111485144D01*
X160436554Y-111511205D01*
X160419141Y-111537266D01*
X160381148Y-111628989D01*
X160361780Y-111726360D01*
X160361780Y-111825640D01*
X160381148Y-111923011D01*
X160419141Y-112014734D01*
X160474297Y-112097282D01*
X160544498Y-112167483D01*
X160627046Y-112222639D01*
X160718769Y-112260632D01*
X160816140Y-112280000D01*
X160915420Y-112280000D01*
X161012791Y-112260632D01*
X161104514Y-112222639D01*
X161187062Y-112167483D01*
X161257263Y-112097282D01*
X161312419Y-112014734D01*
X161350412Y-111923011D01*
X161369780Y-111825640D01*
X161369780Y-111726360D01*
X161350412Y-111628989D01*
X161312419Y-111537266D01*
X161295006Y-111511205D01*
X161312419Y-111485144D01*
X161350412Y-111393421D01*
X161369780Y-111296050D01*
X161369780Y-111196770D01*
X161350412Y-111099399D01*
X161312419Y-111007676D01*
X161295006Y-110981615D01*
X161312419Y-110955554D01*
X161350412Y-110863831D01*
X161369780Y-110766460D01*
X161369780Y-110667180D01*
X161350412Y-110569809D01*
X161312419Y-110478086D01*
X161257263Y-110395538D01*
X161187062Y-110325337D01*
X161104514Y-110270181D01*
X161012791Y-110232188D01*
X160915420Y-110212820D01*
X160816140Y-110212820D01*
X160718769Y-110232188D01*
X160627046Y-110270181D01*
X160544498Y-110325337D01*
X160474297Y-110395538D01*
X160419141Y-110478086D01*
X160381148Y-110569809D01*
X160361780Y-110667180D01*
X156051609Y-110667180D01*
X156046892Y-110643469D01*
X156008899Y-110551746D01*
X155953743Y-110469198D01*
X155883542Y-110398997D01*
X155800994Y-110343841D01*
X155709271Y-110305848D01*
X155611900Y-110286480D01*
X155512620Y-110286480D01*
X155415249Y-110305848D01*
X155323526Y-110343841D01*
X155240978Y-110398997D01*
X155170777Y-110469198D01*
X155115621Y-110551746D01*
X155077628Y-110643469D01*
X155058260Y-110740840D01*
X107329000Y-110740840D01*
X107329000Y-110171880D01*
X162665560Y-110171880D01*
X162665560Y-110271160D01*
X162684928Y-110368531D01*
X162722921Y-110460254D01*
X162778077Y-110542802D01*
X162848278Y-110613003D01*
X162930826Y-110668159D01*
X163022549Y-110706152D01*
X163119920Y-110725520D01*
X163219200Y-110725520D01*
X163316571Y-110706152D01*
X163408294Y-110668159D01*
X163490842Y-110613003D01*
X163561043Y-110542802D01*
X163616199Y-110460254D01*
X163654192Y-110368531D01*
X163673560Y-110271160D01*
X163673560Y-110187770D01*
X163710889Y-110203232D01*
X163808260Y-110222600D01*
X163907540Y-110222600D01*
X164004911Y-110203232D01*
X164096634Y-110165239D01*
X164179182Y-110110083D01*
X164249383Y-110039882D01*
X164304539Y-109957334D01*
X164342532Y-109865611D01*
X164361900Y-109768240D01*
X164361900Y-109668960D01*
X164342532Y-109571589D01*
X164304539Y-109479866D01*
X164249383Y-109397318D01*
X164179182Y-109327117D01*
X164096634Y-109271961D01*
X164004911Y-109233968D01*
X163907540Y-109214600D01*
X163808260Y-109214600D01*
X163710889Y-109233968D01*
X163619166Y-109271961D01*
X163536618Y-109327117D01*
X163466417Y-109397318D01*
X163411261Y-109479866D01*
X163373268Y-109571589D01*
X163353900Y-109668960D01*
X163353900Y-109752350D01*
X163316571Y-109736888D01*
X163219200Y-109717520D01*
X163119920Y-109717520D01*
X163022549Y-109736888D01*
X162930826Y-109774881D01*
X162848278Y-109830037D01*
X162778077Y-109900238D01*
X162722921Y-109982786D01*
X162684928Y-110074509D01*
X162665560Y-110171880D01*
X107329000Y-110171880D01*
X107329000Y-109173228D01*
X160314600Y-109173228D01*
X160314600Y-109268292D01*
X160333146Y-109361529D01*
X160369526Y-109449357D01*
X160422340Y-109528400D01*
X160489560Y-109595620D01*
X160568603Y-109648434D01*
X160656431Y-109684814D01*
X160749668Y-109703360D01*
X160844732Y-109703360D01*
X160937969Y-109684814D01*
X161025797Y-109648434D01*
X161104840Y-109595620D01*
X161172060Y-109528400D01*
X161224874Y-109449357D01*
X161261254Y-109361529D01*
X161279800Y-109268292D01*
X161279800Y-109173228D01*
X161261254Y-109079991D01*
X161224874Y-108992163D01*
X161172060Y-108913120D01*
X161104840Y-108845900D01*
X161025797Y-108793086D01*
X160937969Y-108756706D01*
X160844732Y-108738160D01*
X160749668Y-108738160D01*
X160656431Y-108756706D01*
X160568603Y-108793086D01*
X160489560Y-108845900D01*
X160422340Y-108913120D01*
X160369526Y-108992163D01*
X160333146Y-109079991D01*
X160314600Y-109173228D01*
X107329000Y-109173228D01*
X107329000Y-107845240D01*
X155286860Y-107845240D01*
X155286860Y-107944520D01*
X155306228Y-108041891D01*
X155344221Y-108133614D01*
X155399377Y-108216162D01*
X155469578Y-108286363D01*
X155552126Y-108341519D01*
X155643849Y-108379512D01*
X155741220Y-108398880D01*
X155840500Y-108398880D01*
X155937871Y-108379512D01*
X156029594Y-108341519D01*
X156112142Y-108286363D01*
X156182343Y-108216162D01*
X156237499Y-108133614D01*
X156275492Y-108041891D01*
X156294860Y-107944520D01*
X156294860Y-107845240D01*
X156294355Y-107842700D01*
X156683860Y-107842700D01*
X156683860Y-107941980D01*
X156703228Y-108039351D01*
X156741221Y-108131074D01*
X156796377Y-108213622D01*
X156866578Y-108283823D01*
X156949126Y-108338979D01*
X157040849Y-108376972D01*
X157138220Y-108396340D01*
X157237500Y-108396340D01*
X157334871Y-108376972D01*
X157426594Y-108338979D01*
X157509142Y-108283823D01*
X157579343Y-108213622D01*
X157634499Y-108131074D01*
X157672492Y-108039351D01*
X157691860Y-107941980D01*
X157691860Y-107842700D01*
X157672492Y-107745329D01*
X157634499Y-107653606D01*
X157579343Y-107571058D01*
X157509142Y-107500857D01*
X157426594Y-107445701D01*
X157334871Y-107407708D01*
X157237500Y-107388340D01*
X157138220Y-107388340D01*
X157040849Y-107407708D01*
X156949126Y-107445701D01*
X156866578Y-107500857D01*
X156796377Y-107571058D01*
X156741221Y-107653606D01*
X156703228Y-107745329D01*
X156683860Y-107842700D01*
X156294355Y-107842700D01*
X156275492Y-107747869D01*
X156237499Y-107656146D01*
X156182343Y-107573598D01*
X156112142Y-107503397D01*
X156029594Y-107448241D01*
X155937871Y-107410248D01*
X155840500Y-107390880D01*
X155741220Y-107390880D01*
X155643849Y-107410248D01*
X155552126Y-107448241D01*
X155469578Y-107503397D01*
X155399377Y-107573598D01*
X155344221Y-107656146D01*
X155306228Y-107747869D01*
X155286860Y-107845240D01*
X107329000Y-107845240D01*
X107329000Y-104964880D01*
X155053180Y-104964880D01*
X155053180Y-105064160D01*
X155072548Y-105161531D01*
X155110541Y-105253254D01*
X155165697Y-105335802D01*
X155235898Y-105406003D01*
X155318446Y-105461159D01*
X155410169Y-105499152D01*
X155507540Y-105518520D01*
X155606820Y-105518520D01*
X155704191Y-105499152D01*
X155795914Y-105461159D01*
X155878462Y-105406003D01*
X155948663Y-105335802D01*
X156003819Y-105253254D01*
X156041812Y-105161531D01*
X156061180Y-105064160D01*
X156061180Y-104964880D01*
X156041812Y-104867509D01*
X156003819Y-104775786D01*
X155948663Y-104693238D01*
X155878462Y-104623037D01*
X155795914Y-104567881D01*
X155704191Y-104529888D01*
X155606820Y-104510520D01*
X155507540Y-104510520D01*
X155410169Y-104529888D01*
X155318446Y-104567881D01*
X155235898Y-104623037D01*
X155165697Y-104693238D01*
X155110541Y-104775786D01*
X155072548Y-104867509D01*
X155053180Y-104964880D01*
X107329000Y-104964880D01*
X107329000Y-103834580D01*
X155050640Y-103834580D01*
X155050640Y-103933860D01*
X155070008Y-104031231D01*
X155108001Y-104122954D01*
X155163157Y-104205502D01*
X155233358Y-104275703D01*
X155315906Y-104330859D01*
X155407629Y-104368852D01*
X155505000Y-104388220D01*
X155604280Y-104388220D01*
X155701651Y-104368852D01*
X155793374Y-104330859D01*
X155875922Y-104275703D01*
X155946123Y-104205502D01*
X156001279Y-104122954D01*
X156039272Y-104031231D01*
X156058640Y-103933860D01*
X156058640Y-103834580D01*
X156039272Y-103737209D01*
X156001279Y-103645486D01*
X155946123Y-103562938D01*
X155875922Y-103492737D01*
X155793374Y-103437581D01*
X155701651Y-103399588D01*
X155604280Y-103380220D01*
X155505000Y-103380220D01*
X155407629Y-103399588D01*
X155315906Y-103437581D01*
X155233358Y-103492737D01*
X155163157Y-103562938D01*
X155108001Y-103645486D01*
X155070008Y-103737209D01*
X155050640Y-103834580D01*
X107329000Y-103834580D01*
X107329000Y-97628755D01*
X115696000Y-97628755D01*
X115696000Y-98171245D01*
X115801835Y-98703312D01*
X116009437Y-99204508D01*
X116310829Y-99655572D01*
X116694428Y-100039171D01*
X117145492Y-100340563D01*
X117646688Y-100548165D01*
X118178755Y-100654000D01*
X118721245Y-100654000D01*
X119253312Y-100548165D01*
X119754508Y-100340563D01*
X120205572Y-100039171D01*
X120589171Y-99655572D01*
X120890563Y-99204508D01*
X121098165Y-98703312D01*
X121204000Y-98171245D01*
X121204000Y-97628755D01*
X139846000Y-97628755D01*
X139846000Y-98171245D01*
X139951835Y-98703312D01*
X140159437Y-99204508D01*
X140460829Y-99655572D01*
X140844428Y-100039171D01*
X141295492Y-100340563D01*
X141796688Y-100548165D01*
X142328755Y-100654000D01*
X142871245Y-100654000D01*
X143403312Y-100548165D01*
X143904508Y-100340563D01*
X144355572Y-100039171D01*
X144739171Y-99655572D01*
X145040563Y-99204508D01*
X145248165Y-98703312D01*
X145354000Y-98171245D01*
X145354000Y-97628755D01*
X145248165Y-97096688D01*
X145186663Y-96948208D01*
X152681900Y-96948208D01*
X152681900Y-97043272D01*
X152700446Y-97136509D01*
X152736826Y-97224337D01*
X152789640Y-97303380D01*
X152856860Y-97370600D01*
X152935903Y-97423414D01*
X153023731Y-97459794D01*
X153116968Y-97478340D01*
X153212032Y-97478340D01*
X153305269Y-97459794D01*
X153393097Y-97423414D01*
X153472140Y-97370600D01*
X153539360Y-97303380D01*
X153592174Y-97224337D01*
X153628554Y-97136509D01*
X153647100Y-97043272D01*
X153647100Y-96948208D01*
X153644660Y-96935940D01*
X153988920Y-96935940D01*
X153988920Y-97035220D01*
X154008288Y-97132591D01*
X154046281Y-97224314D01*
X154101437Y-97306862D01*
X154171638Y-97377063D01*
X154254186Y-97432219D01*
X154345909Y-97470212D01*
X154443280Y-97489580D01*
X154542560Y-97489580D01*
X154639931Y-97470212D01*
X154731654Y-97432219D01*
X154814202Y-97377063D01*
X154884403Y-97306862D01*
X154939559Y-97224314D01*
X154977552Y-97132591D01*
X154996920Y-97035220D01*
X154996920Y-96946100D01*
X155081120Y-96946100D01*
X155081120Y-97045380D01*
X155100488Y-97142751D01*
X155138481Y-97234474D01*
X155193637Y-97317022D01*
X155263838Y-97387223D01*
X155346386Y-97442379D01*
X155438109Y-97480372D01*
X155535480Y-97499740D01*
X155634760Y-97499740D01*
X155732131Y-97480372D01*
X155823854Y-97442379D01*
X155906402Y-97387223D01*
X155976603Y-97317022D01*
X156031759Y-97234474D01*
X156069752Y-97142751D01*
X156089120Y-97045380D01*
X156089120Y-96951180D01*
X156173320Y-96951180D01*
X156173320Y-97050460D01*
X156192688Y-97147831D01*
X156230681Y-97239554D01*
X156285837Y-97322102D01*
X156356038Y-97392303D01*
X156438586Y-97447459D01*
X156530309Y-97485452D01*
X156627680Y-97504820D01*
X156726960Y-97504820D01*
X156824331Y-97485452D01*
X156916054Y-97447459D01*
X156998602Y-97392303D01*
X157068803Y-97322102D01*
X157123959Y-97239554D01*
X157161952Y-97147831D01*
X157181320Y-97050460D01*
X157181320Y-96951180D01*
X157180815Y-96948640D01*
X157265520Y-96948640D01*
X157265520Y-97047920D01*
X157284888Y-97145291D01*
X157322881Y-97237014D01*
X157378037Y-97319562D01*
X157448238Y-97389763D01*
X157530786Y-97444919D01*
X157622509Y-97482912D01*
X157719880Y-97502280D01*
X157819160Y-97502280D01*
X157916531Y-97482912D01*
X158008254Y-97444919D01*
X158090802Y-97389763D01*
X158161003Y-97319562D01*
X158216159Y-97237014D01*
X158254152Y-97145291D01*
X158273520Y-97047920D01*
X158273520Y-96948640D01*
X158254152Y-96851269D01*
X158216159Y-96759546D01*
X158161003Y-96676998D01*
X158090802Y-96606797D01*
X158032199Y-96567640D01*
X169876620Y-96567640D01*
X169876620Y-96666920D01*
X169895988Y-96764291D01*
X169933981Y-96856014D01*
X169989137Y-96938562D01*
X170059338Y-97008763D01*
X170141886Y-97063919D01*
X170233609Y-97101912D01*
X170330980Y-97121280D01*
X170430260Y-97121280D01*
X170527631Y-97101912D01*
X170619354Y-97063919D01*
X170701902Y-97008763D01*
X170772103Y-96938562D01*
X170827259Y-96856014D01*
X170865252Y-96764291D01*
X170884620Y-96666920D01*
X170884620Y-96567640D01*
X170865252Y-96470269D01*
X170827259Y-96378546D01*
X170772103Y-96295998D01*
X170701902Y-96225797D01*
X170619354Y-96170641D01*
X170527631Y-96132648D01*
X170430260Y-96113280D01*
X170330980Y-96113280D01*
X170233609Y-96132648D01*
X170141886Y-96170641D01*
X170059338Y-96225797D01*
X169989137Y-96295998D01*
X169933981Y-96378546D01*
X169895988Y-96470269D01*
X169876620Y-96567640D01*
X158032199Y-96567640D01*
X158008254Y-96551641D01*
X157916531Y-96513648D01*
X157819160Y-96494280D01*
X157719880Y-96494280D01*
X157622509Y-96513648D01*
X157530786Y-96551641D01*
X157448238Y-96606797D01*
X157378037Y-96676998D01*
X157322881Y-96759546D01*
X157284888Y-96851269D01*
X157265520Y-96948640D01*
X157180815Y-96948640D01*
X157161952Y-96853809D01*
X157123959Y-96762086D01*
X157068803Y-96679538D01*
X156998602Y-96609337D01*
X156916054Y-96554181D01*
X156824331Y-96516188D01*
X156726960Y-96496820D01*
X156627680Y-96496820D01*
X156530309Y-96516188D01*
X156438586Y-96554181D01*
X156356038Y-96609337D01*
X156285837Y-96679538D01*
X156230681Y-96762086D01*
X156192688Y-96853809D01*
X156173320Y-96951180D01*
X156089120Y-96951180D01*
X156089120Y-96946100D01*
X156069752Y-96848729D01*
X156031759Y-96757006D01*
X155976603Y-96674458D01*
X155906402Y-96604257D01*
X155823854Y-96549101D01*
X155732131Y-96511108D01*
X155634760Y-96491740D01*
X155535480Y-96491740D01*
X155438109Y-96511108D01*
X155346386Y-96549101D01*
X155263838Y-96604257D01*
X155193637Y-96674458D01*
X155138481Y-96757006D01*
X155100488Y-96848729D01*
X155081120Y-96946100D01*
X154996920Y-96946100D01*
X154996920Y-96935940D01*
X154977552Y-96838569D01*
X154939559Y-96746846D01*
X154884403Y-96664298D01*
X154814202Y-96594097D01*
X154731654Y-96538941D01*
X154639931Y-96500948D01*
X154542560Y-96481580D01*
X154443280Y-96481580D01*
X154345909Y-96500948D01*
X154254186Y-96538941D01*
X154171638Y-96594097D01*
X154101437Y-96664298D01*
X154046281Y-96746846D01*
X154008288Y-96838569D01*
X153988920Y-96935940D01*
X153644660Y-96935940D01*
X153628554Y-96854971D01*
X153592174Y-96767143D01*
X153539360Y-96688100D01*
X153472140Y-96620880D01*
X153393097Y-96568066D01*
X153305269Y-96531686D01*
X153212032Y-96513140D01*
X153116968Y-96513140D01*
X153023731Y-96531686D01*
X152935903Y-96568066D01*
X152856860Y-96620880D01*
X152789640Y-96688100D01*
X152736826Y-96767143D01*
X152700446Y-96854971D01*
X152681900Y-96948208D01*
X145186663Y-96948208D01*
X145040563Y-96595492D01*
X144739171Y-96144428D01*
X144355572Y-95760829D01*
X143904508Y-95459437D01*
X143403312Y-95251835D01*
X142871245Y-95146000D01*
X142328755Y-95146000D01*
X141796688Y-95251835D01*
X141295492Y-95459437D01*
X140844428Y-95760829D01*
X140460829Y-96144428D01*
X140159437Y-96595492D01*
X139951835Y-97096688D01*
X139846000Y-97628755D01*
X121204000Y-97628755D01*
X121098165Y-97096688D01*
X120890563Y-96595492D01*
X120589171Y-96144428D01*
X120205572Y-95760829D01*
X119754508Y-95459437D01*
X119253312Y-95251835D01*
X118721245Y-95146000D01*
X118178755Y-95146000D01*
X117646688Y-95251835D01*
X117145492Y-95459437D01*
X116694428Y-95760829D01*
X116310829Y-96144428D01*
X116009437Y-96595492D01*
X115801835Y-97096688D01*
X115696000Y-97628755D01*
X107329000Y-97628755D01*
X107329000Y-94329000D01*
X147648483Y-94329000D01*
X147615366Y-94408951D01*
G37*
%TD.AperFunction*%
M02*
