M48
METRIC,TZ
T1C0.254
T2C0.300
T3C3.000
%
G90
G05
T1
X146830Y-108940
X148079Y-94550
X149101Y-94550
X150170Y-94550
X153165Y-96996
X155821Y-125390
X155887Y-123003
X156475Y-125407
X156498Y-122982
X157109Y-122993
X157129Y-125423
X160797Y-109221
X168336Y-94918
X169750Y-95200
X169750Y-100050
T2
X147772Y-122993
X148773Y-122994
X149098Y-125398
X150424Y-122988
X151303Y-122993
X152182Y-123008
X153060Y-123000
X154493Y-96986
X154615Y-102861
X155555Y-103884
X155557Y-105015
X155562Y-110790
X155562Y-112016
X155562Y-113241
X155562Y-114466
X155585Y-96996
X155791Y-107895
X156677Y-97001
X157188Y-107892
X157770Y-96998
X160860Y-111220
X160866Y-110217
X160866Y-112276
X163170Y-110222
X163858Y-109719
X164729Y-108212
X169179Y-94656
X170381Y-96617
T3
X118450Y-97900
X118450Y-122100
X142600Y-97900
X142600Y-122100
T0
M30
