%TF.GenerationSoftware,KiCad,Pcbnew,5.1.9-73d0e3b20d~88~ubuntu20.04.1*%
%TF.CreationDate,2021-03-21T00:06:11+05:30*%
%TF.ProjectId,kimchi-epaper-lid,6b696d63-6869-42d6-9570-617065722d6c,v0.1*%
%TF.SameCoordinates,Original*%
%TF.FileFunction,Soldermask,Bot*%
%TF.FilePolarity,Negative*%
%FSLAX46Y46*%
G04 Gerber Fmt 4.6, Leading zero omitted, Abs format (unit mm)*
G04 Created by KiCad (PCBNEW 5.1.9-73d0e3b20d~88~ubuntu20.04.1) date 2021-03-21 00:06:11*
%MOMM*%
%LPD*%
G01*
G04 APERTURE LIST*
%ADD10C,0.100000*%
%ADD11C,5.101600*%
G04 APERTURE END LIST*
D10*
G36*
X162341800Y-100470060D02*
G01*
X164741800Y-100470060D01*
X164741800Y-101570060D01*
X165591800Y-101570060D01*
X165591800Y-103070060D01*
X162341800Y-103070060D01*
X162341800Y-100470060D01*
G37*
G36*
X162341800Y-119470060D02*
G01*
X164741800Y-119470060D01*
X164741800Y-118370060D01*
X165591800Y-118370060D01*
X165591800Y-116870060D01*
X162341800Y-116870060D01*
X162341800Y-119470060D01*
G37*
G36*
X162341800Y-100470060D02*
G01*
X164741800Y-100470060D01*
X164741800Y-101570060D01*
X165591800Y-101570060D01*
X165591800Y-103070060D01*
X162341800Y-103070060D01*
X162341800Y-100470060D01*
G37*
G36*
X162341800Y-119470060D02*
G01*
X164741800Y-119470060D01*
X164741800Y-118370060D01*
X165591800Y-118370060D01*
X165591800Y-116870060D01*
X162341800Y-116870060D01*
X162341800Y-119470060D01*
G37*
D11*
X142600000Y-122100000D03*
X142600000Y-97900000D03*
X118450000Y-122100000D03*
X118450000Y-97900000D03*
G36*
G01*
X148850800Y-123410000D02*
X148850800Y-124910000D01*
G75*
G02*
X148800000Y-124960800I-50800J0D01*
G01*
X148600000Y-124960800D01*
G75*
G02*
X148549200Y-124910000I0J50800D01*
G01*
X148549200Y-123410000D01*
G75*
G02*
X148600000Y-123359200I50800J0D01*
G01*
X148800000Y-123359200D01*
G75*
G02*
X148850800Y-123410000I0J-50800D01*
G01*
G37*
G36*
G01*
X149250800Y-123410000D02*
X149250800Y-124910000D01*
G75*
G02*
X149200000Y-124960800I-50800J0D01*
G01*
X149000000Y-124960800D01*
G75*
G02*
X148949200Y-124910000I0J50800D01*
G01*
X148949200Y-123410000D01*
G75*
G02*
X149000000Y-123359200I50800J0D01*
G01*
X149200000Y-123359200D01*
G75*
G02*
X149250800Y-123410000I0J-50800D01*
G01*
G37*
G36*
G01*
X149650800Y-123410000D02*
X149650800Y-124910000D01*
G75*
G02*
X149600000Y-124960800I-50800J0D01*
G01*
X149400000Y-124960800D01*
G75*
G02*
X149349200Y-124910000I0J50800D01*
G01*
X149349200Y-123410000D01*
G75*
G02*
X149400000Y-123359200I50800J0D01*
G01*
X149600000Y-123359200D01*
G75*
G02*
X149650800Y-123410000I0J-50800D01*
G01*
G37*
G36*
G01*
X150050800Y-123410000D02*
X150050800Y-124910000D01*
G75*
G02*
X150000000Y-124960800I-50800J0D01*
G01*
X149800000Y-124960800D01*
G75*
G02*
X149749200Y-124910000I0J50800D01*
G01*
X149749200Y-123410000D01*
G75*
G02*
X149800000Y-123359200I50800J0D01*
G01*
X150000000Y-123359200D01*
G75*
G02*
X150050800Y-123410000I0J-50800D01*
G01*
G37*
G36*
G01*
X150450800Y-123410000D02*
X150450800Y-124910000D01*
G75*
G02*
X150400000Y-124960800I-50800J0D01*
G01*
X150200000Y-124960800D01*
G75*
G02*
X150149200Y-124910000I0J50800D01*
G01*
X150149200Y-123410000D01*
G75*
G02*
X150200000Y-123359200I50800J0D01*
G01*
X150400000Y-123359200D01*
G75*
G02*
X150450800Y-123410000I0J-50800D01*
G01*
G37*
G36*
G01*
X146850800Y-121090000D02*
X146850800Y-122590000D01*
G75*
G02*
X146800000Y-122640800I-50800J0D01*
G01*
X146600000Y-122640800D01*
G75*
G02*
X146549200Y-122590000I0J50800D01*
G01*
X146549200Y-121090000D01*
G75*
G02*
X146600000Y-121039200I50800J0D01*
G01*
X146800000Y-121039200D01*
G75*
G02*
X146850800Y-121090000I0J-50800D01*
G01*
G37*
G36*
G01*
X150850800Y-123410000D02*
X150850800Y-124910000D01*
G75*
G02*
X150800000Y-124960800I-50800J0D01*
G01*
X150600000Y-124960800D01*
G75*
G02*
X150549200Y-124910000I0J50800D01*
G01*
X150549200Y-123410000D01*
G75*
G02*
X150600000Y-123359200I50800J0D01*
G01*
X150800000Y-123359200D01*
G75*
G02*
X150850800Y-123410000I0J-50800D01*
G01*
G37*
G36*
G01*
X147250800Y-121090000D02*
X147250800Y-122590000D01*
G75*
G02*
X147200000Y-122640800I-50800J0D01*
G01*
X147000000Y-122640800D01*
G75*
G02*
X146949200Y-122590000I0J50800D01*
G01*
X146949200Y-121090000D01*
G75*
G02*
X147000000Y-121039200I50800J0D01*
G01*
X147200000Y-121039200D01*
G75*
G02*
X147250800Y-121090000I0J-50800D01*
G01*
G37*
G36*
G01*
X151250800Y-123410000D02*
X151250800Y-124910000D01*
G75*
G02*
X151200000Y-124960800I-50800J0D01*
G01*
X151000000Y-124960800D01*
G75*
G02*
X150949200Y-124910000I0J50800D01*
G01*
X150949200Y-123410000D01*
G75*
G02*
X151000000Y-123359200I50800J0D01*
G01*
X151200000Y-123359200D01*
G75*
G02*
X151250800Y-123410000I0J-50800D01*
G01*
G37*
G36*
G01*
X147650800Y-121090000D02*
X147650800Y-122590000D01*
G75*
G02*
X147600000Y-122640800I-50800J0D01*
G01*
X147400000Y-122640800D01*
G75*
G02*
X147349200Y-122590000I0J50800D01*
G01*
X147349200Y-121090000D01*
G75*
G02*
X147400000Y-121039200I50800J0D01*
G01*
X147600000Y-121039200D01*
G75*
G02*
X147650800Y-121090000I0J-50800D01*
G01*
G37*
G36*
G01*
X151650800Y-123410000D02*
X151650800Y-124910000D01*
G75*
G02*
X151600000Y-124960800I-50800J0D01*
G01*
X151400000Y-124960800D01*
G75*
G02*
X151349200Y-124910000I0J50800D01*
G01*
X151349200Y-123410000D01*
G75*
G02*
X151400000Y-123359200I50800J0D01*
G01*
X151600000Y-123359200D01*
G75*
G02*
X151650800Y-123410000I0J-50800D01*
G01*
G37*
G36*
G01*
X148050800Y-121090000D02*
X148050800Y-122590000D01*
G75*
G02*
X148000000Y-122640800I-50800J0D01*
G01*
X147800000Y-122640800D01*
G75*
G02*
X147749200Y-122590000I0J50800D01*
G01*
X147749200Y-121090000D01*
G75*
G02*
X147800000Y-121039200I50800J0D01*
G01*
X148000000Y-121039200D01*
G75*
G02*
X148050800Y-121090000I0J-50800D01*
G01*
G37*
G36*
G01*
X152050800Y-123410000D02*
X152050800Y-124910000D01*
G75*
G02*
X152000000Y-124960800I-50800J0D01*
G01*
X151800000Y-124960800D01*
G75*
G02*
X151749200Y-124910000I0J50800D01*
G01*
X151749200Y-123410000D01*
G75*
G02*
X151800000Y-123359200I50800J0D01*
G01*
X152000000Y-123359200D01*
G75*
G02*
X152050800Y-123410000I0J-50800D01*
G01*
G37*
G36*
G01*
X148450800Y-121090000D02*
X148450800Y-122590000D01*
G75*
G02*
X148400000Y-122640800I-50800J0D01*
G01*
X148200000Y-122640800D01*
G75*
G02*
X148149200Y-122590000I0J50800D01*
G01*
X148149200Y-121090000D01*
G75*
G02*
X148200000Y-121039200I50800J0D01*
G01*
X148400000Y-121039200D01*
G75*
G02*
X148450800Y-121090000I0J-50800D01*
G01*
G37*
G36*
G01*
X152450800Y-123410000D02*
X152450800Y-124910000D01*
G75*
G02*
X152400000Y-124960800I-50800J0D01*
G01*
X152200000Y-124960800D01*
G75*
G02*
X152149200Y-124910000I0J50800D01*
G01*
X152149200Y-123410000D01*
G75*
G02*
X152200000Y-123359200I50800J0D01*
G01*
X152400000Y-123359200D01*
G75*
G02*
X152450800Y-123410000I0J-50800D01*
G01*
G37*
G36*
G01*
X148850800Y-121090000D02*
X148850800Y-122590000D01*
G75*
G02*
X148800000Y-122640800I-50800J0D01*
G01*
X148600000Y-122640800D01*
G75*
G02*
X148549200Y-122590000I0J50800D01*
G01*
X148549200Y-121090000D01*
G75*
G02*
X148600000Y-121039200I50800J0D01*
G01*
X148800000Y-121039200D01*
G75*
G02*
X148850800Y-121090000I0J-50800D01*
G01*
G37*
G36*
G01*
X152850800Y-123410000D02*
X152850800Y-124910000D01*
G75*
G02*
X152800000Y-124960800I-50800J0D01*
G01*
X152600000Y-124960800D01*
G75*
G02*
X152549200Y-124910000I0J50800D01*
G01*
X152549200Y-123410000D01*
G75*
G02*
X152600000Y-123359200I50800J0D01*
G01*
X152800000Y-123359200D01*
G75*
G02*
X152850800Y-123410000I0J-50800D01*
G01*
G37*
G36*
G01*
X149250800Y-121090000D02*
X149250800Y-122590000D01*
G75*
G02*
X149200000Y-122640800I-50800J0D01*
G01*
X149000000Y-122640800D01*
G75*
G02*
X148949200Y-122590000I0J50800D01*
G01*
X148949200Y-121090000D01*
G75*
G02*
X149000000Y-121039200I50800J0D01*
G01*
X149200000Y-121039200D01*
G75*
G02*
X149250800Y-121090000I0J-50800D01*
G01*
G37*
G36*
G01*
X153250800Y-123410000D02*
X153250800Y-124910000D01*
G75*
G02*
X153200000Y-124960800I-50800J0D01*
G01*
X153000000Y-124960800D01*
G75*
G02*
X152949200Y-124910000I0J50800D01*
G01*
X152949200Y-123410000D01*
G75*
G02*
X153000000Y-123359200I50800J0D01*
G01*
X153200000Y-123359200D01*
G75*
G02*
X153250800Y-123410000I0J-50800D01*
G01*
G37*
G36*
G01*
X149650800Y-121090000D02*
X149650800Y-122590000D01*
G75*
G02*
X149600000Y-122640800I-50800J0D01*
G01*
X149400000Y-122640800D01*
G75*
G02*
X149349200Y-122590000I0J50800D01*
G01*
X149349200Y-121090000D01*
G75*
G02*
X149400000Y-121039200I50800J0D01*
G01*
X149600000Y-121039200D01*
G75*
G02*
X149650800Y-121090000I0J-50800D01*
G01*
G37*
G36*
G01*
X153650800Y-123410000D02*
X153650800Y-124910000D01*
G75*
G02*
X153600000Y-124960800I-50800J0D01*
G01*
X153400000Y-124960800D01*
G75*
G02*
X153349200Y-124910000I0J50800D01*
G01*
X153349200Y-123410000D01*
G75*
G02*
X153400000Y-123359200I50800J0D01*
G01*
X153600000Y-123359200D01*
G75*
G02*
X153650800Y-123410000I0J-50800D01*
G01*
G37*
G36*
G01*
X150050800Y-121090000D02*
X150050800Y-122590000D01*
G75*
G02*
X150000000Y-122640800I-50800J0D01*
G01*
X149800000Y-122640800D01*
G75*
G02*
X149749200Y-122590000I0J50800D01*
G01*
X149749200Y-121090000D01*
G75*
G02*
X149800000Y-121039200I50800J0D01*
G01*
X150000000Y-121039200D01*
G75*
G02*
X150050800Y-121090000I0J-50800D01*
G01*
G37*
G36*
G01*
X154050800Y-123410000D02*
X154050800Y-124910000D01*
G75*
G02*
X154000000Y-124960800I-50800J0D01*
G01*
X153800000Y-124960800D01*
G75*
G02*
X153749200Y-124910000I0J50800D01*
G01*
X153749200Y-123410000D01*
G75*
G02*
X153800000Y-123359200I50800J0D01*
G01*
X154000000Y-123359200D01*
G75*
G02*
X154050800Y-123410000I0J-50800D01*
G01*
G37*
G36*
G01*
X150450800Y-121090000D02*
X150450800Y-122590000D01*
G75*
G02*
X150400000Y-122640800I-50800J0D01*
G01*
X150200000Y-122640800D01*
G75*
G02*
X150149200Y-122590000I0J50800D01*
G01*
X150149200Y-121090000D01*
G75*
G02*
X150200000Y-121039200I50800J0D01*
G01*
X150400000Y-121039200D01*
G75*
G02*
X150450800Y-121090000I0J-50800D01*
G01*
G37*
G36*
G01*
X154450800Y-123410000D02*
X154450800Y-124910000D01*
G75*
G02*
X154400000Y-124960800I-50800J0D01*
G01*
X154200000Y-124960800D01*
G75*
G02*
X154149200Y-124910000I0J50800D01*
G01*
X154149200Y-123410000D01*
G75*
G02*
X154200000Y-123359200I50800J0D01*
G01*
X154400000Y-123359200D01*
G75*
G02*
X154450800Y-123410000I0J-50800D01*
G01*
G37*
G36*
G01*
X150850800Y-121090000D02*
X150850800Y-122590000D01*
G75*
G02*
X150800000Y-122640800I-50800J0D01*
G01*
X150600000Y-122640800D01*
G75*
G02*
X150549200Y-122590000I0J50800D01*
G01*
X150549200Y-121090000D01*
G75*
G02*
X150600000Y-121039200I50800J0D01*
G01*
X150800000Y-121039200D01*
G75*
G02*
X150850800Y-121090000I0J-50800D01*
G01*
G37*
G36*
G01*
X154850800Y-123410000D02*
X154850800Y-124910000D01*
G75*
G02*
X154800000Y-124960800I-50800J0D01*
G01*
X154600000Y-124960800D01*
G75*
G02*
X154549200Y-124910000I0J50800D01*
G01*
X154549200Y-123410000D01*
G75*
G02*
X154600000Y-123359200I50800J0D01*
G01*
X154800000Y-123359200D01*
G75*
G02*
X154850800Y-123410000I0J-50800D01*
G01*
G37*
G36*
G01*
X151250800Y-121090000D02*
X151250800Y-122590000D01*
G75*
G02*
X151200000Y-122640800I-50800J0D01*
G01*
X151000000Y-122640800D01*
G75*
G02*
X150949200Y-122590000I0J50800D01*
G01*
X150949200Y-121090000D01*
G75*
G02*
X151000000Y-121039200I50800J0D01*
G01*
X151200000Y-121039200D01*
G75*
G02*
X151250800Y-121090000I0J-50800D01*
G01*
G37*
G36*
G01*
X155250800Y-123410000D02*
X155250800Y-124910000D01*
G75*
G02*
X155200000Y-124960800I-50800J0D01*
G01*
X155000000Y-124960800D01*
G75*
G02*
X154949200Y-124910000I0J50800D01*
G01*
X154949200Y-123410000D01*
G75*
G02*
X155000000Y-123359200I50800J0D01*
G01*
X155200000Y-123359200D01*
G75*
G02*
X155250800Y-123410000I0J-50800D01*
G01*
G37*
G36*
G01*
X151650800Y-121090000D02*
X151650800Y-122590000D01*
G75*
G02*
X151600000Y-122640800I-50800J0D01*
G01*
X151400000Y-122640800D01*
G75*
G02*
X151349200Y-122590000I0J50800D01*
G01*
X151349200Y-121090000D01*
G75*
G02*
X151400000Y-121039200I50800J0D01*
G01*
X151600000Y-121039200D01*
G75*
G02*
X151650800Y-121090000I0J-50800D01*
G01*
G37*
G36*
G01*
X155650800Y-123410000D02*
X155650800Y-124910000D01*
G75*
G02*
X155600000Y-124960800I-50800J0D01*
G01*
X155400000Y-124960800D01*
G75*
G02*
X155349200Y-124910000I0J50800D01*
G01*
X155349200Y-123410000D01*
G75*
G02*
X155400000Y-123359200I50800J0D01*
G01*
X155600000Y-123359200D01*
G75*
G02*
X155650800Y-123410000I0J-50800D01*
G01*
G37*
G36*
G01*
X152050800Y-121090000D02*
X152050800Y-122590000D01*
G75*
G02*
X152000000Y-122640800I-50800J0D01*
G01*
X151800000Y-122640800D01*
G75*
G02*
X151749200Y-122590000I0J50800D01*
G01*
X151749200Y-121090000D01*
G75*
G02*
X151800000Y-121039200I50800J0D01*
G01*
X152000000Y-121039200D01*
G75*
G02*
X152050800Y-121090000I0J-50800D01*
G01*
G37*
G36*
G01*
X156050800Y-123410000D02*
X156050800Y-124910000D01*
G75*
G02*
X156000000Y-124960800I-50800J0D01*
G01*
X155800000Y-124960800D01*
G75*
G02*
X155749200Y-124910000I0J50800D01*
G01*
X155749200Y-123410000D01*
G75*
G02*
X155800000Y-123359200I50800J0D01*
G01*
X156000000Y-123359200D01*
G75*
G02*
X156050800Y-123410000I0J-50800D01*
G01*
G37*
G36*
G01*
X152450800Y-121090000D02*
X152450800Y-122590000D01*
G75*
G02*
X152400000Y-122640800I-50800J0D01*
G01*
X152200000Y-122640800D01*
G75*
G02*
X152149200Y-122590000I0J50800D01*
G01*
X152149200Y-121090000D01*
G75*
G02*
X152200000Y-121039200I50800J0D01*
G01*
X152400000Y-121039200D01*
G75*
G02*
X152450800Y-121090000I0J-50800D01*
G01*
G37*
G36*
G01*
X156450800Y-123410000D02*
X156450800Y-124910000D01*
G75*
G02*
X156400000Y-124960800I-50800J0D01*
G01*
X156200000Y-124960800D01*
G75*
G02*
X156149200Y-124910000I0J50800D01*
G01*
X156149200Y-123410000D01*
G75*
G02*
X156200000Y-123359200I50800J0D01*
G01*
X156400000Y-123359200D01*
G75*
G02*
X156450800Y-123410000I0J-50800D01*
G01*
G37*
G36*
G01*
X152850800Y-121090000D02*
X152850800Y-122590000D01*
G75*
G02*
X152800000Y-122640800I-50800J0D01*
G01*
X152600000Y-122640800D01*
G75*
G02*
X152549200Y-122590000I0J50800D01*
G01*
X152549200Y-121090000D01*
G75*
G02*
X152600000Y-121039200I50800J0D01*
G01*
X152800000Y-121039200D01*
G75*
G02*
X152850800Y-121090000I0J-50800D01*
G01*
G37*
G36*
G01*
X156850800Y-123410000D02*
X156850800Y-124910000D01*
G75*
G02*
X156800000Y-124960800I-50800J0D01*
G01*
X156600000Y-124960800D01*
G75*
G02*
X156549200Y-124910000I0J50800D01*
G01*
X156549200Y-123410000D01*
G75*
G02*
X156600000Y-123359200I50800J0D01*
G01*
X156800000Y-123359200D01*
G75*
G02*
X156850800Y-123410000I0J-50800D01*
G01*
G37*
G36*
G01*
X153250800Y-121090000D02*
X153250800Y-122590000D01*
G75*
G02*
X153200000Y-122640800I-50800J0D01*
G01*
X153000000Y-122640800D01*
G75*
G02*
X152949200Y-122590000I0J50800D01*
G01*
X152949200Y-121090000D01*
G75*
G02*
X153000000Y-121039200I50800J0D01*
G01*
X153200000Y-121039200D01*
G75*
G02*
X153250800Y-121090000I0J-50800D01*
G01*
G37*
G36*
G01*
X157250800Y-123410000D02*
X157250800Y-124910000D01*
G75*
G02*
X157200000Y-124960800I-50800J0D01*
G01*
X157000000Y-124960800D01*
G75*
G02*
X156949200Y-124910000I0J50800D01*
G01*
X156949200Y-123410000D01*
G75*
G02*
X157000000Y-123359200I50800J0D01*
G01*
X157200000Y-123359200D01*
G75*
G02*
X157250800Y-123410000I0J-50800D01*
G01*
G37*
G36*
G01*
X153650800Y-121090000D02*
X153650800Y-122590000D01*
G75*
G02*
X153600000Y-122640800I-50800J0D01*
G01*
X153400000Y-122640800D01*
G75*
G02*
X153349200Y-122590000I0J50800D01*
G01*
X153349200Y-121090000D01*
G75*
G02*
X153400000Y-121039200I50800J0D01*
G01*
X153600000Y-121039200D01*
G75*
G02*
X153650800Y-121090000I0J-50800D01*
G01*
G37*
G36*
G01*
X157650800Y-123410000D02*
X157650800Y-124910000D01*
G75*
G02*
X157600000Y-124960800I-50800J0D01*
G01*
X157400000Y-124960800D01*
G75*
G02*
X157349200Y-124910000I0J50800D01*
G01*
X157349200Y-123410000D01*
G75*
G02*
X157400000Y-123359200I50800J0D01*
G01*
X157600000Y-123359200D01*
G75*
G02*
X157650800Y-123410000I0J-50800D01*
G01*
G37*
G36*
G01*
X154050800Y-121090000D02*
X154050800Y-122590000D01*
G75*
G02*
X154000000Y-122640800I-50800J0D01*
G01*
X153800000Y-122640800D01*
G75*
G02*
X153749200Y-122590000I0J50800D01*
G01*
X153749200Y-121090000D01*
G75*
G02*
X153800000Y-121039200I50800J0D01*
G01*
X154000000Y-121039200D01*
G75*
G02*
X154050800Y-121090000I0J-50800D01*
G01*
G37*
G36*
G01*
X158050800Y-123410000D02*
X158050800Y-124910000D01*
G75*
G02*
X158000000Y-124960800I-50800J0D01*
G01*
X157800000Y-124960800D01*
G75*
G02*
X157749200Y-124910000I0J50800D01*
G01*
X157749200Y-123410000D01*
G75*
G02*
X157800000Y-123359200I50800J0D01*
G01*
X158000000Y-123359200D01*
G75*
G02*
X158050800Y-123410000I0J-50800D01*
G01*
G37*
G36*
G01*
X154450800Y-121090000D02*
X154450800Y-122590000D01*
G75*
G02*
X154400000Y-122640800I-50800J0D01*
G01*
X154200000Y-122640800D01*
G75*
G02*
X154149200Y-122590000I0J50800D01*
G01*
X154149200Y-121090000D01*
G75*
G02*
X154200000Y-121039200I50800J0D01*
G01*
X154400000Y-121039200D01*
G75*
G02*
X154450800Y-121090000I0J-50800D01*
G01*
G37*
G36*
G01*
X158450800Y-123410000D02*
X158450800Y-124910000D01*
G75*
G02*
X158400000Y-124960800I-50800J0D01*
G01*
X158200000Y-124960800D01*
G75*
G02*
X158149200Y-124910000I0J50800D01*
G01*
X158149200Y-123410000D01*
G75*
G02*
X158200000Y-123359200I50800J0D01*
G01*
X158400000Y-123359200D01*
G75*
G02*
X158450800Y-123410000I0J-50800D01*
G01*
G37*
G36*
G01*
X154850800Y-121090000D02*
X154850800Y-122590000D01*
G75*
G02*
X154800000Y-122640800I-50800J0D01*
G01*
X154600000Y-122640800D01*
G75*
G02*
X154549200Y-122590000I0J50800D01*
G01*
X154549200Y-121090000D01*
G75*
G02*
X154600000Y-121039200I50800J0D01*
G01*
X154800000Y-121039200D01*
G75*
G02*
X154850800Y-121090000I0J-50800D01*
G01*
G37*
G36*
G01*
X146850800Y-123410000D02*
X146850800Y-124910000D01*
G75*
G02*
X146800000Y-124960800I-50800J0D01*
G01*
X146600000Y-124960800D01*
G75*
G02*
X146549200Y-124910000I0J50800D01*
G01*
X146549200Y-123410000D01*
G75*
G02*
X146600000Y-123359200I50800J0D01*
G01*
X146800000Y-123359200D01*
G75*
G02*
X146850800Y-123410000I0J-50800D01*
G01*
G37*
G36*
G01*
X155250800Y-121090000D02*
X155250800Y-122590000D01*
G75*
G02*
X155200000Y-122640800I-50800J0D01*
G01*
X155000000Y-122640800D01*
G75*
G02*
X154949200Y-122590000I0J50800D01*
G01*
X154949200Y-121090000D01*
G75*
G02*
X155000000Y-121039200I50800J0D01*
G01*
X155200000Y-121039200D01*
G75*
G02*
X155250800Y-121090000I0J-50800D01*
G01*
G37*
G36*
G01*
X147250800Y-123410000D02*
X147250800Y-124910000D01*
G75*
G02*
X147200000Y-124960800I-50800J0D01*
G01*
X147000000Y-124960800D01*
G75*
G02*
X146949200Y-124910000I0J50800D01*
G01*
X146949200Y-123410000D01*
G75*
G02*
X147000000Y-123359200I50800J0D01*
G01*
X147200000Y-123359200D01*
G75*
G02*
X147250800Y-123410000I0J-50800D01*
G01*
G37*
G36*
G01*
X155650800Y-121090000D02*
X155650800Y-122590000D01*
G75*
G02*
X155600000Y-122640800I-50800J0D01*
G01*
X155400000Y-122640800D01*
G75*
G02*
X155349200Y-122590000I0J50800D01*
G01*
X155349200Y-121090000D01*
G75*
G02*
X155400000Y-121039200I50800J0D01*
G01*
X155600000Y-121039200D01*
G75*
G02*
X155650800Y-121090000I0J-50800D01*
G01*
G37*
G36*
G01*
X147650800Y-123410000D02*
X147650800Y-124910000D01*
G75*
G02*
X147600000Y-124960800I-50800J0D01*
G01*
X147400000Y-124960800D01*
G75*
G02*
X147349200Y-124910000I0J50800D01*
G01*
X147349200Y-123410000D01*
G75*
G02*
X147400000Y-123359200I50800J0D01*
G01*
X147600000Y-123359200D01*
G75*
G02*
X147650800Y-123410000I0J-50800D01*
G01*
G37*
G36*
G01*
X156050800Y-121090000D02*
X156050800Y-122590000D01*
G75*
G02*
X156000000Y-122640800I-50800J0D01*
G01*
X155800000Y-122640800D01*
G75*
G02*
X155749200Y-122590000I0J50800D01*
G01*
X155749200Y-121090000D01*
G75*
G02*
X155800000Y-121039200I50800J0D01*
G01*
X156000000Y-121039200D01*
G75*
G02*
X156050800Y-121090000I0J-50800D01*
G01*
G37*
G36*
G01*
X148050800Y-123410000D02*
X148050800Y-124910000D01*
G75*
G02*
X148000000Y-124960800I-50800J0D01*
G01*
X147800000Y-124960800D01*
G75*
G02*
X147749200Y-124910000I0J50800D01*
G01*
X147749200Y-123410000D01*
G75*
G02*
X147800000Y-123359200I50800J0D01*
G01*
X148000000Y-123359200D01*
G75*
G02*
X148050800Y-123410000I0J-50800D01*
G01*
G37*
G36*
G01*
X156450800Y-121090000D02*
X156450800Y-122590000D01*
G75*
G02*
X156400000Y-122640800I-50800J0D01*
G01*
X156200000Y-122640800D01*
G75*
G02*
X156149200Y-122590000I0J50800D01*
G01*
X156149200Y-121090000D01*
G75*
G02*
X156200000Y-121039200I50800J0D01*
G01*
X156400000Y-121039200D01*
G75*
G02*
X156450800Y-121090000I0J-50800D01*
G01*
G37*
G36*
G01*
X148450800Y-123410000D02*
X148450800Y-124910000D01*
G75*
G02*
X148400000Y-124960800I-50800J0D01*
G01*
X148200000Y-124960800D01*
G75*
G02*
X148149200Y-124910000I0J50800D01*
G01*
X148149200Y-123410000D01*
G75*
G02*
X148200000Y-123359200I50800J0D01*
G01*
X148400000Y-123359200D01*
G75*
G02*
X148450800Y-123410000I0J-50800D01*
G01*
G37*
G36*
G01*
X156850800Y-121090000D02*
X156850800Y-122590000D01*
G75*
G02*
X156800000Y-122640800I-50800J0D01*
G01*
X156600000Y-122640800D01*
G75*
G02*
X156549200Y-122590000I0J50800D01*
G01*
X156549200Y-121090000D01*
G75*
G02*
X156600000Y-121039200I50800J0D01*
G01*
X156800000Y-121039200D01*
G75*
G02*
X156850800Y-121090000I0J-50800D01*
G01*
G37*
G36*
G01*
X157250800Y-121090000D02*
X157250800Y-122590000D01*
G75*
G02*
X157200000Y-122640800I-50800J0D01*
G01*
X157000000Y-122640800D01*
G75*
G02*
X156949200Y-122590000I0J50800D01*
G01*
X156949200Y-121090000D01*
G75*
G02*
X157000000Y-121039200I50800J0D01*
G01*
X157200000Y-121039200D01*
G75*
G02*
X157250800Y-121090000I0J-50800D01*
G01*
G37*
G36*
G01*
X157650800Y-121090000D02*
X157650800Y-122590000D01*
G75*
G02*
X157600000Y-122640800I-50800J0D01*
G01*
X157400000Y-122640800D01*
G75*
G02*
X157349200Y-122590000I0J50800D01*
G01*
X157349200Y-121090000D01*
G75*
G02*
X157400000Y-121039200I50800J0D01*
G01*
X157600000Y-121039200D01*
G75*
G02*
X157650800Y-121090000I0J-50800D01*
G01*
G37*
G36*
G01*
X158050800Y-121090000D02*
X158050800Y-122590000D01*
G75*
G02*
X158000000Y-122640800I-50800J0D01*
G01*
X157800000Y-122640800D01*
G75*
G02*
X157749200Y-122590000I0J50800D01*
G01*
X157749200Y-121090000D01*
G75*
G02*
X157800000Y-121039200I50800J0D01*
G01*
X158000000Y-121039200D01*
G75*
G02*
X158050800Y-121090000I0J-50800D01*
G01*
G37*
G36*
G01*
X158450800Y-121090000D02*
X158450800Y-122590000D01*
G75*
G02*
X158400000Y-122640800I-50800J0D01*
G01*
X158200000Y-122640800D01*
G75*
G02*
X158149200Y-122590000I0J50800D01*
G01*
X158149200Y-121090000D01*
G75*
G02*
X158200000Y-121039200I50800J0D01*
G01*
X158400000Y-121039200D01*
G75*
G02*
X158450800Y-121090000I0J-50800D01*
G01*
G37*
G36*
G01*
X148850800Y-97410000D02*
X148850800Y-98910000D01*
G75*
G02*
X148800000Y-98960800I-50800J0D01*
G01*
X148600000Y-98960800D01*
G75*
G02*
X148549200Y-98910000I0J50800D01*
G01*
X148549200Y-97410000D01*
G75*
G02*
X148600000Y-97359200I50800J0D01*
G01*
X148800000Y-97359200D01*
G75*
G02*
X148850800Y-97410000I0J-50800D01*
G01*
G37*
G36*
G01*
X149250800Y-97410000D02*
X149250800Y-98910000D01*
G75*
G02*
X149200000Y-98960800I-50800J0D01*
G01*
X149000000Y-98960800D01*
G75*
G02*
X148949200Y-98910000I0J50800D01*
G01*
X148949200Y-97410000D01*
G75*
G02*
X149000000Y-97359200I50800J0D01*
G01*
X149200000Y-97359200D01*
G75*
G02*
X149250800Y-97410000I0J-50800D01*
G01*
G37*
G36*
G01*
X149650800Y-97410000D02*
X149650800Y-98910000D01*
G75*
G02*
X149600000Y-98960800I-50800J0D01*
G01*
X149400000Y-98960800D01*
G75*
G02*
X149349200Y-98910000I0J50800D01*
G01*
X149349200Y-97410000D01*
G75*
G02*
X149400000Y-97359200I50800J0D01*
G01*
X149600000Y-97359200D01*
G75*
G02*
X149650800Y-97410000I0J-50800D01*
G01*
G37*
G36*
G01*
X150050800Y-97410000D02*
X150050800Y-98910000D01*
G75*
G02*
X150000000Y-98960800I-50800J0D01*
G01*
X149800000Y-98960800D01*
G75*
G02*
X149749200Y-98910000I0J50800D01*
G01*
X149749200Y-97410000D01*
G75*
G02*
X149800000Y-97359200I50800J0D01*
G01*
X150000000Y-97359200D01*
G75*
G02*
X150050800Y-97410000I0J-50800D01*
G01*
G37*
G36*
G01*
X150450800Y-97410000D02*
X150450800Y-98910000D01*
G75*
G02*
X150400000Y-98960800I-50800J0D01*
G01*
X150200000Y-98960800D01*
G75*
G02*
X150149200Y-98910000I0J50800D01*
G01*
X150149200Y-97410000D01*
G75*
G02*
X150200000Y-97359200I50800J0D01*
G01*
X150400000Y-97359200D01*
G75*
G02*
X150450800Y-97410000I0J-50800D01*
G01*
G37*
G36*
G01*
X146850800Y-95090000D02*
X146850800Y-96590000D01*
G75*
G02*
X146800000Y-96640800I-50800J0D01*
G01*
X146600000Y-96640800D01*
G75*
G02*
X146549200Y-96590000I0J50800D01*
G01*
X146549200Y-95090000D01*
G75*
G02*
X146600000Y-95039200I50800J0D01*
G01*
X146800000Y-95039200D01*
G75*
G02*
X146850800Y-95090000I0J-50800D01*
G01*
G37*
G36*
G01*
X150850800Y-97410000D02*
X150850800Y-98910000D01*
G75*
G02*
X150800000Y-98960800I-50800J0D01*
G01*
X150600000Y-98960800D01*
G75*
G02*
X150549200Y-98910000I0J50800D01*
G01*
X150549200Y-97410000D01*
G75*
G02*
X150600000Y-97359200I50800J0D01*
G01*
X150800000Y-97359200D01*
G75*
G02*
X150850800Y-97410000I0J-50800D01*
G01*
G37*
G36*
G01*
X147250800Y-95090000D02*
X147250800Y-96590000D01*
G75*
G02*
X147200000Y-96640800I-50800J0D01*
G01*
X147000000Y-96640800D01*
G75*
G02*
X146949200Y-96590000I0J50800D01*
G01*
X146949200Y-95090000D01*
G75*
G02*
X147000000Y-95039200I50800J0D01*
G01*
X147200000Y-95039200D01*
G75*
G02*
X147250800Y-95090000I0J-50800D01*
G01*
G37*
G36*
G01*
X151250800Y-97410000D02*
X151250800Y-98910000D01*
G75*
G02*
X151200000Y-98960800I-50800J0D01*
G01*
X151000000Y-98960800D01*
G75*
G02*
X150949200Y-98910000I0J50800D01*
G01*
X150949200Y-97410000D01*
G75*
G02*
X151000000Y-97359200I50800J0D01*
G01*
X151200000Y-97359200D01*
G75*
G02*
X151250800Y-97410000I0J-50800D01*
G01*
G37*
G36*
G01*
X147650800Y-95090000D02*
X147650800Y-96590000D01*
G75*
G02*
X147600000Y-96640800I-50800J0D01*
G01*
X147400000Y-96640800D01*
G75*
G02*
X147349200Y-96590000I0J50800D01*
G01*
X147349200Y-95090000D01*
G75*
G02*
X147400000Y-95039200I50800J0D01*
G01*
X147600000Y-95039200D01*
G75*
G02*
X147650800Y-95090000I0J-50800D01*
G01*
G37*
G36*
G01*
X151650800Y-97410000D02*
X151650800Y-98910000D01*
G75*
G02*
X151600000Y-98960800I-50800J0D01*
G01*
X151400000Y-98960800D01*
G75*
G02*
X151349200Y-98910000I0J50800D01*
G01*
X151349200Y-97410000D01*
G75*
G02*
X151400000Y-97359200I50800J0D01*
G01*
X151600000Y-97359200D01*
G75*
G02*
X151650800Y-97410000I0J-50800D01*
G01*
G37*
G36*
G01*
X148050800Y-95090000D02*
X148050800Y-96590000D01*
G75*
G02*
X148000000Y-96640800I-50800J0D01*
G01*
X147800000Y-96640800D01*
G75*
G02*
X147749200Y-96590000I0J50800D01*
G01*
X147749200Y-95090000D01*
G75*
G02*
X147800000Y-95039200I50800J0D01*
G01*
X148000000Y-95039200D01*
G75*
G02*
X148050800Y-95090000I0J-50800D01*
G01*
G37*
G36*
G01*
X152050800Y-97410000D02*
X152050800Y-98910000D01*
G75*
G02*
X152000000Y-98960800I-50800J0D01*
G01*
X151800000Y-98960800D01*
G75*
G02*
X151749200Y-98910000I0J50800D01*
G01*
X151749200Y-97410000D01*
G75*
G02*
X151800000Y-97359200I50800J0D01*
G01*
X152000000Y-97359200D01*
G75*
G02*
X152050800Y-97410000I0J-50800D01*
G01*
G37*
G36*
G01*
X148450800Y-95090000D02*
X148450800Y-96590000D01*
G75*
G02*
X148400000Y-96640800I-50800J0D01*
G01*
X148200000Y-96640800D01*
G75*
G02*
X148149200Y-96590000I0J50800D01*
G01*
X148149200Y-95090000D01*
G75*
G02*
X148200000Y-95039200I50800J0D01*
G01*
X148400000Y-95039200D01*
G75*
G02*
X148450800Y-95090000I0J-50800D01*
G01*
G37*
G36*
G01*
X152450800Y-97410000D02*
X152450800Y-98910000D01*
G75*
G02*
X152400000Y-98960800I-50800J0D01*
G01*
X152200000Y-98960800D01*
G75*
G02*
X152149200Y-98910000I0J50800D01*
G01*
X152149200Y-97410000D01*
G75*
G02*
X152200000Y-97359200I50800J0D01*
G01*
X152400000Y-97359200D01*
G75*
G02*
X152450800Y-97410000I0J-50800D01*
G01*
G37*
G36*
G01*
X148850800Y-95090000D02*
X148850800Y-96590000D01*
G75*
G02*
X148800000Y-96640800I-50800J0D01*
G01*
X148600000Y-96640800D01*
G75*
G02*
X148549200Y-96590000I0J50800D01*
G01*
X148549200Y-95090000D01*
G75*
G02*
X148600000Y-95039200I50800J0D01*
G01*
X148800000Y-95039200D01*
G75*
G02*
X148850800Y-95090000I0J-50800D01*
G01*
G37*
G36*
G01*
X152850800Y-97410000D02*
X152850800Y-98910000D01*
G75*
G02*
X152800000Y-98960800I-50800J0D01*
G01*
X152600000Y-98960800D01*
G75*
G02*
X152549200Y-98910000I0J50800D01*
G01*
X152549200Y-97410000D01*
G75*
G02*
X152600000Y-97359200I50800J0D01*
G01*
X152800000Y-97359200D01*
G75*
G02*
X152850800Y-97410000I0J-50800D01*
G01*
G37*
G36*
G01*
X149250800Y-95090000D02*
X149250800Y-96590000D01*
G75*
G02*
X149200000Y-96640800I-50800J0D01*
G01*
X149000000Y-96640800D01*
G75*
G02*
X148949200Y-96590000I0J50800D01*
G01*
X148949200Y-95090000D01*
G75*
G02*
X149000000Y-95039200I50800J0D01*
G01*
X149200000Y-95039200D01*
G75*
G02*
X149250800Y-95090000I0J-50800D01*
G01*
G37*
G36*
G01*
X153250800Y-97410000D02*
X153250800Y-98910000D01*
G75*
G02*
X153200000Y-98960800I-50800J0D01*
G01*
X153000000Y-98960800D01*
G75*
G02*
X152949200Y-98910000I0J50800D01*
G01*
X152949200Y-97410000D01*
G75*
G02*
X153000000Y-97359200I50800J0D01*
G01*
X153200000Y-97359200D01*
G75*
G02*
X153250800Y-97410000I0J-50800D01*
G01*
G37*
G36*
G01*
X149650800Y-95090000D02*
X149650800Y-96590000D01*
G75*
G02*
X149600000Y-96640800I-50800J0D01*
G01*
X149400000Y-96640800D01*
G75*
G02*
X149349200Y-96590000I0J50800D01*
G01*
X149349200Y-95090000D01*
G75*
G02*
X149400000Y-95039200I50800J0D01*
G01*
X149600000Y-95039200D01*
G75*
G02*
X149650800Y-95090000I0J-50800D01*
G01*
G37*
G36*
G01*
X153650800Y-97410000D02*
X153650800Y-98910000D01*
G75*
G02*
X153600000Y-98960800I-50800J0D01*
G01*
X153400000Y-98960800D01*
G75*
G02*
X153349200Y-98910000I0J50800D01*
G01*
X153349200Y-97410000D01*
G75*
G02*
X153400000Y-97359200I50800J0D01*
G01*
X153600000Y-97359200D01*
G75*
G02*
X153650800Y-97410000I0J-50800D01*
G01*
G37*
G36*
G01*
X150050800Y-95090000D02*
X150050800Y-96590000D01*
G75*
G02*
X150000000Y-96640800I-50800J0D01*
G01*
X149800000Y-96640800D01*
G75*
G02*
X149749200Y-96590000I0J50800D01*
G01*
X149749200Y-95090000D01*
G75*
G02*
X149800000Y-95039200I50800J0D01*
G01*
X150000000Y-95039200D01*
G75*
G02*
X150050800Y-95090000I0J-50800D01*
G01*
G37*
G36*
G01*
X154050800Y-97410000D02*
X154050800Y-98910000D01*
G75*
G02*
X154000000Y-98960800I-50800J0D01*
G01*
X153800000Y-98960800D01*
G75*
G02*
X153749200Y-98910000I0J50800D01*
G01*
X153749200Y-97410000D01*
G75*
G02*
X153800000Y-97359200I50800J0D01*
G01*
X154000000Y-97359200D01*
G75*
G02*
X154050800Y-97410000I0J-50800D01*
G01*
G37*
G36*
G01*
X150450800Y-95090000D02*
X150450800Y-96590000D01*
G75*
G02*
X150400000Y-96640800I-50800J0D01*
G01*
X150200000Y-96640800D01*
G75*
G02*
X150149200Y-96590000I0J50800D01*
G01*
X150149200Y-95090000D01*
G75*
G02*
X150200000Y-95039200I50800J0D01*
G01*
X150400000Y-95039200D01*
G75*
G02*
X150450800Y-95090000I0J-50800D01*
G01*
G37*
G36*
G01*
X154450800Y-97410000D02*
X154450800Y-98910000D01*
G75*
G02*
X154400000Y-98960800I-50800J0D01*
G01*
X154200000Y-98960800D01*
G75*
G02*
X154149200Y-98910000I0J50800D01*
G01*
X154149200Y-97410000D01*
G75*
G02*
X154200000Y-97359200I50800J0D01*
G01*
X154400000Y-97359200D01*
G75*
G02*
X154450800Y-97410000I0J-50800D01*
G01*
G37*
G36*
G01*
X150850800Y-95090000D02*
X150850800Y-96590000D01*
G75*
G02*
X150800000Y-96640800I-50800J0D01*
G01*
X150600000Y-96640800D01*
G75*
G02*
X150549200Y-96590000I0J50800D01*
G01*
X150549200Y-95090000D01*
G75*
G02*
X150600000Y-95039200I50800J0D01*
G01*
X150800000Y-95039200D01*
G75*
G02*
X150850800Y-95090000I0J-50800D01*
G01*
G37*
G36*
G01*
X154850800Y-97410000D02*
X154850800Y-98910000D01*
G75*
G02*
X154800000Y-98960800I-50800J0D01*
G01*
X154600000Y-98960800D01*
G75*
G02*
X154549200Y-98910000I0J50800D01*
G01*
X154549200Y-97410000D01*
G75*
G02*
X154600000Y-97359200I50800J0D01*
G01*
X154800000Y-97359200D01*
G75*
G02*
X154850800Y-97410000I0J-50800D01*
G01*
G37*
G36*
G01*
X151250800Y-95090000D02*
X151250800Y-96590000D01*
G75*
G02*
X151200000Y-96640800I-50800J0D01*
G01*
X151000000Y-96640800D01*
G75*
G02*
X150949200Y-96590000I0J50800D01*
G01*
X150949200Y-95090000D01*
G75*
G02*
X151000000Y-95039200I50800J0D01*
G01*
X151200000Y-95039200D01*
G75*
G02*
X151250800Y-95090000I0J-50800D01*
G01*
G37*
G36*
G01*
X155250800Y-97410000D02*
X155250800Y-98910000D01*
G75*
G02*
X155200000Y-98960800I-50800J0D01*
G01*
X155000000Y-98960800D01*
G75*
G02*
X154949200Y-98910000I0J50800D01*
G01*
X154949200Y-97410000D01*
G75*
G02*
X155000000Y-97359200I50800J0D01*
G01*
X155200000Y-97359200D01*
G75*
G02*
X155250800Y-97410000I0J-50800D01*
G01*
G37*
G36*
G01*
X151650800Y-95090000D02*
X151650800Y-96590000D01*
G75*
G02*
X151600000Y-96640800I-50800J0D01*
G01*
X151400000Y-96640800D01*
G75*
G02*
X151349200Y-96590000I0J50800D01*
G01*
X151349200Y-95090000D01*
G75*
G02*
X151400000Y-95039200I50800J0D01*
G01*
X151600000Y-95039200D01*
G75*
G02*
X151650800Y-95090000I0J-50800D01*
G01*
G37*
G36*
G01*
X155650800Y-97410000D02*
X155650800Y-98910000D01*
G75*
G02*
X155600000Y-98960800I-50800J0D01*
G01*
X155400000Y-98960800D01*
G75*
G02*
X155349200Y-98910000I0J50800D01*
G01*
X155349200Y-97410000D01*
G75*
G02*
X155400000Y-97359200I50800J0D01*
G01*
X155600000Y-97359200D01*
G75*
G02*
X155650800Y-97410000I0J-50800D01*
G01*
G37*
G36*
G01*
X152050800Y-95090000D02*
X152050800Y-96590000D01*
G75*
G02*
X152000000Y-96640800I-50800J0D01*
G01*
X151800000Y-96640800D01*
G75*
G02*
X151749200Y-96590000I0J50800D01*
G01*
X151749200Y-95090000D01*
G75*
G02*
X151800000Y-95039200I50800J0D01*
G01*
X152000000Y-95039200D01*
G75*
G02*
X152050800Y-95090000I0J-50800D01*
G01*
G37*
G36*
G01*
X156050800Y-97410000D02*
X156050800Y-98910000D01*
G75*
G02*
X156000000Y-98960800I-50800J0D01*
G01*
X155800000Y-98960800D01*
G75*
G02*
X155749200Y-98910000I0J50800D01*
G01*
X155749200Y-97410000D01*
G75*
G02*
X155800000Y-97359200I50800J0D01*
G01*
X156000000Y-97359200D01*
G75*
G02*
X156050800Y-97410000I0J-50800D01*
G01*
G37*
G36*
G01*
X152450800Y-95090000D02*
X152450800Y-96590000D01*
G75*
G02*
X152400000Y-96640800I-50800J0D01*
G01*
X152200000Y-96640800D01*
G75*
G02*
X152149200Y-96590000I0J50800D01*
G01*
X152149200Y-95090000D01*
G75*
G02*
X152200000Y-95039200I50800J0D01*
G01*
X152400000Y-95039200D01*
G75*
G02*
X152450800Y-95090000I0J-50800D01*
G01*
G37*
G36*
G01*
X156450800Y-97410000D02*
X156450800Y-98910000D01*
G75*
G02*
X156400000Y-98960800I-50800J0D01*
G01*
X156200000Y-98960800D01*
G75*
G02*
X156149200Y-98910000I0J50800D01*
G01*
X156149200Y-97410000D01*
G75*
G02*
X156200000Y-97359200I50800J0D01*
G01*
X156400000Y-97359200D01*
G75*
G02*
X156450800Y-97410000I0J-50800D01*
G01*
G37*
G36*
G01*
X152850800Y-95090000D02*
X152850800Y-96590000D01*
G75*
G02*
X152800000Y-96640800I-50800J0D01*
G01*
X152600000Y-96640800D01*
G75*
G02*
X152549200Y-96590000I0J50800D01*
G01*
X152549200Y-95090000D01*
G75*
G02*
X152600000Y-95039200I50800J0D01*
G01*
X152800000Y-95039200D01*
G75*
G02*
X152850800Y-95090000I0J-50800D01*
G01*
G37*
G36*
G01*
X156850800Y-97410000D02*
X156850800Y-98910000D01*
G75*
G02*
X156800000Y-98960800I-50800J0D01*
G01*
X156600000Y-98960800D01*
G75*
G02*
X156549200Y-98910000I0J50800D01*
G01*
X156549200Y-97410000D01*
G75*
G02*
X156600000Y-97359200I50800J0D01*
G01*
X156800000Y-97359200D01*
G75*
G02*
X156850800Y-97410000I0J-50800D01*
G01*
G37*
G36*
G01*
X153250800Y-95090000D02*
X153250800Y-96590000D01*
G75*
G02*
X153200000Y-96640800I-50800J0D01*
G01*
X153000000Y-96640800D01*
G75*
G02*
X152949200Y-96590000I0J50800D01*
G01*
X152949200Y-95090000D01*
G75*
G02*
X153000000Y-95039200I50800J0D01*
G01*
X153200000Y-95039200D01*
G75*
G02*
X153250800Y-95090000I0J-50800D01*
G01*
G37*
G36*
G01*
X157250800Y-97410000D02*
X157250800Y-98910000D01*
G75*
G02*
X157200000Y-98960800I-50800J0D01*
G01*
X157000000Y-98960800D01*
G75*
G02*
X156949200Y-98910000I0J50800D01*
G01*
X156949200Y-97410000D01*
G75*
G02*
X157000000Y-97359200I50800J0D01*
G01*
X157200000Y-97359200D01*
G75*
G02*
X157250800Y-97410000I0J-50800D01*
G01*
G37*
G36*
G01*
X153650800Y-95090000D02*
X153650800Y-96590000D01*
G75*
G02*
X153600000Y-96640800I-50800J0D01*
G01*
X153400000Y-96640800D01*
G75*
G02*
X153349200Y-96590000I0J50800D01*
G01*
X153349200Y-95090000D01*
G75*
G02*
X153400000Y-95039200I50800J0D01*
G01*
X153600000Y-95039200D01*
G75*
G02*
X153650800Y-95090000I0J-50800D01*
G01*
G37*
G36*
G01*
X157650800Y-97410000D02*
X157650800Y-98910000D01*
G75*
G02*
X157600000Y-98960800I-50800J0D01*
G01*
X157400000Y-98960800D01*
G75*
G02*
X157349200Y-98910000I0J50800D01*
G01*
X157349200Y-97410000D01*
G75*
G02*
X157400000Y-97359200I50800J0D01*
G01*
X157600000Y-97359200D01*
G75*
G02*
X157650800Y-97410000I0J-50800D01*
G01*
G37*
G36*
G01*
X154050800Y-95090000D02*
X154050800Y-96590000D01*
G75*
G02*
X154000000Y-96640800I-50800J0D01*
G01*
X153800000Y-96640800D01*
G75*
G02*
X153749200Y-96590000I0J50800D01*
G01*
X153749200Y-95090000D01*
G75*
G02*
X153800000Y-95039200I50800J0D01*
G01*
X154000000Y-95039200D01*
G75*
G02*
X154050800Y-95090000I0J-50800D01*
G01*
G37*
G36*
G01*
X158050800Y-97410000D02*
X158050800Y-98910000D01*
G75*
G02*
X158000000Y-98960800I-50800J0D01*
G01*
X157800000Y-98960800D01*
G75*
G02*
X157749200Y-98910000I0J50800D01*
G01*
X157749200Y-97410000D01*
G75*
G02*
X157800000Y-97359200I50800J0D01*
G01*
X158000000Y-97359200D01*
G75*
G02*
X158050800Y-97410000I0J-50800D01*
G01*
G37*
G36*
G01*
X154450800Y-95090000D02*
X154450800Y-96590000D01*
G75*
G02*
X154400000Y-96640800I-50800J0D01*
G01*
X154200000Y-96640800D01*
G75*
G02*
X154149200Y-96590000I0J50800D01*
G01*
X154149200Y-95090000D01*
G75*
G02*
X154200000Y-95039200I50800J0D01*
G01*
X154400000Y-95039200D01*
G75*
G02*
X154450800Y-95090000I0J-50800D01*
G01*
G37*
G36*
G01*
X158450800Y-97410000D02*
X158450800Y-98910000D01*
G75*
G02*
X158400000Y-98960800I-50800J0D01*
G01*
X158200000Y-98960800D01*
G75*
G02*
X158149200Y-98910000I0J50800D01*
G01*
X158149200Y-97410000D01*
G75*
G02*
X158200000Y-97359200I50800J0D01*
G01*
X158400000Y-97359200D01*
G75*
G02*
X158450800Y-97410000I0J-50800D01*
G01*
G37*
G36*
G01*
X154850800Y-95090000D02*
X154850800Y-96590000D01*
G75*
G02*
X154800000Y-96640800I-50800J0D01*
G01*
X154600000Y-96640800D01*
G75*
G02*
X154549200Y-96590000I0J50800D01*
G01*
X154549200Y-95090000D01*
G75*
G02*
X154600000Y-95039200I50800J0D01*
G01*
X154800000Y-95039200D01*
G75*
G02*
X154850800Y-95090000I0J-50800D01*
G01*
G37*
G36*
G01*
X146850800Y-97410000D02*
X146850800Y-98910000D01*
G75*
G02*
X146800000Y-98960800I-50800J0D01*
G01*
X146600000Y-98960800D01*
G75*
G02*
X146549200Y-98910000I0J50800D01*
G01*
X146549200Y-97410000D01*
G75*
G02*
X146600000Y-97359200I50800J0D01*
G01*
X146800000Y-97359200D01*
G75*
G02*
X146850800Y-97410000I0J-50800D01*
G01*
G37*
G36*
G01*
X155250800Y-95090000D02*
X155250800Y-96590000D01*
G75*
G02*
X155200000Y-96640800I-50800J0D01*
G01*
X155000000Y-96640800D01*
G75*
G02*
X154949200Y-96590000I0J50800D01*
G01*
X154949200Y-95090000D01*
G75*
G02*
X155000000Y-95039200I50800J0D01*
G01*
X155200000Y-95039200D01*
G75*
G02*
X155250800Y-95090000I0J-50800D01*
G01*
G37*
G36*
G01*
X147250800Y-97410000D02*
X147250800Y-98910000D01*
G75*
G02*
X147200000Y-98960800I-50800J0D01*
G01*
X147000000Y-98960800D01*
G75*
G02*
X146949200Y-98910000I0J50800D01*
G01*
X146949200Y-97410000D01*
G75*
G02*
X147000000Y-97359200I50800J0D01*
G01*
X147200000Y-97359200D01*
G75*
G02*
X147250800Y-97410000I0J-50800D01*
G01*
G37*
G36*
G01*
X155650800Y-95090000D02*
X155650800Y-96590000D01*
G75*
G02*
X155600000Y-96640800I-50800J0D01*
G01*
X155400000Y-96640800D01*
G75*
G02*
X155349200Y-96590000I0J50800D01*
G01*
X155349200Y-95090000D01*
G75*
G02*
X155400000Y-95039200I50800J0D01*
G01*
X155600000Y-95039200D01*
G75*
G02*
X155650800Y-95090000I0J-50800D01*
G01*
G37*
G36*
G01*
X147650800Y-97410000D02*
X147650800Y-98910000D01*
G75*
G02*
X147600000Y-98960800I-50800J0D01*
G01*
X147400000Y-98960800D01*
G75*
G02*
X147349200Y-98910000I0J50800D01*
G01*
X147349200Y-97410000D01*
G75*
G02*
X147400000Y-97359200I50800J0D01*
G01*
X147600000Y-97359200D01*
G75*
G02*
X147650800Y-97410000I0J-50800D01*
G01*
G37*
G36*
G01*
X156050800Y-95090000D02*
X156050800Y-96590000D01*
G75*
G02*
X156000000Y-96640800I-50800J0D01*
G01*
X155800000Y-96640800D01*
G75*
G02*
X155749200Y-96590000I0J50800D01*
G01*
X155749200Y-95090000D01*
G75*
G02*
X155800000Y-95039200I50800J0D01*
G01*
X156000000Y-95039200D01*
G75*
G02*
X156050800Y-95090000I0J-50800D01*
G01*
G37*
G36*
G01*
X148050800Y-97410000D02*
X148050800Y-98910000D01*
G75*
G02*
X148000000Y-98960800I-50800J0D01*
G01*
X147800000Y-98960800D01*
G75*
G02*
X147749200Y-98910000I0J50800D01*
G01*
X147749200Y-97410000D01*
G75*
G02*
X147800000Y-97359200I50800J0D01*
G01*
X148000000Y-97359200D01*
G75*
G02*
X148050800Y-97410000I0J-50800D01*
G01*
G37*
G36*
G01*
X156450800Y-95090000D02*
X156450800Y-96590000D01*
G75*
G02*
X156400000Y-96640800I-50800J0D01*
G01*
X156200000Y-96640800D01*
G75*
G02*
X156149200Y-96590000I0J50800D01*
G01*
X156149200Y-95090000D01*
G75*
G02*
X156200000Y-95039200I50800J0D01*
G01*
X156400000Y-95039200D01*
G75*
G02*
X156450800Y-95090000I0J-50800D01*
G01*
G37*
G36*
G01*
X148450800Y-97410000D02*
X148450800Y-98910000D01*
G75*
G02*
X148400000Y-98960800I-50800J0D01*
G01*
X148200000Y-98960800D01*
G75*
G02*
X148149200Y-98910000I0J50800D01*
G01*
X148149200Y-97410000D01*
G75*
G02*
X148200000Y-97359200I50800J0D01*
G01*
X148400000Y-97359200D01*
G75*
G02*
X148450800Y-97410000I0J-50800D01*
G01*
G37*
G36*
G01*
X156850800Y-95090000D02*
X156850800Y-96590000D01*
G75*
G02*
X156800000Y-96640800I-50800J0D01*
G01*
X156600000Y-96640800D01*
G75*
G02*
X156549200Y-96590000I0J50800D01*
G01*
X156549200Y-95090000D01*
G75*
G02*
X156600000Y-95039200I50800J0D01*
G01*
X156800000Y-95039200D01*
G75*
G02*
X156850800Y-95090000I0J-50800D01*
G01*
G37*
G36*
G01*
X157250800Y-95090000D02*
X157250800Y-96590000D01*
G75*
G02*
X157200000Y-96640800I-50800J0D01*
G01*
X157000000Y-96640800D01*
G75*
G02*
X156949200Y-96590000I0J50800D01*
G01*
X156949200Y-95090000D01*
G75*
G02*
X157000000Y-95039200I50800J0D01*
G01*
X157200000Y-95039200D01*
G75*
G02*
X157250800Y-95090000I0J-50800D01*
G01*
G37*
G36*
G01*
X157650800Y-95090000D02*
X157650800Y-96590000D01*
G75*
G02*
X157600000Y-96640800I-50800J0D01*
G01*
X157400000Y-96640800D01*
G75*
G02*
X157349200Y-96590000I0J50800D01*
G01*
X157349200Y-95090000D01*
G75*
G02*
X157400000Y-95039200I50800J0D01*
G01*
X157600000Y-95039200D01*
G75*
G02*
X157650800Y-95090000I0J-50800D01*
G01*
G37*
G36*
G01*
X158050800Y-95090000D02*
X158050800Y-96590000D01*
G75*
G02*
X158000000Y-96640800I-50800J0D01*
G01*
X157800000Y-96640800D01*
G75*
G02*
X157749200Y-96590000I0J50800D01*
G01*
X157749200Y-95090000D01*
G75*
G02*
X157800000Y-95039200I50800J0D01*
G01*
X158000000Y-95039200D01*
G75*
G02*
X158050800Y-95090000I0J-50800D01*
G01*
G37*
G36*
G01*
X158450800Y-95090000D02*
X158450800Y-96590000D01*
G75*
G02*
X158400000Y-96640800I-50800J0D01*
G01*
X158200000Y-96640800D01*
G75*
G02*
X158149200Y-96590000I0J50800D01*
G01*
X158149200Y-95090000D01*
G75*
G02*
X158200000Y-95039200I50800J0D01*
G01*
X158400000Y-95039200D01*
G75*
G02*
X158450800Y-95090000I0J-50800D01*
G01*
G37*
G36*
G01*
X169730001Y-98230800D02*
X168269999Y-98230800D01*
G75*
G02*
X168219200Y-98180001I0J50799D01*
G01*
X168219200Y-96819999D01*
G75*
G02*
X168269999Y-96769200I50799J0D01*
G01*
X169730001Y-96769200D01*
G75*
G02*
X169780800Y-96819999I0J-50799D01*
G01*
X169780800Y-98180001D01*
G75*
G02*
X169730001Y-98230800I-50799J0D01*
G01*
G37*
G36*
G01*
X169900000Y-96425800D02*
X169600000Y-96425800D01*
G75*
G02*
X169549200Y-96375000I0J50800D01*
G01*
X169549200Y-95625000D01*
G75*
G02*
X169600000Y-95574200I50800J0D01*
G01*
X169900000Y-95574200D01*
G75*
G02*
X169950800Y-95625000I0J-50800D01*
G01*
X169950800Y-96375000D01*
G75*
G02*
X169900000Y-96425800I-50800J0D01*
G01*
G37*
G36*
G01*
X169400000Y-96425800D02*
X169100000Y-96425800D01*
G75*
G02*
X169049200Y-96375000I0J50800D01*
G01*
X169049200Y-95625000D01*
G75*
G02*
X169100000Y-95574200I50800J0D01*
G01*
X169400000Y-95574200D01*
G75*
G02*
X169450800Y-95625000I0J-50800D01*
G01*
X169450800Y-96375000D01*
G75*
G02*
X169400000Y-96425800I-50800J0D01*
G01*
G37*
G36*
G01*
X168900000Y-96425800D02*
X168600000Y-96425800D01*
G75*
G02*
X168549200Y-96375000I0J50800D01*
G01*
X168549200Y-95625000D01*
G75*
G02*
X168600000Y-95574200I50800J0D01*
G01*
X168900000Y-95574200D01*
G75*
G02*
X168950800Y-95625000I0J-50800D01*
G01*
X168950800Y-96375000D01*
G75*
G02*
X168900000Y-96425800I-50800J0D01*
G01*
G37*
G36*
G01*
X168400000Y-96425800D02*
X168100000Y-96425800D01*
G75*
G02*
X168049200Y-96375000I0J50800D01*
G01*
X168049200Y-95625000D01*
G75*
G02*
X168100000Y-95574200I50800J0D01*
G01*
X168400000Y-95574200D01*
G75*
G02*
X168450800Y-95625000I0J-50800D01*
G01*
X168450800Y-96375000D01*
G75*
G02*
X168400000Y-96425800I-50800J0D01*
G01*
G37*
G36*
G01*
X168400000Y-99425800D02*
X168100000Y-99425800D01*
G75*
G02*
X168049200Y-99375000I0J50800D01*
G01*
X168049200Y-98625000D01*
G75*
G02*
X168100000Y-98574200I50800J0D01*
G01*
X168400000Y-98574200D01*
G75*
G02*
X168450800Y-98625000I0J-50800D01*
G01*
X168450800Y-99375000D01*
G75*
G02*
X168400000Y-99425800I-50800J0D01*
G01*
G37*
G36*
G01*
X168900000Y-99425800D02*
X168600000Y-99425800D01*
G75*
G02*
X168549200Y-99375000I0J50800D01*
G01*
X168549200Y-98625000D01*
G75*
G02*
X168600000Y-98574200I50800J0D01*
G01*
X168900000Y-98574200D01*
G75*
G02*
X168950800Y-98625000I0J-50800D01*
G01*
X168950800Y-99375000D01*
G75*
G02*
X168900000Y-99425800I-50800J0D01*
G01*
G37*
G36*
G01*
X169400000Y-99425800D02*
X169100000Y-99425800D01*
G75*
G02*
X169049200Y-99375000I0J50800D01*
G01*
X169049200Y-98625000D01*
G75*
G02*
X169100000Y-98574200I50800J0D01*
G01*
X169400000Y-98574200D01*
G75*
G02*
X169450800Y-98625000I0J-50800D01*
G01*
X169450800Y-99375000D01*
G75*
G02*
X169400000Y-99425800I-50800J0D01*
G01*
G37*
G36*
G01*
X169900000Y-99425800D02*
X169600000Y-99425800D01*
G75*
G02*
X169549200Y-99375000I0J50800D01*
G01*
X169549200Y-98625000D01*
G75*
G02*
X169600000Y-98574200I50800J0D01*
G01*
X169900000Y-98574200D01*
G75*
G02*
X169950800Y-98625000I0J-50800D01*
G01*
X169950800Y-99375000D01*
G75*
G02*
X169900000Y-99425800I-50800J0D01*
G01*
G37*
G36*
G01*
X155115940Y-105811000D02*
X155115940Y-106361800D01*
G75*
G02*
X154865540Y-106612200I-250400J0D01*
G01*
X154364740Y-106612200D01*
G75*
G02*
X154114340Y-106361800I0J250400D01*
G01*
X154114340Y-105811000D01*
G75*
G02*
X154364740Y-105560600I250400J0D01*
G01*
X154865540Y-105560600D01*
G75*
G02*
X155115940Y-105811000I0J-250400D01*
G01*
G37*
G36*
G01*
X153565940Y-105811000D02*
X153565940Y-106361800D01*
G75*
G02*
X153315540Y-106612200I-250400J0D01*
G01*
X152814740Y-106612200D01*
G75*
G02*
X152564340Y-106361800I0J250400D01*
G01*
X152564340Y-105811000D01*
G75*
G02*
X152814740Y-105560600I250400J0D01*
G01*
X153315540Y-105560600D01*
G75*
G02*
X153565940Y-105811000I0J-250400D01*
G01*
G37*
G36*
G01*
X145370340Y-111180180D02*
X145370340Y-110629380D01*
G75*
G02*
X145620740Y-110378980I250400J0D01*
G01*
X146121540Y-110378980D01*
G75*
G02*
X146371940Y-110629380I0J-250400D01*
G01*
X146371940Y-111180180D01*
G75*
G02*
X146121540Y-111430580I-250400J0D01*
G01*
X145620740Y-111430580D01*
G75*
G02*
X145370340Y-111180180I0J250400D01*
G01*
G37*
G36*
G01*
X143820340Y-111180180D02*
X143820340Y-110629380D01*
G75*
G02*
X144070740Y-110378980I250400J0D01*
G01*
X144571540Y-110378980D01*
G75*
G02*
X144821940Y-110629380I0J-250400D01*
G01*
X144821940Y-111180180D01*
G75*
G02*
X144571540Y-111430580I-250400J0D01*
G01*
X144070740Y-111430580D01*
G75*
G02*
X143820340Y-111180180I0J250400D01*
G01*
G37*
G36*
G01*
X157030200Y-108350046D02*
X157030200Y-108900846D01*
G75*
G02*
X156779800Y-109151246I-250400J0D01*
G01*
X156279000Y-109151246D01*
G75*
G02*
X156028600Y-108900846I0J250400D01*
G01*
X156028600Y-108350046D01*
G75*
G02*
X156279000Y-108099646I250400J0D01*
G01*
X156779800Y-108099646D01*
G75*
G02*
X157030200Y-108350046I0J-250400D01*
G01*
G37*
G36*
G01*
X158580200Y-108350046D02*
X158580200Y-108900846D01*
G75*
G02*
X158329800Y-109151246I-250400J0D01*
G01*
X157829000Y-109151246D01*
G75*
G02*
X157578600Y-108900846I0J250400D01*
G01*
X157578600Y-108350046D01*
G75*
G02*
X157829000Y-108099646I250400J0D01*
G01*
X158329800Y-108099646D01*
G75*
G02*
X158580200Y-108350046I0J-250400D01*
G01*
G37*
G36*
G01*
X156028600Y-105965242D02*
X156028600Y-105414442D01*
G75*
G02*
X156279000Y-105164042I250400J0D01*
G01*
X156779800Y-105164042D01*
G75*
G02*
X157030200Y-105414442I0J-250400D01*
G01*
X157030200Y-105965242D01*
G75*
G02*
X156779800Y-106215642I-250400J0D01*
G01*
X156279000Y-106215642D01*
G75*
G02*
X156028600Y-105965242I0J250400D01*
G01*
G37*
G36*
G01*
X157578600Y-105965242D02*
X157578600Y-105414442D01*
G75*
G02*
X157829000Y-105164042I250400J0D01*
G01*
X158329800Y-105164042D01*
G75*
G02*
X158580200Y-105414442I0J-250400D01*
G01*
X158580200Y-105965242D01*
G75*
G02*
X158329800Y-106215642I-250400J0D01*
G01*
X157829000Y-106215642D01*
G75*
G02*
X157578600Y-105965242I0J250400D01*
G01*
G37*
G36*
G01*
X157578600Y-113304252D02*
X157578600Y-112753452D01*
G75*
G02*
X157829000Y-112503052I250400J0D01*
G01*
X158329800Y-112503052D01*
G75*
G02*
X158580200Y-112753452I0J-250400D01*
G01*
X158580200Y-113304252D01*
G75*
G02*
X158329800Y-113554652I-250400J0D01*
G01*
X157829000Y-113554652D01*
G75*
G02*
X157578600Y-113304252I0J250400D01*
G01*
G37*
G36*
G01*
X156028600Y-113304252D02*
X156028600Y-112753452D01*
G75*
G02*
X156279000Y-112503052I250400J0D01*
G01*
X156779800Y-112503052D01*
G75*
G02*
X157030200Y-112753452I0J-250400D01*
G01*
X157030200Y-113304252D01*
G75*
G02*
X156779800Y-113554652I-250400J0D01*
G01*
X156279000Y-113554652D01*
G75*
G02*
X156028600Y-113304252I0J250400D01*
G01*
G37*
G36*
G01*
X158580200Y-111285650D02*
X158580200Y-111836450D01*
G75*
G02*
X158329800Y-112086850I-250400J0D01*
G01*
X157829000Y-112086850D01*
G75*
G02*
X157578600Y-111836450I0J250400D01*
G01*
X157578600Y-111285650D01*
G75*
G02*
X157829000Y-111035250I250400J0D01*
G01*
X158329800Y-111035250D01*
G75*
G02*
X158580200Y-111285650I0J-250400D01*
G01*
G37*
G36*
G01*
X157030200Y-111285650D02*
X157030200Y-111836450D01*
G75*
G02*
X156779800Y-112086850I-250400J0D01*
G01*
X156279000Y-112086850D01*
G75*
G02*
X156028600Y-111836450I0J250400D01*
G01*
X156028600Y-111285650D01*
G75*
G02*
X156279000Y-111035250I250400J0D01*
G01*
X156779800Y-111035250D01*
G75*
G02*
X157030200Y-111285650I0J-250400D01*
G01*
G37*
G36*
G01*
X157030200Y-109817848D02*
X157030200Y-110368648D01*
G75*
G02*
X156779800Y-110619048I-250400J0D01*
G01*
X156279000Y-110619048D01*
G75*
G02*
X156028600Y-110368648I0J250400D01*
G01*
X156028600Y-109817848D01*
G75*
G02*
X156279000Y-109567448I250400J0D01*
G01*
X156779800Y-109567448D01*
G75*
G02*
X157030200Y-109817848I0J-250400D01*
G01*
G37*
G36*
G01*
X158580200Y-109817848D02*
X158580200Y-110368648D01*
G75*
G02*
X158329800Y-110619048I-250400J0D01*
G01*
X157829000Y-110619048D01*
G75*
G02*
X157578600Y-110368648I0J250400D01*
G01*
X157578600Y-109817848D01*
G75*
G02*
X157829000Y-109567448I250400J0D01*
G01*
X158329800Y-109567448D01*
G75*
G02*
X158580200Y-109817848I0J-250400D01*
G01*
G37*
G36*
G01*
X157030200Y-106882244D02*
X157030200Y-107433044D01*
G75*
G02*
X156779800Y-107683444I-250400J0D01*
G01*
X156279000Y-107683444D01*
G75*
G02*
X156028600Y-107433044I0J250400D01*
G01*
X156028600Y-106882244D01*
G75*
G02*
X156279000Y-106631844I250400J0D01*
G01*
X156779800Y-106631844D01*
G75*
G02*
X157030200Y-106882244I0J-250400D01*
G01*
G37*
G36*
G01*
X158580200Y-106882244D02*
X158580200Y-107433044D01*
G75*
G02*
X158329800Y-107683444I-250400J0D01*
G01*
X157829000Y-107683444D01*
G75*
G02*
X157578600Y-107433044I0J250400D01*
G01*
X157578600Y-106882244D01*
G75*
G02*
X157829000Y-106631844I250400J0D01*
G01*
X158329800Y-106631844D01*
G75*
G02*
X158580200Y-106882244I0J-250400D01*
G01*
G37*
G36*
G01*
X156028600Y-104497440D02*
X156028600Y-103946640D01*
G75*
G02*
X156279000Y-103696240I250400J0D01*
G01*
X156779800Y-103696240D01*
G75*
G02*
X157030200Y-103946640I0J-250400D01*
G01*
X157030200Y-104497440D01*
G75*
G02*
X156779800Y-104747840I-250400J0D01*
G01*
X156279000Y-104747840D01*
G75*
G02*
X156028600Y-104497440I0J250400D01*
G01*
G37*
G36*
G01*
X157578600Y-104497440D02*
X157578600Y-103946640D01*
G75*
G02*
X157829000Y-103696240I250400J0D01*
G01*
X158329800Y-103696240D01*
G75*
G02*
X158580200Y-103946640I0J-250400D01*
G01*
X158580200Y-104497440D01*
G75*
G02*
X158329800Y-104747840I-250400J0D01*
G01*
X157829000Y-104747840D01*
G75*
G02*
X157578600Y-104497440I0J250400D01*
G01*
G37*
G36*
G01*
X158580200Y-115689056D02*
X158580200Y-116239856D01*
G75*
G02*
X158329800Y-116490256I-250400J0D01*
G01*
X157829000Y-116490256D01*
G75*
G02*
X157578600Y-116239856I0J250400D01*
G01*
X157578600Y-115689056D01*
G75*
G02*
X157829000Y-115438656I250400J0D01*
G01*
X158329800Y-115438656D01*
G75*
G02*
X158580200Y-115689056I0J-250400D01*
G01*
G37*
G36*
G01*
X157030200Y-115689056D02*
X157030200Y-116239856D01*
G75*
G02*
X156779800Y-116490256I-250400J0D01*
G01*
X156279000Y-116490256D01*
G75*
G02*
X156028600Y-116239856I0J250400D01*
G01*
X156028600Y-115689056D01*
G75*
G02*
X156279000Y-115438656I250400J0D01*
G01*
X156779800Y-115438656D01*
G75*
G02*
X157030200Y-115689056I0J-250400D01*
G01*
G37*
G36*
G01*
X157578600Y-114772054D02*
X157578600Y-114221254D01*
G75*
G02*
X157829000Y-113970854I250400J0D01*
G01*
X158329800Y-113970854D01*
G75*
G02*
X158580200Y-114221254I0J-250400D01*
G01*
X158580200Y-114772054D01*
G75*
G02*
X158329800Y-115022454I-250400J0D01*
G01*
X157829000Y-115022454D01*
G75*
G02*
X157578600Y-114772054I0J250400D01*
G01*
G37*
G36*
G01*
X156028600Y-114772054D02*
X156028600Y-114221254D01*
G75*
G02*
X156279000Y-113970854I250400J0D01*
G01*
X156779800Y-113970854D01*
G75*
G02*
X157030200Y-114221254I0J-250400D01*
G01*
X157030200Y-114772054D01*
G75*
G02*
X156779800Y-115022454I-250400J0D01*
G01*
X156279000Y-115022454D01*
G75*
G02*
X156028600Y-114772054I0J250400D01*
G01*
G37*
G36*
G01*
X152564340Y-104491359D02*
X152564340Y-103940559D01*
G75*
G02*
X152814740Y-103690159I250400J0D01*
G01*
X153315540Y-103690159D01*
G75*
G02*
X153565940Y-103940559I0J-250400D01*
G01*
X153565940Y-104491359D01*
G75*
G02*
X153315540Y-104741759I-250400J0D01*
G01*
X152814740Y-104741759D01*
G75*
G02*
X152564340Y-104491359I0J250400D01*
G01*
G37*
G36*
G01*
X154114340Y-104491359D02*
X154114340Y-103940559D01*
G75*
G02*
X154364740Y-103690159I250400J0D01*
G01*
X154865540Y-103690159D01*
G75*
G02*
X155115940Y-103940559I0J-250400D01*
G01*
X155115940Y-104491359D01*
G75*
G02*
X154865540Y-104741759I-250400J0D01*
G01*
X154364740Y-104741759D01*
G75*
G02*
X154114340Y-104491359I0J250400D01*
G01*
G37*
G36*
G01*
X148116940Y-112382500D02*
X148116940Y-113582500D01*
G75*
G02*
X148066140Y-113633300I-50800J0D01*
G01*
X147166140Y-113633300D01*
G75*
G02*
X147115340Y-113582500I0J50800D01*
G01*
X147115340Y-112382500D01*
G75*
G02*
X147166140Y-112331700I50800J0D01*
G01*
X148066140Y-112331700D01*
G75*
G02*
X148116940Y-112382500I0J-50800D01*
G01*
G37*
G36*
G01*
X144816940Y-112382500D02*
X144816940Y-113582500D01*
G75*
G02*
X144766140Y-113633300I-50800J0D01*
G01*
X143866140Y-113633300D01*
G75*
G02*
X143815340Y-113582500I0J50800D01*
G01*
X143815340Y-112382500D01*
G75*
G02*
X143866140Y-112331700I50800J0D01*
G01*
X144766140Y-112331700D01*
G75*
G02*
X144816940Y-112382500I0J-50800D01*
G01*
G37*
G36*
G01*
X150816580Y-108604100D02*
X150816580Y-107404100D01*
G75*
G02*
X150867380Y-107353300I50800J0D01*
G01*
X151767380Y-107353300D01*
G75*
G02*
X151818180Y-107404100I0J-50800D01*
G01*
X151818180Y-108604100D01*
G75*
G02*
X151767380Y-108654900I-50800J0D01*
G01*
X150867380Y-108654900D01*
G75*
G02*
X150816580Y-108604100I0J50800D01*
G01*
G37*
G36*
G01*
X154116580Y-108604100D02*
X154116580Y-107404100D01*
G75*
G02*
X154167380Y-107353300I50800J0D01*
G01*
X155067380Y-107353300D01*
G75*
G02*
X155118180Y-107404100I0J-50800D01*
G01*
X155118180Y-108604100D01*
G75*
G02*
X155067380Y-108654900I-50800J0D01*
G01*
X154167380Y-108654900D01*
G75*
G02*
X154116580Y-108604100I0J50800D01*
G01*
G37*
G36*
G01*
X151818180Y-109771380D02*
X151818180Y-110971380D01*
G75*
G02*
X151767380Y-111022180I-50800J0D01*
G01*
X150867380Y-111022180D01*
G75*
G02*
X150816580Y-110971380I0J50800D01*
G01*
X150816580Y-109771380D01*
G75*
G02*
X150867380Y-109720580I50800J0D01*
G01*
X151767380Y-109720580D01*
G75*
G02*
X151818180Y-109771380I0J-50800D01*
G01*
G37*
G36*
G01*
X155118180Y-109771380D02*
X155118180Y-110971380D01*
G75*
G02*
X155067380Y-111022180I-50800J0D01*
G01*
X154167380Y-111022180D01*
G75*
G02*
X154116580Y-110971380I0J50800D01*
G01*
X154116580Y-109771380D01*
G75*
G02*
X154167380Y-109720580I50800J0D01*
G01*
X155067380Y-109720580D01*
G75*
G02*
X155118180Y-109771380I0J-50800D01*
G01*
G37*
G36*
G01*
X147871500Y-106942020D02*
X149821500Y-106942020D01*
G75*
G02*
X149872300Y-106992820I0J-50800D01*
G01*
X149872300Y-108392820D01*
G75*
G02*
X149821500Y-108443620I-50800J0D01*
G01*
X147871500Y-108443620D01*
G75*
G02*
X147820700Y-108392820I0J50800D01*
G01*
X147820700Y-106992820D01*
G75*
G02*
X147871500Y-106942020I50800J0D01*
G01*
G37*
G36*
G01*
X147871500Y-109942020D02*
X149821500Y-109942020D01*
G75*
G02*
X149872300Y-109992820I0J-50800D01*
G01*
X149872300Y-111392820D01*
G75*
G02*
X149821500Y-111443620I-50800J0D01*
G01*
X147871500Y-111443620D01*
G75*
G02*
X147820700Y-111392820I0J50800D01*
G01*
X147820700Y-109992820D01*
G75*
G02*
X147871500Y-109942020I50800J0D01*
G01*
G37*
G36*
G01*
X150304499Y-113651139D02*
X151354501Y-113651139D01*
G75*
G02*
X151405300Y-113701938I0J-50799D01*
G01*
X151405300Y-114201940D01*
G75*
G02*
X151354501Y-114252739I-50799J0D01*
G01*
X150304499Y-114252739D01*
G75*
G02*
X150253700Y-114201940I0J50799D01*
G01*
X150253700Y-113701938D01*
G75*
G02*
X150304499Y-113651139I50799J0D01*
G01*
G37*
G36*
G01*
X150304499Y-112351139D02*
X151354501Y-112351139D01*
G75*
G02*
X151405300Y-112401938I0J-50799D01*
G01*
X151405300Y-112901940D01*
G75*
G02*
X151354501Y-112952739I-50799J0D01*
G01*
X150304499Y-112952739D01*
G75*
G02*
X150253700Y-112901940I0J50799D01*
G01*
X150253700Y-112401938D01*
G75*
G02*
X150304499Y-112351139I50799J0D01*
G01*
G37*
G36*
G01*
X152404499Y-113001139D02*
X153454501Y-113001139D01*
G75*
G02*
X153505300Y-113051938I0J-50799D01*
G01*
X153505300Y-113551940D01*
G75*
G02*
X153454501Y-113602739I-50799J0D01*
G01*
X152404499Y-113602739D01*
G75*
G02*
X152353700Y-113551940I0J50799D01*
G01*
X152353700Y-113051938D01*
G75*
G02*
X152404499Y-113001139I50799J0D01*
G01*
G37*
G36*
G01*
X149472020Y-114588300D02*
X148871220Y-114588300D01*
G75*
G02*
X148645820Y-114362900I0J225400D01*
G01*
X148645820Y-113912100D01*
G75*
G02*
X148871220Y-113686700I225400J0D01*
G01*
X149472020Y-113686700D01*
G75*
G02*
X149697420Y-113912100I0J-225400D01*
G01*
X149697420Y-114362900D01*
G75*
G02*
X149472020Y-114588300I-225400J0D01*
G01*
G37*
G36*
G01*
X149472020Y-112938300D02*
X148871220Y-112938300D01*
G75*
G02*
X148645820Y-112712900I0J225400D01*
G01*
X148645820Y-112262100D01*
G75*
G02*
X148871220Y-112036700I225400J0D01*
G01*
X149472020Y-112036700D01*
G75*
G02*
X149697420Y-112262100I0J-225400D01*
G01*
X149697420Y-112712900D01*
G75*
G02*
X149472020Y-112938300I-225400J0D01*
G01*
G37*
G36*
G01*
X154286980Y-113676139D02*
X154887780Y-113676139D01*
G75*
G02*
X155113180Y-113901539I0J-225400D01*
G01*
X155113180Y-114352339D01*
G75*
G02*
X154887780Y-114577739I-225400J0D01*
G01*
X154286980Y-114577739D01*
G75*
G02*
X154061580Y-114352339I0J225400D01*
G01*
X154061580Y-113901539D01*
G75*
G02*
X154286980Y-113676139I225400J0D01*
G01*
G37*
G36*
G01*
X154286980Y-112026139D02*
X154887780Y-112026139D01*
G75*
G02*
X155113180Y-112251539I0J-225400D01*
G01*
X155113180Y-112702339D01*
G75*
G02*
X154887780Y-112927739I-225400J0D01*
G01*
X154286980Y-112927739D01*
G75*
G02*
X154061580Y-112702339I0J225400D01*
G01*
X154061580Y-112251539D01*
G75*
G02*
X154286980Y-112026139I225400J0D01*
G01*
G37*
G36*
G01*
X161641800Y-104019260D02*
X162441800Y-104019260D01*
G75*
G02*
X162492600Y-104070060I0J-50800D01*
G01*
X162492600Y-104370060D01*
G75*
G02*
X162441800Y-104420860I-50800J0D01*
G01*
X161641800Y-104420860D01*
G75*
G02*
X161591000Y-104370060I0J50800D01*
G01*
X161591000Y-104070060D01*
G75*
G02*
X161641800Y-104019260I50800J0D01*
G01*
G37*
G36*
G01*
X161641800Y-104519260D02*
X162441800Y-104519260D01*
G75*
G02*
X162492600Y-104570060I0J-50800D01*
G01*
X162492600Y-104870060D01*
G75*
G02*
X162441800Y-104920860I-50800J0D01*
G01*
X161641800Y-104920860D01*
G75*
G02*
X161591000Y-104870060I0J50800D01*
G01*
X161591000Y-104570060D01*
G75*
G02*
X161641800Y-104519260I50800J0D01*
G01*
G37*
G36*
G01*
X161641800Y-105019260D02*
X162441800Y-105019260D01*
G75*
G02*
X162492600Y-105070060I0J-50800D01*
G01*
X162492600Y-105370060D01*
G75*
G02*
X162441800Y-105420860I-50800J0D01*
G01*
X161641800Y-105420860D01*
G75*
G02*
X161591000Y-105370060I0J50800D01*
G01*
X161591000Y-105070060D01*
G75*
G02*
X161641800Y-105019260I50800J0D01*
G01*
G37*
G36*
G01*
X161641800Y-105519260D02*
X162441800Y-105519260D01*
G75*
G02*
X162492600Y-105570060I0J-50800D01*
G01*
X162492600Y-105870060D01*
G75*
G02*
X162441800Y-105920860I-50800J0D01*
G01*
X161641800Y-105920860D01*
G75*
G02*
X161591000Y-105870060I0J50800D01*
G01*
X161591000Y-105570060D01*
G75*
G02*
X161641800Y-105519260I50800J0D01*
G01*
G37*
G36*
G01*
X161641800Y-106019260D02*
X162441800Y-106019260D01*
G75*
G02*
X162492600Y-106070060I0J-50800D01*
G01*
X162492600Y-106370060D01*
G75*
G02*
X162441800Y-106420860I-50800J0D01*
G01*
X161641800Y-106420860D01*
G75*
G02*
X161591000Y-106370060I0J50800D01*
G01*
X161591000Y-106070060D01*
G75*
G02*
X161641800Y-106019260I50800J0D01*
G01*
G37*
G36*
G01*
X161641800Y-106519260D02*
X162441800Y-106519260D01*
G75*
G02*
X162492600Y-106570060I0J-50800D01*
G01*
X162492600Y-106870060D01*
G75*
G02*
X162441800Y-106920860I-50800J0D01*
G01*
X161641800Y-106920860D01*
G75*
G02*
X161591000Y-106870060I0J50800D01*
G01*
X161591000Y-106570060D01*
G75*
G02*
X161641800Y-106519260I50800J0D01*
G01*
G37*
G36*
G01*
X161641800Y-107019260D02*
X162441800Y-107019260D01*
G75*
G02*
X162492600Y-107070060I0J-50800D01*
G01*
X162492600Y-107370060D01*
G75*
G02*
X162441800Y-107420860I-50800J0D01*
G01*
X161641800Y-107420860D01*
G75*
G02*
X161591000Y-107370060I0J50800D01*
G01*
X161591000Y-107070060D01*
G75*
G02*
X161641800Y-107019260I50800J0D01*
G01*
G37*
G36*
G01*
X161641800Y-107519260D02*
X162441800Y-107519260D01*
G75*
G02*
X162492600Y-107570060I0J-50800D01*
G01*
X162492600Y-107870060D01*
G75*
G02*
X162441800Y-107920860I-50800J0D01*
G01*
X161641800Y-107920860D01*
G75*
G02*
X161591000Y-107870060I0J50800D01*
G01*
X161591000Y-107570060D01*
G75*
G02*
X161641800Y-107519260I50800J0D01*
G01*
G37*
G36*
G01*
X161641800Y-108019260D02*
X162441800Y-108019260D01*
G75*
G02*
X162492600Y-108070060I0J-50800D01*
G01*
X162492600Y-108370060D01*
G75*
G02*
X162441800Y-108420860I-50800J0D01*
G01*
X161641800Y-108420860D01*
G75*
G02*
X161591000Y-108370060I0J50800D01*
G01*
X161591000Y-108070060D01*
G75*
G02*
X161641800Y-108019260I50800J0D01*
G01*
G37*
G36*
G01*
X161641800Y-108519260D02*
X162441800Y-108519260D01*
G75*
G02*
X162492600Y-108570060I0J-50800D01*
G01*
X162492600Y-108870060D01*
G75*
G02*
X162441800Y-108920860I-50800J0D01*
G01*
X161641800Y-108920860D01*
G75*
G02*
X161591000Y-108870060I0J50800D01*
G01*
X161591000Y-108570060D01*
G75*
G02*
X161641800Y-108519260I50800J0D01*
G01*
G37*
G36*
G01*
X161641800Y-109019260D02*
X162441800Y-109019260D01*
G75*
G02*
X162492600Y-109070060I0J-50800D01*
G01*
X162492600Y-109370060D01*
G75*
G02*
X162441800Y-109420860I-50800J0D01*
G01*
X161641800Y-109420860D01*
G75*
G02*
X161591000Y-109370060I0J50800D01*
G01*
X161591000Y-109070060D01*
G75*
G02*
X161641800Y-109019260I50800J0D01*
G01*
G37*
G36*
G01*
X161641800Y-109519260D02*
X162441800Y-109519260D01*
G75*
G02*
X162492600Y-109570060I0J-50800D01*
G01*
X162492600Y-109870060D01*
G75*
G02*
X162441800Y-109920860I-50800J0D01*
G01*
X161641800Y-109920860D01*
G75*
G02*
X161591000Y-109870060I0J50800D01*
G01*
X161591000Y-109570060D01*
G75*
G02*
X161641800Y-109519260I50800J0D01*
G01*
G37*
G36*
G01*
X161641800Y-110019260D02*
X162441800Y-110019260D01*
G75*
G02*
X162492600Y-110070060I0J-50800D01*
G01*
X162492600Y-110370060D01*
G75*
G02*
X162441800Y-110420860I-50800J0D01*
G01*
X161641800Y-110420860D01*
G75*
G02*
X161591000Y-110370060I0J50800D01*
G01*
X161591000Y-110070060D01*
G75*
G02*
X161641800Y-110019260I50800J0D01*
G01*
G37*
G36*
G01*
X161641800Y-110519260D02*
X162441800Y-110519260D01*
G75*
G02*
X162492600Y-110570060I0J-50800D01*
G01*
X162492600Y-110870060D01*
G75*
G02*
X162441800Y-110920860I-50800J0D01*
G01*
X161641800Y-110920860D01*
G75*
G02*
X161591000Y-110870060I0J50800D01*
G01*
X161591000Y-110570060D01*
G75*
G02*
X161641800Y-110519260I50800J0D01*
G01*
G37*
G36*
G01*
X161641800Y-111019260D02*
X162441800Y-111019260D01*
G75*
G02*
X162492600Y-111070060I0J-50800D01*
G01*
X162492600Y-111370060D01*
G75*
G02*
X162441800Y-111420860I-50800J0D01*
G01*
X161641800Y-111420860D01*
G75*
G02*
X161591000Y-111370060I0J50800D01*
G01*
X161591000Y-111070060D01*
G75*
G02*
X161641800Y-111019260I50800J0D01*
G01*
G37*
G36*
G01*
X161641800Y-111519260D02*
X162441800Y-111519260D01*
G75*
G02*
X162492600Y-111570060I0J-50800D01*
G01*
X162492600Y-111870060D01*
G75*
G02*
X162441800Y-111920860I-50800J0D01*
G01*
X161641800Y-111920860D01*
G75*
G02*
X161591000Y-111870060I0J50800D01*
G01*
X161591000Y-111570060D01*
G75*
G02*
X161641800Y-111519260I50800J0D01*
G01*
G37*
G36*
G01*
X161641800Y-112019260D02*
X162441800Y-112019260D01*
G75*
G02*
X162492600Y-112070060I0J-50800D01*
G01*
X162492600Y-112370060D01*
G75*
G02*
X162441800Y-112420860I-50800J0D01*
G01*
X161641800Y-112420860D01*
G75*
G02*
X161591000Y-112370060I0J50800D01*
G01*
X161591000Y-112070060D01*
G75*
G02*
X161641800Y-112019260I50800J0D01*
G01*
G37*
G36*
G01*
X161641800Y-112519260D02*
X162441800Y-112519260D01*
G75*
G02*
X162492600Y-112570060I0J-50800D01*
G01*
X162492600Y-112870060D01*
G75*
G02*
X162441800Y-112920860I-50800J0D01*
G01*
X161641800Y-112920860D01*
G75*
G02*
X161591000Y-112870060I0J50800D01*
G01*
X161591000Y-112570060D01*
G75*
G02*
X161641800Y-112519260I50800J0D01*
G01*
G37*
G36*
G01*
X161641800Y-113019260D02*
X162441800Y-113019260D01*
G75*
G02*
X162492600Y-113070060I0J-50800D01*
G01*
X162492600Y-113370060D01*
G75*
G02*
X162441800Y-113420860I-50800J0D01*
G01*
X161641800Y-113420860D01*
G75*
G02*
X161591000Y-113370060I0J50800D01*
G01*
X161591000Y-113070060D01*
G75*
G02*
X161641800Y-113019260I50800J0D01*
G01*
G37*
G36*
G01*
X161641800Y-113519260D02*
X162441800Y-113519260D01*
G75*
G02*
X162492600Y-113570060I0J-50800D01*
G01*
X162492600Y-113870060D01*
G75*
G02*
X162441800Y-113920860I-50800J0D01*
G01*
X161641800Y-113920860D01*
G75*
G02*
X161591000Y-113870060I0J50800D01*
G01*
X161591000Y-113570060D01*
G75*
G02*
X161641800Y-113519260I50800J0D01*
G01*
G37*
G36*
G01*
X161641800Y-114019260D02*
X162441800Y-114019260D01*
G75*
G02*
X162492600Y-114070060I0J-50800D01*
G01*
X162492600Y-114370060D01*
G75*
G02*
X162441800Y-114420860I-50800J0D01*
G01*
X161641800Y-114420860D01*
G75*
G02*
X161591000Y-114370060I0J50800D01*
G01*
X161591000Y-114070060D01*
G75*
G02*
X161641800Y-114019260I50800J0D01*
G01*
G37*
G36*
G01*
X161641800Y-114519260D02*
X162441800Y-114519260D01*
G75*
G02*
X162492600Y-114570060I0J-50800D01*
G01*
X162492600Y-114870060D01*
G75*
G02*
X162441800Y-114920860I-50800J0D01*
G01*
X161641800Y-114920860D01*
G75*
G02*
X161591000Y-114870060I0J50800D01*
G01*
X161591000Y-114570060D01*
G75*
G02*
X161641800Y-114519260I50800J0D01*
G01*
G37*
G36*
G01*
X161641800Y-115019260D02*
X162441800Y-115019260D01*
G75*
G02*
X162492600Y-115070060I0J-50800D01*
G01*
X162492600Y-115370060D01*
G75*
G02*
X162441800Y-115420860I-50800J0D01*
G01*
X161641800Y-115420860D01*
G75*
G02*
X161591000Y-115370060I0J50800D01*
G01*
X161591000Y-115070060D01*
G75*
G02*
X161641800Y-115019260I50800J0D01*
G01*
G37*
G36*
G01*
X161641800Y-115519260D02*
X162441800Y-115519260D01*
G75*
G02*
X162492600Y-115570060I0J-50800D01*
G01*
X162492600Y-115870060D01*
G75*
G02*
X162441800Y-115920860I-50800J0D01*
G01*
X161641800Y-115920860D01*
G75*
G02*
X161591000Y-115870060I0J50800D01*
G01*
X161591000Y-115570060D01*
G75*
G02*
X161641800Y-115519260I50800J0D01*
G01*
G37*
M02*
