%TF.GenerationSoftware,KiCad,Pcbnew,5.1.10-88a1d61d58~88~ubuntu20.04.1*%
%TF.CreationDate,2021-07-13T00:32:11+05:30*%
%TF.ProjectId,kimchi-epaper-lid,6b696d63-6869-42d6-9570-617065722d6c,v0.1*%
%TF.SameCoordinates,Original*%
%TF.FileFunction,Soldermask,Bot*%
%TF.FilePolarity,Negative*%
%FSLAX46Y46*%
G04 Gerber Fmt 4.6, Leading zero omitted, Abs format (unit mm)*
G04 Created by KiCad (PCBNEW 5.1.10-88a1d61d58~88~ubuntu20.04.1) date 2021-07-13 00:32:11*
%MOMM*%
%LPD*%
G01*
G04 APERTURE LIST*
%ADD10C,0.100000*%
%ADD11R,1.050000X0.500000*%
%ADD12R,1.820000X1.140000*%
%ADD13C,5.000000*%
%ADD14R,0.200000X1.500000*%
%ADD15R,0.300000X0.750000*%
%ADD16R,1.460000X1.360000*%
%ADD17R,0.900000X1.200000*%
%ADD18R,0.800000X0.300000*%
G04 APERTURE END LIST*
D10*
G36*
X162341800Y-119470060D02*
G01*
X164741800Y-119470060D01*
X164741800Y-118370060D01*
X165591800Y-118370060D01*
X165591800Y-116870060D01*
X162341800Y-116870060D01*
X162341800Y-119470060D01*
G37*
G36*
X162341800Y-100470060D02*
G01*
X164741800Y-100470060D01*
X164741800Y-101570060D01*
X165591800Y-101570060D01*
X165591800Y-103070060D01*
X162341800Y-103070060D01*
X162341800Y-100470060D01*
G37*
D11*
X150829500Y-113301939D03*
X152929500Y-113951939D03*
X152929500Y-112651939D03*
D12*
X149290000Y-110720000D03*
X149290000Y-108940000D03*
D13*
X142600000Y-122100000D03*
X142600000Y-97900000D03*
X118450000Y-122100000D03*
X118450000Y-97900000D03*
D14*
X148700000Y-124160000D03*
X149100000Y-124160000D03*
X149500000Y-124160000D03*
X149900000Y-124160000D03*
X150300000Y-124160000D03*
X146700000Y-121840000D03*
X150700000Y-124160000D03*
X147100000Y-121840000D03*
X151100000Y-124160000D03*
X147500000Y-121840000D03*
X151500000Y-124160000D03*
X147900000Y-121840000D03*
X151900000Y-124160000D03*
X148300000Y-121840000D03*
X152300000Y-124160000D03*
X148700000Y-121840000D03*
X152700000Y-124160000D03*
X149100000Y-121840000D03*
X153100000Y-124160000D03*
X149500000Y-121840000D03*
X153500000Y-124160000D03*
X149900000Y-121840000D03*
X153900000Y-124160000D03*
X150300000Y-121840000D03*
X154300000Y-124160000D03*
X150700000Y-121840000D03*
X154700000Y-124160000D03*
X151100000Y-121840000D03*
X155100000Y-124160000D03*
X151500000Y-121840000D03*
X155500000Y-124160000D03*
X151900000Y-121840000D03*
X155900000Y-124160000D03*
X152300000Y-121840000D03*
X156300000Y-124160000D03*
X152700000Y-121840000D03*
X156700000Y-124160000D03*
X153100000Y-121840000D03*
X157100000Y-124160000D03*
X153500000Y-121840000D03*
X157500000Y-124160000D03*
X153900000Y-121840000D03*
X157900000Y-124160000D03*
X154300000Y-121840000D03*
X158300000Y-124160000D03*
X154700000Y-121840000D03*
X146700000Y-124160000D03*
X155100000Y-121840000D03*
X147100000Y-124160000D03*
X155500000Y-121840000D03*
X147500000Y-124160000D03*
X155900000Y-121840000D03*
X147900000Y-124160000D03*
X156300000Y-121840000D03*
X148300000Y-124160000D03*
X156700000Y-121840000D03*
X157100000Y-121840000D03*
X157500000Y-121840000D03*
X157900000Y-121840000D03*
X158300000Y-121840000D03*
X148700000Y-98160000D03*
X149100000Y-98160000D03*
X149500000Y-98160000D03*
X149900000Y-98160000D03*
X150300000Y-98160000D03*
X146700000Y-95840000D03*
X150700000Y-98160000D03*
X147100000Y-95840000D03*
X151100000Y-98160000D03*
X147500000Y-95840000D03*
X151500000Y-98160000D03*
X147900000Y-95840000D03*
X151900000Y-98160000D03*
X148300000Y-95840000D03*
X152300000Y-98160000D03*
X148700000Y-95840000D03*
X152700000Y-98160000D03*
X149100000Y-95840000D03*
X153100000Y-98160000D03*
X149500000Y-95840000D03*
X153500000Y-98160000D03*
X149900000Y-95840000D03*
X153900000Y-98160000D03*
X150300000Y-95840000D03*
X154300000Y-98160000D03*
X150700000Y-95840000D03*
X154700000Y-98160000D03*
X151100000Y-95840000D03*
X155100000Y-98160000D03*
X151500000Y-95840000D03*
X155500000Y-98160000D03*
X151900000Y-95840000D03*
X155900000Y-98160000D03*
X152300000Y-95840000D03*
X156300000Y-98160000D03*
X152700000Y-95840000D03*
X156700000Y-98160000D03*
X153100000Y-95840000D03*
X157100000Y-98160000D03*
X153500000Y-95840000D03*
X157500000Y-98160000D03*
X153900000Y-95840000D03*
X157900000Y-98160000D03*
X154300000Y-95840000D03*
X158300000Y-98160000D03*
X154700000Y-95840000D03*
X146700000Y-98160000D03*
X155100000Y-95840000D03*
X147100000Y-98160000D03*
X155500000Y-95840000D03*
X147500000Y-98160000D03*
X155900000Y-95840000D03*
X147900000Y-98160000D03*
X156300000Y-95840000D03*
X148300000Y-98160000D03*
X156700000Y-95840000D03*
X157100000Y-95840000D03*
X157500000Y-95840000D03*
X157900000Y-95840000D03*
X158300000Y-95840000D03*
D15*
X169750000Y-99000000D03*
X169250000Y-99000000D03*
X168750000Y-99000000D03*
X168250000Y-99000000D03*
X168250000Y-96000000D03*
X168750000Y-96000000D03*
X169250000Y-96000000D03*
X169750000Y-96000000D03*
D16*
X169000000Y-97500000D03*
G36*
G01*
X155065140Y-105836400D02*
X155065140Y-106336400D01*
G75*
G02*
X154840140Y-106561400I-225000J0D01*
G01*
X154390140Y-106561400D01*
G75*
G02*
X154165140Y-106336400I0J225000D01*
G01*
X154165140Y-105836400D01*
G75*
G02*
X154390140Y-105611400I225000J0D01*
G01*
X154840140Y-105611400D01*
G75*
G02*
X155065140Y-105836400I0J-225000D01*
G01*
G37*
G36*
G01*
X153515140Y-105836400D02*
X153515140Y-106336400D01*
G75*
G02*
X153290140Y-106561400I-225000J0D01*
G01*
X152840140Y-106561400D01*
G75*
G02*
X152615140Y-106336400I0J225000D01*
G01*
X152615140Y-105836400D01*
G75*
G02*
X152840140Y-105611400I225000J0D01*
G01*
X153290140Y-105611400D01*
G75*
G02*
X153515140Y-105836400I0J-225000D01*
G01*
G37*
G36*
G01*
X145421140Y-111154780D02*
X145421140Y-110654780D01*
G75*
G02*
X145646140Y-110429780I225000J0D01*
G01*
X146096140Y-110429780D01*
G75*
G02*
X146321140Y-110654780I0J-225000D01*
G01*
X146321140Y-111154780D01*
G75*
G02*
X146096140Y-111379780I-225000J0D01*
G01*
X145646140Y-111379780D01*
G75*
G02*
X145421140Y-111154780I0J225000D01*
G01*
G37*
G36*
G01*
X143871140Y-111154780D02*
X143871140Y-110654780D01*
G75*
G02*
X144096140Y-110429780I225000J0D01*
G01*
X144546140Y-110429780D01*
G75*
G02*
X144771140Y-110654780I0J-225000D01*
G01*
X144771140Y-111154780D01*
G75*
G02*
X144546140Y-111379780I-225000J0D01*
G01*
X144096140Y-111379780D01*
G75*
G02*
X143871140Y-111154780I0J225000D01*
G01*
G37*
G36*
G01*
X156979400Y-108375446D02*
X156979400Y-108875446D01*
G75*
G02*
X156754400Y-109100446I-225000J0D01*
G01*
X156304400Y-109100446D01*
G75*
G02*
X156079400Y-108875446I0J225000D01*
G01*
X156079400Y-108375446D01*
G75*
G02*
X156304400Y-108150446I225000J0D01*
G01*
X156754400Y-108150446D01*
G75*
G02*
X156979400Y-108375446I0J-225000D01*
G01*
G37*
G36*
G01*
X158529400Y-108375446D02*
X158529400Y-108875446D01*
G75*
G02*
X158304400Y-109100446I-225000J0D01*
G01*
X157854400Y-109100446D01*
G75*
G02*
X157629400Y-108875446I0J225000D01*
G01*
X157629400Y-108375446D01*
G75*
G02*
X157854400Y-108150446I225000J0D01*
G01*
X158304400Y-108150446D01*
G75*
G02*
X158529400Y-108375446I0J-225000D01*
G01*
G37*
G36*
G01*
X156079400Y-105939842D02*
X156079400Y-105439842D01*
G75*
G02*
X156304400Y-105214842I225000J0D01*
G01*
X156754400Y-105214842D01*
G75*
G02*
X156979400Y-105439842I0J-225000D01*
G01*
X156979400Y-105939842D01*
G75*
G02*
X156754400Y-106164842I-225000J0D01*
G01*
X156304400Y-106164842D01*
G75*
G02*
X156079400Y-105939842I0J225000D01*
G01*
G37*
G36*
G01*
X157629400Y-105939842D02*
X157629400Y-105439842D01*
G75*
G02*
X157854400Y-105214842I225000J0D01*
G01*
X158304400Y-105214842D01*
G75*
G02*
X158529400Y-105439842I0J-225000D01*
G01*
X158529400Y-105939842D01*
G75*
G02*
X158304400Y-106164842I-225000J0D01*
G01*
X157854400Y-106164842D01*
G75*
G02*
X157629400Y-105939842I0J225000D01*
G01*
G37*
G36*
G01*
X157629400Y-113278852D02*
X157629400Y-112778852D01*
G75*
G02*
X157854400Y-112553852I225000J0D01*
G01*
X158304400Y-112553852D01*
G75*
G02*
X158529400Y-112778852I0J-225000D01*
G01*
X158529400Y-113278852D01*
G75*
G02*
X158304400Y-113503852I-225000J0D01*
G01*
X157854400Y-113503852D01*
G75*
G02*
X157629400Y-113278852I0J225000D01*
G01*
G37*
G36*
G01*
X156079400Y-113278852D02*
X156079400Y-112778852D01*
G75*
G02*
X156304400Y-112553852I225000J0D01*
G01*
X156754400Y-112553852D01*
G75*
G02*
X156979400Y-112778852I0J-225000D01*
G01*
X156979400Y-113278852D01*
G75*
G02*
X156754400Y-113503852I-225000J0D01*
G01*
X156304400Y-113503852D01*
G75*
G02*
X156079400Y-113278852I0J225000D01*
G01*
G37*
G36*
G01*
X158529400Y-111311050D02*
X158529400Y-111811050D01*
G75*
G02*
X158304400Y-112036050I-225000J0D01*
G01*
X157854400Y-112036050D01*
G75*
G02*
X157629400Y-111811050I0J225000D01*
G01*
X157629400Y-111311050D01*
G75*
G02*
X157854400Y-111086050I225000J0D01*
G01*
X158304400Y-111086050D01*
G75*
G02*
X158529400Y-111311050I0J-225000D01*
G01*
G37*
G36*
G01*
X156979400Y-111311050D02*
X156979400Y-111811050D01*
G75*
G02*
X156754400Y-112036050I-225000J0D01*
G01*
X156304400Y-112036050D01*
G75*
G02*
X156079400Y-111811050I0J225000D01*
G01*
X156079400Y-111311050D01*
G75*
G02*
X156304400Y-111086050I225000J0D01*
G01*
X156754400Y-111086050D01*
G75*
G02*
X156979400Y-111311050I0J-225000D01*
G01*
G37*
G36*
G01*
X156979400Y-109843248D02*
X156979400Y-110343248D01*
G75*
G02*
X156754400Y-110568248I-225000J0D01*
G01*
X156304400Y-110568248D01*
G75*
G02*
X156079400Y-110343248I0J225000D01*
G01*
X156079400Y-109843248D01*
G75*
G02*
X156304400Y-109618248I225000J0D01*
G01*
X156754400Y-109618248D01*
G75*
G02*
X156979400Y-109843248I0J-225000D01*
G01*
G37*
G36*
G01*
X158529400Y-109843248D02*
X158529400Y-110343248D01*
G75*
G02*
X158304400Y-110568248I-225000J0D01*
G01*
X157854400Y-110568248D01*
G75*
G02*
X157629400Y-110343248I0J225000D01*
G01*
X157629400Y-109843248D01*
G75*
G02*
X157854400Y-109618248I225000J0D01*
G01*
X158304400Y-109618248D01*
G75*
G02*
X158529400Y-109843248I0J-225000D01*
G01*
G37*
G36*
G01*
X156979400Y-106907644D02*
X156979400Y-107407644D01*
G75*
G02*
X156754400Y-107632644I-225000J0D01*
G01*
X156304400Y-107632644D01*
G75*
G02*
X156079400Y-107407644I0J225000D01*
G01*
X156079400Y-106907644D01*
G75*
G02*
X156304400Y-106682644I225000J0D01*
G01*
X156754400Y-106682644D01*
G75*
G02*
X156979400Y-106907644I0J-225000D01*
G01*
G37*
G36*
G01*
X158529400Y-106907644D02*
X158529400Y-107407644D01*
G75*
G02*
X158304400Y-107632644I-225000J0D01*
G01*
X157854400Y-107632644D01*
G75*
G02*
X157629400Y-107407644I0J225000D01*
G01*
X157629400Y-106907644D01*
G75*
G02*
X157854400Y-106682644I225000J0D01*
G01*
X158304400Y-106682644D01*
G75*
G02*
X158529400Y-106907644I0J-225000D01*
G01*
G37*
G36*
G01*
X156079400Y-104472040D02*
X156079400Y-103972040D01*
G75*
G02*
X156304400Y-103747040I225000J0D01*
G01*
X156754400Y-103747040D01*
G75*
G02*
X156979400Y-103972040I0J-225000D01*
G01*
X156979400Y-104472040D01*
G75*
G02*
X156754400Y-104697040I-225000J0D01*
G01*
X156304400Y-104697040D01*
G75*
G02*
X156079400Y-104472040I0J225000D01*
G01*
G37*
G36*
G01*
X157629400Y-104472040D02*
X157629400Y-103972040D01*
G75*
G02*
X157854400Y-103747040I225000J0D01*
G01*
X158304400Y-103747040D01*
G75*
G02*
X158529400Y-103972040I0J-225000D01*
G01*
X158529400Y-104472040D01*
G75*
G02*
X158304400Y-104697040I-225000J0D01*
G01*
X157854400Y-104697040D01*
G75*
G02*
X157629400Y-104472040I0J225000D01*
G01*
G37*
G36*
G01*
X158529400Y-115714456D02*
X158529400Y-116214456D01*
G75*
G02*
X158304400Y-116439456I-225000J0D01*
G01*
X157854400Y-116439456D01*
G75*
G02*
X157629400Y-116214456I0J225000D01*
G01*
X157629400Y-115714456D01*
G75*
G02*
X157854400Y-115489456I225000J0D01*
G01*
X158304400Y-115489456D01*
G75*
G02*
X158529400Y-115714456I0J-225000D01*
G01*
G37*
G36*
G01*
X156979400Y-115714456D02*
X156979400Y-116214456D01*
G75*
G02*
X156754400Y-116439456I-225000J0D01*
G01*
X156304400Y-116439456D01*
G75*
G02*
X156079400Y-116214456I0J225000D01*
G01*
X156079400Y-115714456D01*
G75*
G02*
X156304400Y-115489456I225000J0D01*
G01*
X156754400Y-115489456D01*
G75*
G02*
X156979400Y-115714456I0J-225000D01*
G01*
G37*
G36*
G01*
X157629400Y-114746654D02*
X157629400Y-114246654D01*
G75*
G02*
X157854400Y-114021654I225000J0D01*
G01*
X158304400Y-114021654D01*
G75*
G02*
X158529400Y-114246654I0J-225000D01*
G01*
X158529400Y-114746654D01*
G75*
G02*
X158304400Y-114971654I-225000J0D01*
G01*
X157854400Y-114971654D01*
G75*
G02*
X157629400Y-114746654I0J225000D01*
G01*
G37*
G36*
G01*
X156079400Y-114746654D02*
X156079400Y-114246654D01*
G75*
G02*
X156304400Y-114021654I225000J0D01*
G01*
X156754400Y-114021654D01*
G75*
G02*
X156979400Y-114246654I0J-225000D01*
G01*
X156979400Y-114746654D01*
G75*
G02*
X156754400Y-114971654I-225000J0D01*
G01*
X156304400Y-114971654D01*
G75*
G02*
X156079400Y-114746654I0J225000D01*
G01*
G37*
G36*
G01*
X152615140Y-104465959D02*
X152615140Y-103965959D01*
G75*
G02*
X152840140Y-103740959I225000J0D01*
G01*
X153290140Y-103740959D01*
G75*
G02*
X153515140Y-103965959I0J-225000D01*
G01*
X153515140Y-104465959D01*
G75*
G02*
X153290140Y-104690959I-225000J0D01*
G01*
X152840140Y-104690959D01*
G75*
G02*
X152615140Y-104465959I0J225000D01*
G01*
G37*
G36*
G01*
X154165140Y-104465959D02*
X154165140Y-103965959D01*
G75*
G02*
X154390140Y-103740959I225000J0D01*
G01*
X154840140Y-103740959D01*
G75*
G02*
X155065140Y-103965959I0J-225000D01*
G01*
X155065140Y-104465959D01*
G75*
G02*
X154840140Y-104690959I-225000J0D01*
G01*
X154390140Y-104690959D01*
G75*
G02*
X154165140Y-104465959I0J225000D01*
G01*
G37*
D17*
X147616140Y-112982500D03*
X144316140Y-112982500D03*
X151317380Y-108004100D03*
X154617380Y-108004100D03*
X151317380Y-110371380D03*
X154617380Y-110371380D03*
G36*
G01*
X149446620Y-114537500D02*
X148896620Y-114537500D01*
G75*
G02*
X148696620Y-114337500I0J200000D01*
G01*
X148696620Y-113937500D01*
G75*
G02*
X148896620Y-113737500I200000J0D01*
G01*
X149446620Y-113737500D01*
G75*
G02*
X149646620Y-113937500I0J-200000D01*
G01*
X149646620Y-114337500D01*
G75*
G02*
X149446620Y-114537500I-200000J0D01*
G01*
G37*
G36*
G01*
X149446620Y-112887500D02*
X148896620Y-112887500D01*
G75*
G02*
X148696620Y-112687500I0J200000D01*
G01*
X148696620Y-112287500D01*
G75*
G02*
X148896620Y-112087500I200000J0D01*
G01*
X149446620Y-112087500D01*
G75*
G02*
X149646620Y-112287500I0J-200000D01*
G01*
X149646620Y-112687500D01*
G75*
G02*
X149446620Y-112887500I-200000J0D01*
G01*
G37*
G36*
G01*
X154312380Y-113726939D02*
X154862380Y-113726939D01*
G75*
G02*
X155062380Y-113926939I0J-200000D01*
G01*
X155062380Y-114326939D01*
G75*
G02*
X154862380Y-114526939I-200000J0D01*
G01*
X154312380Y-114526939D01*
G75*
G02*
X154112380Y-114326939I0J200000D01*
G01*
X154112380Y-113926939D01*
G75*
G02*
X154312380Y-113726939I200000J0D01*
G01*
G37*
G36*
G01*
X154312380Y-112076939D02*
X154862380Y-112076939D01*
G75*
G02*
X155062380Y-112276939I0J-200000D01*
G01*
X155062380Y-112676939D01*
G75*
G02*
X154862380Y-112876939I-200000J0D01*
G01*
X154312380Y-112876939D01*
G75*
G02*
X154112380Y-112676939I0J200000D01*
G01*
X154112380Y-112276939D01*
G75*
G02*
X154312380Y-112076939I200000J0D01*
G01*
G37*
D18*
X162041800Y-104220060D03*
X162041800Y-104720060D03*
X162041800Y-105220060D03*
X162041800Y-105720060D03*
X162041800Y-106220060D03*
X162041800Y-106720060D03*
X162041800Y-107220060D03*
X162041800Y-107720060D03*
X162041800Y-108220060D03*
X162041800Y-108720060D03*
X162041800Y-109220060D03*
X162041800Y-109720060D03*
X162041800Y-110220060D03*
X162041800Y-110720060D03*
X162041800Y-111220060D03*
X162041800Y-111720060D03*
X162041800Y-112220060D03*
X162041800Y-112720060D03*
X162041800Y-113220060D03*
X162041800Y-113720060D03*
X162041800Y-114220060D03*
X162041800Y-114720060D03*
X162041800Y-115220060D03*
X162041800Y-115720060D03*
M02*
